M48
; DRILL file {KiCad (5.1.5)-3} date 6/6/2020 10:22:33 PM
; FORMAT={-:-/ absolute / inch / decimal}
; #@! TF.CreationDate,2020-06-06T22:22:33-05:00
; #@! TF.GenerationSoftware,Kicad,Pcbnew,(5.1.5)-3
; #@! TF.FileFunction,Plated,1,2,PTH
FMAT,2
INCH
T1C0.0157
T2C0.0276
T3C0.0394
T4C0.0579
T5C0.0591
%
G90
G05
T1
X3.375Y-4.1562
X3.375Y-4.2812
X3.4375Y-4.125
X3.4683Y-4.1558
X3.5892Y-4.1992
X3.6852Y-4.158
X3.77Y-4.2186
X3.8125Y-3.4062
X3.8125Y-3.625
X3.8125Y-4.0312
X3.935Y-4.095
X3.95Y-4.205
X3.9688Y-3.3125
X3.9688Y-4.0312
X4.005Y-3.66
X4.005Y-3.8277
X4.05Y-3.6314
X4.05Y-3.8277
X4.09Y-3.6
X4.09Y-3.83
X4.1Y-4.13
X4.125Y-3.85
X4.13Y-3.5714
X4.1562Y-3.7812
X4.1572Y-3.9991
X4.1614Y-3.525
X4.19Y-3.485
X4.265Y-3.52
X4.305Y-3.55
X4.305Y-4.225
X4.315Y-3.95
X4.32Y-3.855
X4.3436Y-4.06
X4.3438Y-3.75
X4.3889Y-4.2239
X4.39Y-3.86
X4.415Y-3.515
X7.2521Y-3.5221
X7.8125Y-3.7188
X7.8438Y-3.4062
X7.9062Y-3.7188
X7.9375Y-4.1562
X8.1875Y-3.7188
T3
X4.25Y-3.75
X4.25Y-3.8484
X4.25Y-3.9469
X4.8209Y-3.75
X4.8209Y-3.9469
T4
X5.8812Y-3.7437
X5.9328Y-3.6863
X6.1297Y-3.6666
X6.1312Y-3.6437
X5.1312Y-3.7437
X5.1828Y-3.6863
X5.3797Y-3.6666
X5.3812Y-3.6437
X6.6312Y-3.7437
X6.6828Y-3.6863
X6.8797Y-3.6666
X6.8812Y-3.6437
X7.3812Y-3.7437
X7.4328Y-3.6863
X7.6297Y-3.6666
X7.6312Y-3.6437
T2
G00X8.0965Y-3.5125
M15
G01X8.0492Y-3.5125
M16
G05
G00X8.0965Y-3.8
M15
G01X8.0492Y-3.8
M16
G05
G00X8.2736Y-3.5125
M15
G01X8.2264Y-3.5125
M16
G05
G00X8.2736Y-3.8
M15
G01X8.2264Y-3.8
M16
G05
T5
G00X4.5197Y-3.628
M15
G01X4.5709Y-3.628
M16
G05
G00X4.5197Y-4.0689
M15
G01X4.5709Y-4.0689
M16
G05
T0
M30
