G04 #@! TF.GenerationSoftware,KiCad,Pcbnew,(5.1.5)-3*
G04 #@! TF.CreationDate,2020-06-06T22:21:35-05:00*
G04 #@! TF.ProjectId,MacroPad,4d616372-6f50-4616-942e-6b696361645f,rev?*
G04 #@! TF.SameCoordinates,Original*
G04 #@! TF.FileFunction,Paste,Bot*
G04 #@! TF.FilePolarity,Positive*
%FSLAX46Y46*%
G04 Gerber Fmt 4.6, Leading zero omitted, Abs format (unit mm)*
G04 Created by KiCad (PCBNEW (5.1.5)-3) date 2020-06-06 22:21:35*
%MOMM*%
%LPD*%
G04 APERTURE LIST*
%ADD10C,0.100000*%
%ADD11R,1.500000X0.550000*%
%ADD12R,0.550000X1.500000*%
%ADD13R,1.800000X2.100000*%
%ADD14R,2.250000X0.500000*%
%ADD15R,1.800000X1.100000*%
%ADD16R,0.900000X1.200000*%
%ADD17R,1.200000X0.900000*%
G04 APERTURE END LIST*
D10*
G36*
X190087505Y-107632204D02*
G01*
X190111773Y-107635804D01*
X190135572Y-107641765D01*
X190158671Y-107650030D01*
X190180850Y-107660520D01*
X190201893Y-107673132D01*
X190221599Y-107687747D01*
X190239777Y-107704223D01*
X190256253Y-107722401D01*
X190270868Y-107742107D01*
X190283480Y-107763150D01*
X190293970Y-107785329D01*
X190302235Y-107808428D01*
X190308196Y-107832227D01*
X190311796Y-107856495D01*
X190313000Y-107880999D01*
X190313000Y-108781001D01*
X190311796Y-108805505D01*
X190308196Y-108829773D01*
X190302235Y-108853572D01*
X190293970Y-108876671D01*
X190283480Y-108898850D01*
X190270868Y-108919893D01*
X190256253Y-108939599D01*
X190239777Y-108957777D01*
X190221599Y-108974253D01*
X190201893Y-108988868D01*
X190180850Y-109001480D01*
X190158671Y-109011970D01*
X190135572Y-109020235D01*
X190111773Y-109026196D01*
X190087505Y-109029796D01*
X190063001Y-109031000D01*
X189412999Y-109031000D01*
X189388495Y-109029796D01*
X189364227Y-109026196D01*
X189340428Y-109020235D01*
X189317329Y-109011970D01*
X189295150Y-109001480D01*
X189274107Y-108988868D01*
X189254401Y-108974253D01*
X189236223Y-108957777D01*
X189219747Y-108939599D01*
X189205132Y-108919893D01*
X189192520Y-108898850D01*
X189182030Y-108876671D01*
X189173765Y-108853572D01*
X189167804Y-108829773D01*
X189164204Y-108805505D01*
X189163000Y-108781001D01*
X189163000Y-107880999D01*
X189164204Y-107856495D01*
X189167804Y-107832227D01*
X189173765Y-107808428D01*
X189182030Y-107785329D01*
X189192520Y-107763150D01*
X189205132Y-107742107D01*
X189219747Y-107722401D01*
X189236223Y-107704223D01*
X189254401Y-107687747D01*
X189274107Y-107673132D01*
X189295150Y-107660520D01*
X189317329Y-107650030D01*
X189340428Y-107641765D01*
X189364227Y-107635804D01*
X189388495Y-107632204D01*
X189412999Y-107631000D01*
X190063001Y-107631000D01*
X190087505Y-107632204D01*
G37*
G36*
X192137505Y-107632204D02*
G01*
X192161773Y-107635804D01*
X192185572Y-107641765D01*
X192208671Y-107650030D01*
X192230850Y-107660520D01*
X192251893Y-107673132D01*
X192271599Y-107687747D01*
X192289777Y-107704223D01*
X192306253Y-107722401D01*
X192320868Y-107742107D01*
X192333480Y-107763150D01*
X192343970Y-107785329D01*
X192352235Y-107808428D01*
X192358196Y-107832227D01*
X192361796Y-107856495D01*
X192363000Y-107880999D01*
X192363000Y-108781001D01*
X192361796Y-108805505D01*
X192358196Y-108829773D01*
X192352235Y-108853572D01*
X192343970Y-108876671D01*
X192333480Y-108898850D01*
X192320868Y-108919893D01*
X192306253Y-108939599D01*
X192289777Y-108957777D01*
X192271599Y-108974253D01*
X192251893Y-108988868D01*
X192230850Y-109001480D01*
X192208671Y-109011970D01*
X192185572Y-109020235D01*
X192161773Y-109026196D01*
X192137505Y-109029796D01*
X192113001Y-109031000D01*
X191462999Y-109031000D01*
X191438495Y-109029796D01*
X191414227Y-109026196D01*
X191390428Y-109020235D01*
X191367329Y-109011970D01*
X191345150Y-109001480D01*
X191324107Y-108988868D01*
X191304401Y-108974253D01*
X191286223Y-108957777D01*
X191269747Y-108939599D01*
X191255132Y-108919893D01*
X191242520Y-108898850D01*
X191232030Y-108876671D01*
X191223765Y-108853572D01*
X191217804Y-108829773D01*
X191214204Y-108805505D01*
X191213000Y-108781001D01*
X191213000Y-107880999D01*
X191214204Y-107856495D01*
X191217804Y-107832227D01*
X191223765Y-107808428D01*
X191232030Y-107785329D01*
X191242520Y-107763150D01*
X191255132Y-107742107D01*
X191269747Y-107722401D01*
X191286223Y-107704223D01*
X191304401Y-107687747D01*
X191324107Y-107673132D01*
X191345150Y-107660520D01*
X191367329Y-107650030D01*
X191390428Y-107641765D01*
X191414227Y-107635804D01*
X191438495Y-107632204D01*
X191462999Y-107631000D01*
X192113001Y-107631000D01*
X192137505Y-107632204D01*
G37*
D11*
X95393750Y-101631250D03*
X95393750Y-100831250D03*
X95393750Y-100031250D03*
X95393750Y-99231250D03*
X95393750Y-98431250D03*
X95393750Y-97631250D03*
X95393750Y-96831250D03*
X95393750Y-96031250D03*
X95393750Y-95231250D03*
X95393750Y-94431250D03*
X95393750Y-93631250D03*
D12*
X93693750Y-91931250D03*
X92893750Y-91931250D03*
X92093750Y-91931250D03*
X91293750Y-91931250D03*
X90493750Y-91931250D03*
X89693750Y-91931250D03*
X88893750Y-91931250D03*
X88093750Y-91931250D03*
X87293750Y-91931250D03*
X86493750Y-91931250D03*
X85693750Y-91931250D03*
D11*
X83993750Y-93631250D03*
X83993750Y-94431250D03*
X83993750Y-95231250D03*
X83993750Y-96031250D03*
X83993750Y-96831250D03*
X83993750Y-97631250D03*
X83993750Y-98431250D03*
X83993750Y-99231250D03*
X83993750Y-100031250D03*
X83993750Y-100831250D03*
X83993750Y-101631250D03*
D12*
X85693750Y-103331250D03*
X86493750Y-103331250D03*
X87293750Y-103331250D03*
X88093750Y-103331250D03*
X88893750Y-103331250D03*
X89693750Y-103331250D03*
X90493750Y-103331250D03*
X91293750Y-103331250D03*
X92093750Y-103331250D03*
X92893750Y-103331250D03*
X93693750Y-103331250D03*
D13*
X76993750Y-96837500D03*
X76993750Y-99737500D03*
X79293750Y-99737500D03*
X79293750Y-96837500D03*
D14*
X205050000Y-91268750D03*
X205050000Y-92068750D03*
X205050000Y-92868750D03*
X205050000Y-93668750D03*
X205050000Y-94468750D03*
D15*
X203350000Y-102925000D03*
X209550000Y-106625000D03*
X203350000Y-106625000D03*
X209550000Y-102925000D03*
D10*
G36*
X105233505Y-106616204D02*
G01*
X105257773Y-106619804D01*
X105281572Y-106625765D01*
X105304671Y-106634030D01*
X105326850Y-106644520D01*
X105347893Y-106657132D01*
X105367599Y-106671747D01*
X105385777Y-106688223D01*
X105402253Y-106706401D01*
X105416868Y-106726107D01*
X105429480Y-106747150D01*
X105439970Y-106769329D01*
X105448235Y-106792428D01*
X105454196Y-106816227D01*
X105457796Y-106840495D01*
X105459000Y-106864999D01*
X105459000Y-107765001D01*
X105457796Y-107789505D01*
X105454196Y-107813773D01*
X105448235Y-107837572D01*
X105439970Y-107860671D01*
X105429480Y-107882850D01*
X105416868Y-107903893D01*
X105402253Y-107923599D01*
X105385777Y-107941777D01*
X105367599Y-107958253D01*
X105347893Y-107972868D01*
X105326850Y-107985480D01*
X105304671Y-107995970D01*
X105281572Y-108004235D01*
X105257773Y-108010196D01*
X105233505Y-108013796D01*
X105209001Y-108015000D01*
X104558999Y-108015000D01*
X104534495Y-108013796D01*
X104510227Y-108010196D01*
X104486428Y-108004235D01*
X104463329Y-107995970D01*
X104441150Y-107985480D01*
X104420107Y-107972868D01*
X104400401Y-107958253D01*
X104382223Y-107941777D01*
X104365747Y-107923599D01*
X104351132Y-107903893D01*
X104338520Y-107882850D01*
X104328030Y-107860671D01*
X104319765Y-107837572D01*
X104313804Y-107813773D01*
X104310204Y-107789505D01*
X104309000Y-107765001D01*
X104309000Y-106864999D01*
X104310204Y-106840495D01*
X104313804Y-106816227D01*
X104319765Y-106792428D01*
X104328030Y-106769329D01*
X104338520Y-106747150D01*
X104351132Y-106726107D01*
X104365747Y-106706401D01*
X104382223Y-106688223D01*
X104400401Y-106671747D01*
X104420107Y-106657132D01*
X104441150Y-106644520D01*
X104463329Y-106634030D01*
X104486428Y-106625765D01*
X104510227Y-106619804D01*
X104534495Y-106616204D01*
X104558999Y-106615000D01*
X105209001Y-106615000D01*
X105233505Y-106616204D01*
G37*
G36*
X107283505Y-106616204D02*
G01*
X107307773Y-106619804D01*
X107331572Y-106625765D01*
X107354671Y-106634030D01*
X107376850Y-106644520D01*
X107397893Y-106657132D01*
X107417599Y-106671747D01*
X107435777Y-106688223D01*
X107452253Y-106706401D01*
X107466868Y-106726107D01*
X107479480Y-106747150D01*
X107489970Y-106769329D01*
X107498235Y-106792428D01*
X107504196Y-106816227D01*
X107507796Y-106840495D01*
X107509000Y-106864999D01*
X107509000Y-107765001D01*
X107507796Y-107789505D01*
X107504196Y-107813773D01*
X107498235Y-107837572D01*
X107489970Y-107860671D01*
X107479480Y-107882850D01*
X107466868Y-107903893D01*
X107452253Y-107923599D01*
X107435777Y-107941777D01*
X107417599Y-107958253D01*
X107397893Y-107972868D01*
X107376850Y-107985480D01*
X107354671Y-107995970D01*
X107331572Y-108004235D01*
X107307773Y-108010196D01*
X107283505Y-108013796D01*
X107259001Y-108015000D01*
X106608999Y-108015000D01*
X106584495Y-108013796D01*
X106560227Y-108010196D01*
X106536428Y-108004235D01*
X106513329Y-107995970D01*
X106491150Y-107985480D01*
X106470107Y-107972868D01*
X106450401Y-107958253D01*
X106432223Y-107941777D01*
X106415747Y-107923599D01*
X106401132Y-107903893D01*
X106388520Y-107882850D01*
X106378030Y-107860671D01*
X106369765Y-107837572D01*
X106363804Y-107813773D01*
X106360204Y-107789505D01*
X106359000Y-107765001D01*
X106359000Y-106864999D01*
X106360204Y-106840495D01*
X106363804Y-106816227D01*
X106369765Y-106792428D01*
X106378030Y-106769329D01*
X106388520Y-106747150D01*
X106401132Y-106726107D01*
X106415747Y-106706401D01*
X106432223Y-106688223D01*
X106450401Y-106671747D01*
X106470107Y-106657132D01*
X106491150Y-106644520D01*
X106513329Y-106634030D01*
X106536428Y-106625765D01*
X106560227Y-106619804D01*
X106584495Y-106616204D01*
X106608999Y-106615000D01*
X107259001Y-106615000D01*
X107283505Y-106616204D01*
G37*
G36*
X102566505Y-102425204D02*
G01*
X102590773Y-102428804D01*
X102614572Y-102434765D01*
X102637671Y-102443030D01*
X102659850Y-102453520D01*
X102680893Y-102466132D01*
X102700599Y-102480747D01*
X102718777Y-102497223D01*
X102735253Y-102515401D01*
X102749868Y-102535107D01*
X102762480Y-102556150D01*
X102772970Y-102578329D01*
X102781235Y-102601428D01*
X102787196Y-102625227D01*
X102790796Y-102649495D01*
X102792000Y-102673999D01*
X102792000Y-103574001D01*
X102790796Y-103598505D01*
X102787196Y-103622773D01*
X102781235Y-103646572D01*
X102772970Y-103669671D01*
X102762480Y-103691850D01*
X102749868Y-103712893D01*
X102735253Y-103732599D01*
X102718777Y-103750777D01*
X102700599Y-103767253D01*
X102680893Y-103781868D01*
X102659850Y-103794480D01*
X102637671Y-103804970D01*
X102614572Y-103813235D01*
X102590773Y-103819196D01*
X102566505Y-103822796D01*
X102542001Y-103824000D01*
X101891999Y-103824000D01*
X101867495Y-103822796D01*
X101843227Y-103819196D01*
X101819428Y-103813235D01*
X101796329Y-103804970D01*
X101774150Y-103794480D01*
X101753107Y-103781868D01*
X101733401Y-103767253D01*
X101715223Y-103750777D01*
X101698747Y-103732599D01*
X101684132Y-103712893D01*
X101671520Y-103691850D01*
X101661030Y-103669671D01*
X101652765Y-103646572D01*
X101646804Y-103622773D01*
X101643204Y-103598505D01*
X101642000Y-103574001D01*
X101642000Y-102673999D01*
X101643204Y-102649495D01*
X101646804Y-102625227D01*
X101652765Y-102601428D01*
X101661030Y-102578329D01*
X101671520Y-102556150D01*
X101684132Y-102535107D01*
X101698747Y-102515401D01*
X101715223Y-102497223D01*
X101733401Y-102480747D01*
X101753107Y-102466132D01*
X101774150Y-102453520D01*
X101796329Y-102443030D01*
X101819428Y-102434765D01*
X101843227Y-102428804D01*
X101867495Y-102425204D01*
X101891999Y-102424000D01*
X102542001Y-102424000D01*
X102566505Y-102425204D01*
G37*
G36*
X104616505Y-102425204D02*
G01*
X104640773Y-102428804D01*
X104664572Y-102434765D01*
X104687671Y-102443030D01*
X104709850Y-102453520D01*
X104730893Y-102466132D01*
X104750599Y-102480747D01*
X104768777Y-102497223D01*
X104785253Y-102515401D01*
X104799868Y-102535107D01*
X104812480Y-102556150D01*
X104822970Y-102578329D01*
X104831235Y-102601428D01*
X104837196Y-102625227D01*
X104840796Y-102649495D01*
X104842000Y-102673999D01*
X104842000Y-103574001D01*
X104840796Y-103598505D01*
X104837196Y-103622773D01*
X104831235Y-103646572D01*
X104822970Y-103669671D01*
X104812480Y-103691850D01*
X104799868Y-103712893D01*
X104785253Y-103732599D01*
X104768777Y-103750777D01*
X104750599Y-103767253D01*
X104730893Y-103781868D01*
X104709850Y-103794480D01*
X104687671Y-103804970D01*
X104664572Y-103813235D01*
X104640773Y-103819196D01*
X104616505Y-103822796D01*
X104592001Y-103824000D01*
X103941999Y-103824000D01*
X103917495Y-103822796D01*
X103893227Y-103819196D01*
X103869428Y-103813235D01*
X103846329Y-103804970D01*
X103824150Y-103794480D01*
X103803107Y-103781868D01*
X103783401Y-103767253D01*
X103765223Y-103750777D01*
X103748747Y-103732599D01*
X103734132Y-103712893D01*
X103721520Y-103691850D01*
X103711030Y-103669671D01*
X103702765Y-103646572D01*
X103696804Y-103622773D01*
X103693204Y-103598505D01*
X103692000Y-103574001D01*
X103692000Y-102673999D01*
X103693204Y-102649495D01*
X103696804Y-102625227D01*
X103702765Y-102601428D01*
X103711030Y-102578329D01*
X103721520Y-102556150D01*
X103734132Y-102535107D01*
X103748747Y-102515401D01*
X103765223Y-102497223D01*
X103783401Y-102480747D01*
X103803107Y-102466132D01*
X103824150Y-102453520D01*
X103846329Y-102443030D01*
X103869428Y-102434765D01*
X103893227Y-102428804D01*
X103917495Y-102425204D01*
X103941999Y-102424000D01*
X104592001Y-102424000D01*
X104616505Y-102425204D01*
G37*
G36*
X112624505Y-87532454D02*
G01*
X112648773Y-87536054D01*
X112672572Y-87542015D01*
X112695671Y-87550280D01*
X112717850Y-87560770D01*
X112738893Y-87573382D01*
X112758599Y-87587997D01*
X112776777Y-87604473D01*
X112793253Y-87622651D01*
X112807868Y-87642357D01*
X112820480Y-87663400D01*
X112830970Y-87685579D01*
X112839235Y-87708678D01*
X112845196Y-87732477D01*
X112848796Y-87756745D01*
X112850000Y-87781249D01*
X112850000Y-88431251D01*
X112848796Y-88455755D01*
X112845196Y-88480023D01*
X112839235Y-88503822D01*
X112830970Y-88526921D01*
X112820480Y-88549100D01*
X112807868Y-88570143D01*
X112793253Y-88589849D01*
X112776777Y-88608027D01*
X112758599Y-88624503D01*
X112738893Y-88639118D01*
X112717850Y-88651730D01*
X112695671Y-88662220D01*
X112672572Y-88670485D01*
X112648773Y-88676446D01*
X112624505Y-88680046D01*
X112600001Y-88681250D01*
X111699999Y-88681250D01*
X111675495Y-88680046D01*
X111651227Y-88676446D01*
X111627428Y-88670485D01*
X111604329Y-88662220D01*
X111582150Y-88651730D01*
X111561107Y-88639118D01*
X111541401Y-88624503D01*
X111523223Y-88608027D01*
X111506747Y-88589849D01*
X111492132Y-88570143D01*
X111479520Y-88549100D01*
X111469030Y-88526921D01*
X111460765Y-88503822D01*
X111454804Y-88480023D01*
X111451204Y-88455755D01*
X111450000Y-88431251D01*
X111450000Y-87781249D01*
X111451204Y-87756745D01*
X111454804Y-87732477D01*
X111460765Y-87708678D01*
X111469030Y-87685579D01*
X111479520Y-87663400D01*
X111492132Y-87642357D01*
X111506747Y-87622651D01*
X111523223Y-87604473D01*
X111541401Y-87587997D01*
X111561107Y-87573382D01*
X111582150Y-87560770D01*
X111604329Y-87550280D01*
X111627428Y-87542015D01*
X111651227Y-87536054D01*
X111675495Y-87532454D01*
X111699999Y-87531250D01*
X112600001Y-87531250D01*
X112624505Y-87532454D01*
G37*
G36*
X112624505Y-85482454D02*
G01*
X112648773Y-85486054D01*
X112672572Y-85492015D01*
X112695671Y-85500280D01*
X112717850Y-85510770D01*
X112738893Y-85523382D01*
X112758599Y-85537997D01*
X112776777Y-85554473D01*
X112793253Y-85572651D01*
X112807868Y-85592357D01*
X112820480Y-85613400D01*
X112830970Y-85635579D01*
X112839235Y-85658678D01*
X112845196Y-85682477D01*
X112848796Y-85706745D01*
X112850000Y-85731249D01*
X112850000Y-86381251D01*
X112848796Y-86405755D01*
X112845196Y-86430023D01*
X112839235Y-86453822D01*
X112830970Y-86476921D01*
X112820480Y-86499100D01*
X112807868Y-86520143D01*
X112793253Y-86539849D01*
X112776777Y-86558027D01*
X112758599Y-86574503D01*
X112738893Y-86589118D01*
X112717850Y-86601730D01*
X112695671Y-86612220D01*
X112672572Y-86620485D01*
X112648773Y-86626446D01*
X112624505Y-86630046D01*
X112600001Y-86631250D01*
X111699999Y-86631250D01*
X111675495Y-86630046D01*
X111651227Y-86626446D01*
X111627428Y-86620485D01*
X111604329Y-86612220D01*
X111582150Y-86601730D01*
X111561107Y-86589118D01*
X111541401Y-86574503D01*
X111523223Y-86558027D01*
X111506747Y-86539849D01*
X111492132Y-86520143D01*
X111479520Y-86499100D01*
X111469030Y-86476921D01*
X111460765Y-86453822D01*
X111454804Y-86430023D01*
X111451204Y-86405755D01*
X111450000Y-86381251D01*
X111450000Y-85731249D01*
X111451204Y-85706745D01*
X111454804Y-85682477D01*
X111460765Y-85658678D01*
X111469030Y-85635579D01*
X111479520Y-85613400D01*
X111492132Y-85592357D01*
X111506747Y-85572651D01*
X111523223Y-85554473D01*
X111541401Y-85537997D01*
X111561107Y-85523382D01*
X111582150Y-85510770D01*
X111604329Y-85500280D01*
X111627428Y-85492015D01*
X111651227Y-85486054D01*
X111675495Y-85482454D01*
X111699999Y-85481250D01*
X112600001Y-85481250D01*
X112624505Y-85482454D01*
G37*
G36*
X108424505Y-87532454D02*
G01*
X108448773Y-87536054D01*
X108472572Y-87542015D01*
X108495671Y-87550280D01*
X108517850Y-87560770D01*
X108538893Y-87573382D01*
X108558599Y-87587997D01*
X108576777Y-87604473D01*
X108593253Y-87622651D01*
X108607868Y-87642357D01*
X108620480Y-87663400D01*
X108630970Y-87685579D01*
X108639235Y-87708678D01*
X108645196Y-87732477D01*
X108648796Y-87756745D01*
X108650000Y-87781249D01*
X108650000Y-88431251D01*
X108648796Y-88455755D01*
X108645196Y-88480023D01*
X108639235Y-88503822D01*
X108630970Y-88526921D01*
X108620480Y-88549100D01*
X108607868Y-88570143D01*
X108593253Y-88589849D01*
X108576777Y-88608027D01*
X108558599Y-88624503D01*
X108538893Y-88639118D01*
X108517850Y-88651730D01*
X108495671Y-88662220D01*
X108472572Y-88670485D01*
X108448773Y-88676446D01*
X108424505Y-88680046D01*
X108400001Y-88681250D01*
X107499999Y-88681250D01*
X107475495Y-88680046D01*
X107451227Y-88676446D01*
X107427428Y-88670485D01*
X107404329Y-88662220D01*
X107382150Y-88651730D01*
X107361107Y-88639118D01*
X107341401Y-88624503D01*
X107323223Y-88608027D01*
X107306747Y-88589849D01*
X107292132Y-88570143D01*
X107279520Y-88549100D01*
X107269030Y-88526921D01*
X107260765Y-88503822D01*
X107254804Y-88480023D01*
X107251204Y-88455755D01*
X107250000Y-88431251D01*
X107250000Y-87781249D01*
X107251204Y-87756745D01*
X107254804Y-87732477D01*
X107260765Y-87708678D01*
X107269030Y-87685579D01*
X107279520Y-87663400D01*
X107292132Y-87642357D01*
X107306747Y-87622651D01*
X107323223Y-87604473D01*
X107341401Y-87587997D01*
X107361107Y-87573382D01*
X107382150Y-87560770D01*
X107404329Y-87550280D01*
X107427428Y-87542015D01*
X107451227Y-87536054D01*
X107475495Y-87532454D01*
X107499999Y-87531250D01*
X108400001Y-87531250D01*
X108424505Y-87532454D01*
G37*
G36*
X108424505Y-85482454D02*
G01*
X108448773Y-85486054D01*
X108472572Y-85492015D01*
X108495671Y-85500280D01*
X108517850Y-85510770D01*
X108538893Y-85523382D01*
X108558599Y-85537997D01*
X108576777Y-85554473D01*
X108593253Y-85572651D01*
X108607868Y-85592357D01*
X108620480Y-85613400D01*
X108630970Y-85635579D01*
X108639235Y-85658678D01*
X108645196Y-85682477D01*
X108648796Y-85706745D01*
X108650000Y-85731249D01*
X108650000Y-86381251D01*
X108648796Y-86405755D01*
X108645196Y-86430023D01*
X108639235Y-86453822D01*
X108630970Y-86476921D01*
X108620480Y-86499100D01*
X108607868Y-86520143D01*
X108593253Y-86539849D01*
X108576777Y-86558027D01*
X108558599Y-86574503D01*
X108538893Y-86589118D01*
X108517850Y-86601730D01*
X108495671Y-86612220D01*
X108472572Y-86620485D01*
X108448773Y-86626446D01*
X108424505Y-86630046D01*
X108400001Y-86631250D01*
X107499999Y-86631250D01*
X107475495Y-86630046D01*
X107451227Y-86626446D01*
X107427428Y-86620485D01*
X107404329Y-86612220D01*
X107382150Y-86601730D01*
X107361107Y-86589118D01*
X107341401Y-86574503D01*
X107323223Y-86558027D01*
X107306747Y-86539849D01*
X107292132Y-86520143D01*
X107279520Y-86499100D01*
X107269030Y-86476921D01*
X107260765Y-86453822D01*
X107254804Y-86430023D01*
X107251204Y-86405755D01*
X107250000Y-86381251D01*
X107250000Y-85731249D01*
X107251204Y-85706745D01*
X107254804Y-85682477D01*
X107260765Y-85658678D01*
X107269030Y-85635579D01*
X107279520Y-85613400D01*
X107292132Y-85592357D01*
X107306747Y-85572651D01*
X107323223Y-85554473D01*
X107341401Y-85537997D01*
X107361107Y-85523382D01*
X107382150Y-85510770D01*
X107404329Y-85500280D01*
X107427428Y-85492015D01*
X107451227Y-85486054D01*
X107475495Y-85482454D01*
X107499999Y-85481250D01*
X108400001Y-85481250D01*
X108424505Y-85482454D01*
G37*
G36*
X94012005Y-88994954D02*
G01*
X94036273Y-88998554D01*
X94060072Y-89004515D01*
X94083171Y-89012780D01*
X94105350Y-89023270D01*
X94126393Y-89035882D01*
X94146099Y-89050497D01*
X94164277Y-89066973D01*
X94180753Y-89085151D01*
X94195368Y-89104857D01*
X94207980Y-89125900D01*
X94218470Y-89148079D01*
X94226735Y-89171178D01*
X94232696Y-89194977D01*
X94236296Y-89219245D01*
X94237500Y-89243749D01*
X94237500Y-90143751D01*
X94236296Y-90168255D01*
X94232696Y-90192523D01*
X94226735Y-90216322D01*
X94218470Y-90239421D01*
X94207980Y-90261600D01*
X94195368Y-90282643D01*
X94180753Y-90302349D01*
X94164277Y-90320527D01*
X94146099Y-90337003D01*
X94126393Y-90351618D01*
X94105350Y-90364230D01*
X94083171Y-90374720D01*
X94060072Y-90382985D01*
X94036273Y-90388946D01*
X94012005Y-90392546D01*
X93987501Y-90393750D01*
X93337499Y-90393750D01*
X93312995Y-90392546D01*
X93288727Y-90388946D01*
X93264928Y-90382985D01*
X93241829Y-90374720D01*
X93219650Y-90364230D01*
X93198607Y-90351618D01*
X93178901Y-90337003D01*
X93160723Y-90320527D01*
X93144247Y-90302349D01*
X93129632Y-90282643D01*
X93117020Y-90261600D01*
X93106530Y-90239421D01*
X93098265Y-90216322D01*
X93092304Y-90192523D01*
X93088704Y-90168255D01*
X93087500Y-90143751D01*
X93087500Y-89243749D01*
X93088704Y-89219245D01*
X93092304Y-89194977D01*
X93098265Y-89171178D01*
X93106530Y-89148079D01*
X93117020Y-89125900D01*
X93129632Y-89104857D01*
X93144247Y-89085151D01*
X93160723Y-89066973D01*
X93178901Y-89050497D01*
X93198607Y-89035882D01*
X93219650Y-89023270D01*
X93241829Y-89012780D01*
X93264928Y-89004515D01*
X93288727Y-88998554D01*
X93312995Y-88994954D01*
X93337499Y-88993750D01*
X93987501Y-88993750D01*
X94012005Y-88994954D01*
G37*
G36*
X96062005Y-88994954D02*
G01*
X96086273Y-88998554D01*
X96110072Y-89004515D01*
X96133171Y-89012780D01*
X96155350Y-89023270D01*
X96176393Y-89035882D01*
X96196099Y-89050497D01*
X96214277Y-89066973D01*
X96230753Y-89085151D01*
X96245368Y-89104857D01*
X96257980Y-89125900D01*
X96268470Y-89148079D01*
X96276735Y-89171178D01*
X96282696Y-89194977D01*
X96286296Y-89219245D01*
X96287500Y-89243749D01*
X96287500Y-90143751D01*
X96286296Y-90168255D01*
X96282696Y-90192523D01*
X96276735Y-90216322D01*
X96268470Y-90239421D01*
X96257980Y-90261600D01*
X96245368Y-90282643D01*
X96230753Y-90302349D01*
X96214277Y-90320527D01*
X96196099Y-90337003D01*
X96176393Y-90351618D01*
X96155350Y-90364230D01*
X96133171Y-90374720D01*
X96110072Y-90382985D01*
X96086273Y-90388946D01*
X96062005Y-90392546D01*
X96037501Y-90393750D01*
X95387499Y-90393750D01*
X95362995Y-90392546D01*
X95338727Y-90388946D01*
X95314928Y-90382985D01*
X95291829Y-90374720D01*
X95269650Y-90364230D01*
X95248607Y-90351618D01*
X95228901Y-90337003D01*
X95210723Y-90320527D01*
X95194247Y-90302349D01*
X95179632Y-90282643D01*
X95167020Y-90261600D01*
X95156530Y-90239421D01*
X95148265Y-90216322D01*
X95142304Y-90192523D01*
X95138704Y-90168255D01*
X95137500Y-90143751D01*
X95137500Y-89243749D01*
X95138704Y-89219245D01*
X95142304Y-89194977D01*
X95148265Y-89171178D01*
X95156530Y-89148079D01*
X95167020Y-89125900D01*
X95179632Y-89104857D01*
X95194247Y-89085151D01*
X95210723Y-89066973D01*
X95228901Y-89050497D01*
X95248607Y-89035882D01*
X95269650Y-89023270D01*
X95291829Y-89012780D01*
X95314928Y-89004515D01*
X95338727Y-88998554D01*
X95362995Y-88994954D01*
X95387499Y-88993750D01*
X96037501Y-88993750D01*
X96062005Y-88994954D01*
G37*
G36*
X192137505Y-105600204D02*
G01*
X192161773Y-105603804D01*
X192185572Y-105609765D01*
X192208671Y-105618030D01*
X192230850Y-105628520D01*
X192251893Y-105641132D01*
X192271599Y-105655747D01*
X192289777Y-105672223D01*
X192306253Y-105690401D01*
X192320868Y-105710107D01*
X192333480Y-105731150D01*
X192343970Y-105753329D01*
X192352235Y-105776428D01*
X192358196Y-105800227D01*
X192361796Y-105824495D01*
X192363000Y-105848999D01*
X192363000Y-106749001D01*
X192361796Y-106773505D01*
X192358196Y-106797773D01*
X192352235Y-106821572D01*
X192343970Y-106844671D01*
X192333480Y-106866850D01*
X192320868Y-106887893D01*
X192306253Y-106907599D01*
X192289777Y-106925777D01*
X192271599Y-106942253D01*
X192251893Y-106956868D01*
X192230850Y-106969480D01*
X192208671Y-106979970D01*
X192185572Y-106988235D01*
X192161773Y-106994196D01*
X192137505Y-106997796D01*
X192113001Y-106999000D01*
X191462999Y-106999000D01*
X191438495Y-106997796D01*
X191414227Y-106994196D01*
X191390428Y-106988235D01*
X191367329Y-106979970D01*
X191345150Y-106969480D01*
X191324107Y-106956868D01*
X191304401Y-106942253D01*
X191286223Y-106925777D01*
X191269747Y-106907599D01*
X191255132Y-106887893D01*
X191242520Y-106866850D01*
X191232030Y-106844671D01*
X191223765Y-106821572D01*
X191217804Y-106797773D01*
X191214204Y-106773505D01*
X191213000Y-106749001D01*
X191213000Y-105848999D01*
X191214204Y-105824495D01*
X191217804Y-105800227D01*
X191223765Y-105776428D01*
X191232030Y-105753329D01*
X191242520Y-105731150D01*
X191255132Y-105710107D01*
X191269747Y-105690401D01*
X191286223Y-105672223D01*
X191304401Y-105655747D01*
X191324107Y-105641132D01*
X191345150Y-105628520D01*
X191367329Y-105618030D01*
X191390428Y-105609765D01*
X191414227Y-105603804D01*
X191438495Y-105600204D01*
X191462999Y-105599000D01*
X192113001Y-105599000D01*
X192137505Y-105600204D01*
G37*
G36*
X190087505Y-105600204D02*
G01*
X190111773Y-105603804D01*
X190135572Y-105609765D01*
X190158671Y-105618030D01*
X190180850Y-105628520D01*
X190201893Y-105641132D01*
X190221599Y-105655747D01*
X190239777Y-105672223D01*
X190256253Y-105690401D01*
X190270868Y-105710107D01*
X190283480Y-105731150D01*
X190293970Y-105753329D01*
X190302235Y-105776428D01*
X190308196Y-105800227D01*
X190311796Y-105824495D01*
X190313000Y-105848999D01*
X190313000Y-106749001D01*
X190311796Y-106773505D01*
X190308196Y-106797773D01*
X190302235Y-106821572D01*
X190293970Y-106844671D01*
X190283480Y-106866850D01*
X190270868Y-106887893D01*
X190256253Y-106907599D01*
X190239777Y-106925777D01*
X190221599Y-106942253D01*
X190201893Y-106956868D01*
X190180850Y-106969480D01*
X190158671Y-106979970D01*
X190135572Y-106988235D01*
X190111773Y-106994196D01*
X190087505Y-106997796D01*
X190063001Y-106999000D01*
X189412999Y-106999000D01*
X189388495Y-106997796D01*
X189364227Y-106994196D01*
X189340428Y-106988235D01*
X189317329Y-106979970D01*
X189295150Y-106969480D01*
X189274107Y-106956868D01*
X189254401Y-106942253D01*
X189236223Y-106925777D01*
X189219747Y-106907599D01*
X189205132Y-106887893D01*
X189192520Y-106866850D01*
X189182030Y-106844671D01*
X189173765Y-106821572D01*
X189167804Y-106797773D01*
X189164204Y-106773505D01*
X189163000Y-106749001D01*
X189163000Y-105848999D01*
X189164204Y-105824495D01*
X189167804Y-105800227D01*
X189173765Y-105776428D01*
X189182030Y-105753329D01*
X189192520Y-105731150D01*
X189205132Y-105710107D01*
X189219747Y-105690401D01*
X189236223Y-105672223D01*
X189254401Y-105655747D01*
X189274107Y-105641132D01*
X189295150Y-105628520D01*
X189317329Y-105618030D01*
X189340428Y-105609765D01*
X189364227Y-105603804D01*
X189388495Y-105600204D01*
X189412999Y-105599000D01*
X190063001Y-105599000D01*
X190087505Y-105600204D01*
G37*
G36*
X200374505Y-106457454D02*
G01*
X200398773Y-106461054D01*
X200422572Y-106467015D01*
X200445671Y-106475280D01*
X200467850Y-106485770D01*
X200488893Y-106498382D01*
X200508599Y-106512997D01*
X200526777Y-106529473D01*
X200543253Y-106547651D01*
X200557868Y-106567357D01*
X200570480Y-106588400D01*
X200580970Y-106610579D01*
X200589235Y-106633678D01*
X200595196Y-106657477D01*
X200598796Y-106681745D01*
X200600000Y-106706249D01*
X200600000Y-107606251D01*
X200598796Y-107630755D01*
X200595196Y-107655023D01*
X200589235Y-107678822D01*
X200580970Y-107701921D01*
X200570480Y-107724100D01*
X200557868Y-107745143D01*
X200543253Y-107764849D01*
X200526777Y-107783027D01*
X200508599Y-107799503D01*
X200488893Y-107814118D01*
X200467850Y-107826730D01*
X200445671Y-107837220D01*
X200422572Y-107845485D01*
X200398773Y-107851446D01*
X200374505Y-107855046D01*
X200350001Y-107856250D01*
X199699999Y-107856250D01*
X199675495Y-107855046D01*
X199651227Y-107851446D01*
X199627428Y-107845485D01*
X199604329Y-107837220D01*
X199582150Y-107826730D01*
X199561107Y-107814118D01*
X199541401Y-107799503D01*
X199523223Y-107783027D01*
X199506747Y-107764849D01*
X199492132Y-107745143D01*
X199479520Y-107724100D01*
X199469030Y-107701921D01*
X199460765Y-107678822D01*
X199454804Y-107655023D01*
X199451204Y-107630755D01*
X199450000Y-107606251D01*
X199450000Y-106706249D01*
X199451204Y-106681745D01*
X199454804Y-106657477D01*
X199460765Y-106633678D01*
X199469030Y-106610579D01*
X199479520Y-106588400D01*
X199492132Y-106567357D01*
X199506747Y-106547651D01*
X199523223Y-106529473D01*
X199541401Y-106512997D01*
X199561107Y-106498382D01*
X199582150Y-106485770D01*
X199604329Y-106475280D01*
X199627428Y-106467015D01*
X199651227Y-106461054D01*
X199675495Y-106457454D01*
X199699999Y-106456250D01*
X200350001Y-106456250D01*
X200374505Y-106457454D01*
G37*
G36*
X198324505Y-106457454D02*
G01*
X198348773Y-106461054D01*
X198372572Y-106467015D01*
X198395671Y-106475280D01*
X198417850Y-106485770D01*
X198438893Y-106498382D01*
X198458599Y-106512997D01*
X198476777Y-106529473D01*
X198493253Y-106547651D01*
X198507868Y-106567357D01*
X198520480Y-106588400D01*
X198530970Y-106610579D01*
X198539235Y-106633678D01*
X198545196Y-106657477D01*
X198548796Y-106681745D01*
X198550000Y-106706249D01*
X198550000Y-107606251D01*
X198548796Y-107630755D01*
X198545196Y-107655023D01*
X198539235Y-107678822D01*
X198530970Y-107701921D01*
X198520480Y-107724100D01*
X198507868Y-107745143D01*
X198493253Y-107764849D01*
X198476777Y-107783027D01*
X198458599Y-107799503D01*
X198438893Y-107814118D01*
X198417850Y-107826730D01*
X198395671Y-107837220D01*
X198372572Y-107845485D01*
X198348773Y-107851446D01*
X198324505Y-107855046D01*
X198300001Y-107856250D01*
X197649999Y-107856250D01*
X197625495Y-107855046D01*
X197601227Y-107851446D01*
X197577428Y-107845485D01*
X197554329Y-107837220D01*
X197532150Y-107826730D01*
X197511107Y-107814118D01*
X197491401Y-107799503D01*
X197473223Y-107783027D01*
X197456747Y-107764849D01*
X197442132Y-107745143D01*
X197429520Y-107724100D01*
X197419030Y-107701921D01*
X197410765Y-107678822D01*
X197404804Y-107655023D01*
X197401204Y-107630755D01*
X197400000Y-107606251D01*
X197400000Y-106706249D01*
X197401204Y-106681745D01*
X197404804Y-106657477D01*
X197410765Y-106633678D01*
X197419030Y-106610579D01*
X197429520Y-106588400D01*
X197442132Y-106567357D01*
X197456747Y-106547651D01*
X197473223Y-106529473D01*
X197491401Y-106512997D01*
X197511107Y-106498382D01*
X197532150Y-106485770D01*
X197554329Y-106475280D01*
X197577428Y-106467015D01*
X197601227Y-106461054D01*
X197625495Y-106457454D01*
X197649999Y-106456250D01*
X198300001Y-106456250D01*
X198324505Y-106457454D01*
G37*
G36*
X193327004Y-83327204D02*
G01*
X193351273Y-83330804D01*
X193375071Y-83336765D01*
X193398171Y-83345030D01*
X193420349Y-83355520D01*
X193441393Y-83368133D01*
X193461098Y-83382747D01*
X193479277Y-83399223D01*
X193495753Y-83417402D01*
X193510367Y-83437107D01*
X193522980Y-83458151D01*
X193533470Y-83480329D01*
X193541735Y-83503429D01*
X193547696Y-83527227D01*
X193551296Y-83551496D01*
X193552500Y-83576000D01*
X193552500Y-84826000D01*
X193551296Y-84850504D01*
X193547696Y-84874773D01*
X193541735Y-84898571D01*
X193533470Y-84921671D01*
X193522980Y-84943849D01*
X193510367Y-84964893D01*
X193495753Y-84984598D01*
X193479277Y-85002777D01*
X193461098Y-85019253D01*
X193441393Y-85033867D01*
X193420349Y-85046480D01*
X193398171Y-85056970D01*
X193375071Y-85065235D01*
X193351273Y-85071196D01*
X193327004Y-85074796D01*
X193302500Y-85076000D01*
X192377500Y-85076000D01*
X192352996Y-85074796D01*
X192328727Y-85071196D01*
X192304929Y-85065235D01*
X192281829Y-85056970D01*
X192259651Y-85046480D01*
X192238607Y-85033867D01*
X192218902Y-85019253D01*
X192200723Y-85002777D01*
X192184247Y-84984598D01*
X192169633Y-84964893D01*
X192157020Y-84943849D01*
X192146530Y-84921671D01*
X192138265Y-84898571D01*
X192132304Y-84874773D01*
X192128704Y-84850504D01*
X192127500Y-84826000D01*
X192127500Y-83576000D01*
X192128704Y-83551496D01*
X192132304Y-83527227D01*
X192138265Y-83503429D01*
X192146530Y-83480329D01*
X192157020Y-83458151D01*
X192169633Y-83437107D01*
X192184247Y-83417402D01*
X192200723Y-83399223D01*
X192218902Y-83382747D01*
X192238607Y-83368133D01*
X192259651Y-83355520D01*
X192281829Y-83345030D01*
X192304929Y-83336765D01*
X192328727Y-83330804D01*
X192352996Y-83327204D01*
X192377500Y-83326000D01*
X193302500Y-83326000D01*
X193327004Y-83327204D01*
G37*
G36*
X190352004Y-83327204D02*
G01*
X190376273Y-83330804D01*
X190400071Y-83336765D01*
X190423171Y-83345030D01*
X190445349Y-83355520D01*
X190466393Y-83368133D01*
X190486098Y-83382747D01*
X190504277Y-83399223D01*
X190520753Y-83417402D01*
X190535367Y-83437107D01*
X190547980Y-83458151D01*
X190558470Y-83480329D01*
X190566735Y-83503429D01*
X190572696Y-83527227D01*
X190576296Y-83551496D01*
X190577500Y-83576000D01*
X190577500Y-84826000D01*
X190576296Y-84850504D01*
X190572696Y-84874773D01*
X190566735Y-84898571D01*
X190558470Y-84921671D01*
X190547980Y-84943849D01*
X190535367Y-84964893D01*
X190520753Y-84984598D01*
X190504277Y-85002777D01*
X190486098Y-85019253D01*
X190466393Y-85033867D01*
X190445349Y-85046480D01*
X190423171Y-85056970D01*
X190400071Y-85065235D01*
X190376273Y-85071196D01*
X190352004Y-85074796D01*
X190327500Y-85076000D01*
X189402500Y-85076000D01*
X189377996Y-85074796D01*
X189353727Y-85071196D01*
X189329929Y-85065235D01*
X189306829Y-85056970D01*
X189284651Y-85046480D01*
X189263607Y-85033867D01*
X189243902Y-85019253D01*
X189225723Y-85002777D01*
X189209247Y-84984598D01*
X189194633Y-84964893D01*
X189182020Y-84943849D01*
X189171530Y-84921671D01*
X189163265Y-84898571D01*
X189157304Y-84874773D01*
X189153704Y-84850504D01*
X189152500Y-84826000D01*
X189152500Y-83576000D01*
X189153704Y-83551496D01*
X189157304Y-83527227D01*
X189163265Y-83503429D01*
X189171530Y-83480329D01*
X189182020Y-83458151D01*
X189194633Y-83437107D01*
X189209247Y-83417402D01*
X189225723Y-83399223D01*
X189243902Y-83382747D01*
X189263607Y-83368133D01*
X189284651Y-83355520D01*
X189306829Y-83345030D01*
X189329929Y-83336765D01*
X189353727Y-83330804D01*
X189377996Y-83327204D01*
X189402500Y-83326000D01*
X190327500Y-83326000D01*
X190352004Y-83327204D01*
G37*
D16*
X193675000Y-88900000D03*
X190375000Y-88900000D03*
D17*
X180975000Y-92868750D03*
X180975000Y-96168750D03*
X161131250Y-92868750D03*
X161131250Y-96168750D03*
X142875000Y-92868750D03*
X142875000Y-96168750D03*
D10*
G36*
X102455505Y-104836204D02*
G01*
X102479773Y-104839804D01*
X102503572Y-104845765D01*
X102526671Y-104854030D01*
X102548850Y-104864520D01*
X102569893Y-104877132D01*
X102589599Y-104891747D01*
X102607777Y-104908223D01*
X102624253Y-104926401D01*
X102638868Y-104946107D01*
X102651480Y-104967150D01*
X102661970Y-104989329D01*
X102670235Y-105012428D01*
X102676196Y-105036227D01*
X102679796Y-105060495D01*
X102681000Y-105084999D01*
X102681000Y-105735001D01*
X102679796Y-105759505D01*
X102676196Y-105783773D01*
X102670235Y-105807572D01*
X102661970Y-105830671D01*
X102651480Y-105852850D01*
X102638868Y-105873893D01*
X102624253Y-105893599D01*
X102607777Y-105911777D01*
X102589599Y-105928253D01*
X102569893Y-105942868D01*
X102548850Y-105955480D01*
X102526671Y-105965970D01*
X102503572Y-105974235D01*
X102479773Y-105980196D01*
X102455505Y-105983796D01*
X102431001Y-105985000D01*
X101530999Y-105985000D01*
X101506495Y-105983796D01*
X101482227Y-105980196D01*
X101458428Y-105974235D01*
X101435329Y-105965970D01*
X101413150Y-105955480D01*
X101392107Y-105942868D01*
X101372401Y-105928253D01*
X101354223Y-105911777D01*
X101337747Y-105893599D01*
X101323132Y-105873893D01*
X101310520Y-105852850D01*
X101300030Y-105830671D01*
X101291765Y-105807572D01*
X101285804Y-105783773D01*
X101282204Y-105759505D01*
X101281000Y-105735001D01*
X101281000Y-105084999D01*
X101282204Y-105060495D01*
X101285804Y-105036227D01*
X101291765Y-105012428D01*
X101300030Y-104989329D01*
X101310520Y-104967150D01*
X101323132Y-104946107D01*
X101337747Y-104926401D01*
X101354223Y-104908223D01*
X101372401Y-104891747D01*
X101392107Y-104877132D01*
X101413150Y-104864520D01*
X101435329Y-104854030D01*
X101458428Y-104845765D01*
X101482227Y-104839804D01*
X101506495Y-104836204D01*
X101530999Y-104835000D01*
X102431001Y-104835000D01*
X102455505Y-104836204D01*
G37*
G36*
X102455505Y-106886204D02*
G01*
X102479773Y-106889804D01*
X102503572Y-106895765D01*
X102526671Y-106904030D01*
X102548850Y-106914520D01*
X102569893Y-106927132D01*
X102589599Y-106941747D01*
X102607777Y-106958223D01*
X102624253Y-106976401D01*
X102638868Y-106996107D01*
X102651480Y-107017150D01*
X102661970Y-107039329D01*
X102670235Y-107062428D01*
X102676196Y-107086227D01*
X102679796Y-107110495D01*
X102681000Y-107134999D01*
X102681000Y-107785001D01*
X102679796Y-107809505D01*
X102676196Y-107833773D01*
X102670235Y-107857572D01*
X102661970Y-107880671D01*
X102651480Y-107902850D01*
X102638868Y-107923893D01*
X102624253Y-107943599D01*
X102607777Y-107961777D01*
X102589599Y-107978253D01*
X102569893Y-107992868D01*
X102548850Y-108005480D01*
X102526671Y-108015970D01*
X102503572Y-108024235D01*
X102479773Y-108030196D01*
X102455505Y-108033796D01*
X102431001Y-108035000D01*
X101530999Y-108035000D01*
X101506495Y-108033796D01*
X101482227Y-108030196D01*
X101458428Y-108024235D01*
X101435329Y-108015970D01*
X101413150Y-108005480D01*
X101392107Y-107992868D01*
X101372401Y-107978253D01*
X101354223Y-107961777D01*
X101337747Y-107943599D01*
X101323132Y-107923893D01*
X101310520Y-107902850D01*
X101300030Y-107880671D01*
X101291765Y-107857572D01*
X101285804Y-107833773D01*
X101282204Y-107809505D01*
X101281000Y-107785001D01*
X101281000Y-107134999D01*
X101282204Y-107110495D01*
X101285804Y-107086227D01*
X101291765Y-107062428D01*
X101300030Y-107039329D01*
X101310520Y-107017150D01*
X101323132Y-106996107D01*
X101337747Y-106976401D01*
X101354223Y-106958223D01*
X101372401Y-106941747D01*
X101392107Y-106927132D01*
X101413150Y-106914520D01*
X101435329Y-106904030D01*
X101458428Y-106895765D01*
X101482227Y-106889804D01*
X101506495Y-106886204D01*
X101530999Y-106885000D01*
X102431001Y-106885000D01*
X102455505Y-106886204D01*
G37*
G36*
X98899505Y-99769954D02*
G01*
X98923773Y-99773554D01*
X98947572Y-99779515D01*
X98970671Y-99787780D01*
X98992850Y-99798270D01*
X99013893Y-99810882D01*
X99033599Y-99825497D01*
X99051777Y-99841973D01*
X99068253Y-99860151D01*
X99082868Y-99879857D01*
X99095480Y-99900900D01*
X99105970Y-99923079D01*
X99114235Y-99946178D01*
X99120196Y-99969977D01*
X99123796Y-99994245D01*
X99125000Y-100018749D01*
X99125000Y-100668751D01*
X99123796Y-100693255D01*
X99120196Y-100717523D01*
X99114235Y-100741322D01*
X99105970Y-100764421D01*
X99095480Y-100786600D01*
X99082868Y-100807643D01*
X99068253Y-100827349D01*
X99051777Y-100845527D01*
X99033599Y-100862003D01*
X99013893Y-100876618D01*
X98992850Y-100889230D01*
X98970671Y-100899720D01*
X98947572Y-100907985D01*
X98923773Y-100913946D01*
X98899505Y-100917546D01*
X98875001Y-100918750D01*
X97974999Y-100918750D01*
X97950495Y-100917546D01*
X97926227Y-100913946D01*
X97902428Y-100907985D01*
X97879329Y-100899720D01*
X97857150Y-100889230D01*
X97836107Y-100876618D01*
X97816401Y-100862003D01*
X97798223Y-100845527D01*
X97781747Y-100827349D01*
X97767132Y-100807643D01*
X97754520Y-100786600D01*
X97744030Y-100764421D01*
X97735765Y-100741322D01*
X97729804Y-100717523D01*
X97726204Y-100693255D01*
X97725000Y-100668751D01*
X97725000Y-100018749D01*
X97726204Y-99994245D01*
X97729804Y-99969977D01*
X97735765Y-99946178D01*
X97744030Y-99923079D01*
X97754520Y-99900900D01*
X97767132Y-99879857D01*
X97781747Y-99860151D01*
X97798223Y-99841973D01*
X97816401Y-99825497D01*
X97836107Y-99810882D01*
X97857150Y-99798270D01*
X97879329Y-99787780D01*
X97902428Y-99779515D01*
X97926227Y-99773554D01*
X97950495Y-99769954D01*
X97974999Y-99768750D01*
X98875001Y-99768750D01*
X98899505Y-99769954D01*
G37*
G36*
X98899505Y-101819954D02*
G01*
X98923773Y-101823554D01*
X98947572Y-101829515D01*
X98970671Y-101837780D01*
X98992850Y-101848270D01*
X99013893Y-101860882D01*
X99033599Y-101875497D01*
X99051777Y-101891973D01*
X99068253Y-101910151D01*
X99082868Y-101929857D01*
X99095480Y-101950900D01*
X99105970Y-101973079D01*
X99114235Y-101996178D01*
X99120196Y-102019977D01*
X99123796Y-102044245D01*
X99125000Y-102068749D01*
X99125000Y-102718751D01*
X99123796Y-102743255D01*
X99120196Y-102767523D01*
X99114235Y-102791322D01*
X99105970Y-102814421D01*
X99095480Y-102836600D01*
X99082868Y-102857643D01*
X99068253Y-102877349D01*
X99051777Y-102895527D01*
X99033599Y-102912003D01*
X99013893Y-102926618D01*
X98992850Y-102939230D01*
X98970671Y-102949720D01*
X98947572Y-102957985D01*
X98923773Y-102963946D01*
X98899505Y-102967546D01*
X98875001Y-102968750D01*
X97974999Y-102968750D01*
X97950495Y-102967546D01*
X97926227Y-102963946D01*
X97902428Y-102957985D01*
X97879329Y-102949720D01*
X97857150Y-102939230D01*
X97836107Y-102926618D01*
X97816401Y-102912003D01*
X97798223Y-102895527D01*
X97781747Y-102877349D01*
X97767132Y-102857643D01*
X97754520Y-102836600D01*
X97744030Y-102814421D01*
X97735765Y-102791322D01*
X97729804Y-102767523D01*
X97726204Y-102743255D01*
X97725000Y-102718751D01*
X97725000Y-102068749D01*
X97726204Y-102044245D01*
X97729804Y-102019977D01*
X97735765Y-101996178D01*
X97744030Y-101973079D01*
X97754520Y-101950900D01*
X97767132Y-101929857D01*
X97781747Y-101910151D01*
X97798223Y-101891973D01*
X97816401Y-101875497D01*
X97836107Y-101860882D01*
X97857150Y-101848270D01*
X97879329Y-101837780D01*
X97902428Y-101829515D01*
X97926227Y-101823554D01*
X97950495Y-101819954D01*
X97974999Y-101818750D01*
X98875001Y-101818750D01*
X98899505Y-101819954D01*
G37*
G36*
X85612005Y-88994954D02*
G01*
X85636273Y-88998554D01*
X85660072Y-89004515D01*
X85683171Y-89012780D01*
X85705350Y-89023270D01*
X85726393Y-89035882D01*
X85746099Y-89050497D01*
X85764277Y-89066973D01*
X85780753Y-89085151D01*
X85795368Y-89104857D01*
X85807980Y-89125900D01*
X85818470Y-89148079D01*
X85826735Y-89171178D01*
X85832696Y-89194977D01*
X85836296Y-89219245D01*
X85837500Y-89243749D01*
X85837500Y-90143751D01*
X85836296Y-90168255D01*
X85832696Y-90192523D01*
X85826735Y-90216322D01*
X85818470Y-90239421D01*
X85807980Y-90261600D01*
X85795368Y-90282643D01*
X85780753Y-90302349D01*
X85764277Y-90320527D01*
X85746099Y-90337003D01*
X85726393Y-90351618D01*
X85705350Y-90364230D01*
X85683171Y-90374720D01*
X85660072Y-90382985D01*
X85636273Y-90388946D01*
X85612005Y-90392546D01*
X85587501Y-90393750D01*
X84937499Y-90393750D01*
X84912995Y-90392546D01*
X84888727Y-90388946D01*
X84864928Y-90382985D01*
X84841829Y-90374720D01*
X84819650Y-90364230D01*
X84798607Y-90351618D01*
X84778901Y-90337003D01*
X84760723Y-90320527D01*
X84744247Y-90302349D01*
X84729632Y-90282643D01*
X84717020Y-90261600D01*
X84706530Y-90239421D01*
X84698265Y-90216322D01*
X84692304Y-90192523D01*
X84688704Y-90168255D01*
X84687500Y-90143751D01*
X84687500Y-89243749D01*
X84688704Y-89219245D01*
X84692304Y-89194977D01*
X84698265Y-89171178D01*
X84706530Y-89148079D01*
X84717020Y-89125900D01*
X84729632Y-89104857D01*
X84744247Y-89085151D01*
X84760723Y-89066973D01*
X84778901Y-89050497D01*
X84798607Y-89035882D01*
X84819650Y-89023270D01*
X84841829Y-89012780D01*
X84864928Y-89004515D01*
X84888727Y-88998554D01*
X84912995Y-88994954D01*
X84937499Y-88993750D01*
X85587501Y-88993750D01*
X85612005Y-88994954D01*
G37*
G36*
X87662005Y-88994954D02*
G01*
X87686273Y-88998554D01*
X87710072Y-89004515D01*
X87733171Y-89012780D01*
X87755350Y-89023270D01*
X87776393Y-89035882D01*
X87796099Y-89050497D01*
X87814277Y-89066973D01*
X87830753Y-89085151D01*
X87845368Y-89104857D01*
X87857980Y-89125900D01*
X87868470Y-89148079D01*
X87876735Y-89171178D01*
X87882696Y-89194977D01*
X87886296Y-89219245D01*
X87887500Y-89243749D01*
X87887500Y-90143751D01*
X87886296Y-90168255D01*
X87882696Y-90192523D01*
X87876735Y-90216322D01*
X87868470Y-90239421D01*
X87857980Y-90261600D01*
X87845368Y-90282643D01*
X87830753Y-90302349D01*
X87814277Y-90320527D01*
X87796099Y-90337003D01*
X87776393Y-90351618D01*
X87755350Y-90364230D01*
X87733171Y-90374720D01*
X87710072Y-90382985D01*
X87686273Y-90388946D01*
X87662005Y-90392546D01*
X87637501Y-90393750D01*
X86987499Y-90393750D01*
X86962995Y-90392546D01*
X86938727Y-90388946D01*
X86914928Y-90382985D01*
X86891829Y-90374720D01*
X86869650Y-90364230D01*
X86848607Y-90351618D01*
X86828901Y-90337003D01*
X86810723Y-90320527D01*
X86794247Y-90302349D01*
X86779632Y-90282643D01*
X86767020Y-90261600D01*
X86756530Y-90239421D01*
X86748265Y-90216322D01*
X86742304Y-90192523D01*
X86738704Y-90168255D01*
X86737500Y-90143751D01*
X86737500Y-89243749D01*
X86738704Y-89219245D01*
X86742304Y-89194977D01*
X86748265Y-89171178D01*
X86756530Y-89148079D01*
X86767020Y-89125900D01*
X86779632Y-89104857D01*
X86794247Y-89085151D01*
X86810723Y-89066973D01*
X86828901Y-89050497D01*
X86848607Y-89035882D01*
X86869650Y-89023270D01*
X86891829Y-89012780D01*
X86914928Y-89004515D01*
X86938727Y-88998554D01*
X86962995Y-88994954D01*
X86987499Y-88993750D01*
X87637501Y-88993750D01*
X87662005Y-88994954D01*
G37*
G36*
X82105755Y-104869954D02*
G01*
X82130023Y-104873554D01*
X82153822Y-104879515D01*
X82176921Y-104887780D01*
X82199100Y-104898270D01*
X82220143Y-104910882D01*
X82239849Y-104925497D01*
X82258027Y-104941973D01*
X82274503Y-104960151D01*
X82289118Y-104979857D01*
X82301730Y-105000900D01*
X82312220Y-105023079D01*
X82320485Y-105046178D01*
X82326446Y-105069977D01*
X82330046Y-105094245D01*
X82331250Y-105118749D01*
X82331250Y-106018751D01*
X82330046Y-106043255D01*
X82326446Y-106067523D01*
X82320485Y-106091322D01*
X82312220Y-106114421D01*
X82301730Y-106136600D01*
X82289118Y-106157643D01*
X82274503Y-106177349D01*
X82258027Y-106195527D01*
X82239849Y-106212003D01*
X82220143Y-106226618D01*
X82199100Y-106239230D01*
X82176921Y-106249720D01*
X82153822Y-106257985D01*
X82130023Y-106263946D01*
X82105755Y-106267546D01*
X82081251Y-106268750D01*
X81431249Y-106268750D01*
X81406745Y-106267546D01*
X81382477Y-106263946D01*
X81358678Y-106257985D01*
X81335579Y-106249720D01*
X81313400Y-106239230D01*
X81292357Y-106226618D01*
X81272651Y-106212003D01*
X81254473Y-106195527D01*
X81237997Y-106177349D01*
X81223382Y-106157643D01*
X81210770Y-106136600D01*
X81200280Y-106114421D01*
X81192015Y-106091322D01*
X81186054Y-106067523D01*
X81182454Y-106043255D01*
X81181250Y-106018751D01*
X81181250Y-105118749D01*
X81182454Y-105094245D01*
X81186054Y-105069977D01*
X81192015Y-105046178D01*
X81200280Y-105023079D01*
X81210770Y-105000900D01*
X81223382Y-104979857D01*
X81237997Y-104960151D01*
X81254473Y-104941973D01*
X81272651Y-104925497D01*
X81292357Y-104910882D01*
X81313400Y-104898270D01*
X81335579Y-104887780D01*
X81358678Y-104879515D01*
X81382477Y-104873554D01*
X81406745Y-104869954D01*
X81431249Y-104868750D01*
X82081251Y-104868750D01*
X82105755Y-104869954D01*
G37*
G36*
X84155755Y-104869954D02*
G01*
X84180023Y-104873554D01*
X84203822Y-104879515D01*
X84226921Y-104887780D01*
X84249100Y-104898270D01*
X84270143Y-104910882D01*
X84289849Y-104925497D01*
X84308027Y-104941973D01*
X84324503Y-104960151D01*
X84339118Y-104979857D01*
X84351730Y-105000900D01*
X84362220Y-105023079D01*
X84370485Y-105046178D01*
X84376446Y-105069977D01*
X84380046Y-105094245D01*
X84381250Y-105118749D01*
X84381250Y-106018751D01*
X84380046Y-106043255D01*
X84376446Y-106067523D01*
X84370485Y-106091322D01*
X84362220Y-106114421D01*
X84351730Y-106136600D01*
X84339118Y-106157643D01*
X84324503Y-106177349D01*
X84308027Y-106195527D01*
X84289849Y-106212003D01*
X84270143Y-106226618D01*
X84249100Y-106239230D01*
X84226921Y-106249720D01*
X84203822Y-106257985D01*
X84180023Y-106263946D01*
X84155755Y-106267546D01*
X84131251Y-106268750D01*
X83481249Y-106268750D01*
X83456745Y-106267546D01*
X83432477Y-106263946D01*
X83408678Y-106257985D01*
X83385579Y-106249720D01*
X83363400Y-106239230D01*
X83342357Y-106226618D01*
X83322651Y-106212003D01*
X83304473Y-106195527D01*
X83287997Y-106177349D01*
X83273382Y-106157643D01*
X83260770Y-106136600D01*
X83250280Y-106114421D01*
X83242015Y-106091322D01*
X83236054Y-106067523D01*
X83232454Y-106043255D01*
X83231250Y-106018751D01*
X83231250Y-105118749D01*
X83232454Y-105094245D01*
X83236054Y-105069977D01*
X83242015Y-105046178D01*
X83250280Y-105023079D01*
X83260770Y-105000900D01*
X83273382Y-104979857D01*
X83287997Y-104960151D01*
X83304473Y-104941973D01*
X83322651Y-104925497D01*
X83342357Y-104910882D01*
X83363400Y-104898270D01*
X83385579Y-104887780D01*
X83408678Y-104879515D01*
X83432477Y-104873554D01*
X83456745Y-104869954D01*
X83481249Y-104868750D01*
X84131251Y-104868750D01*
X84155755Y-104869954D01*
G37*
G36*
X99462005Y-94113704D02*
G01*
X99486273Y-94117304D01*
X99510072Y-94123265D01*
X99533171Y-94131530D01*
X99555350Y-94142020D01*
X99576393Y-94154632D01*
X99596099Y-94169247D01*
X99614277Y-94185723D01*
X99630753Y-94203901D01*
X99645368Y-94223607D01*
X99657980Y-94244650D01*
X99668470Y-94266829D01*
X99676735Y-94289928D01*
X99682696Y-94313727D01*
X99686296Y-94337995D01*
X99687500Y-94362499D01*
X99687500Y-95012501D01*
X99686296Y-95037005D01*
X99682696Y-95061273D01*
X99676735Y-95085072D01*
X99668470Y-95108171D01*
X99657980Y-95130350D01*
X99645368Y-95151393D01*
X99630753Y-95171099D01*
X99614277Y-95189277D01*
X99596099Y-95205753D01*
X99576393Y-95220368D01*
X99555350Y-95232980D01*
X99533171Y-95243470D01*
X99510072Y-95251735D01*
X99486273Y-95257696D01*
X99462005Y-95261296D01*
X99437501Y-95262500D01*
X98537499Y-95262500D01*
X98512995Y-95261296D01*
X98488727Y-95257696D01*
X98464928Y-95251735D01*
X98441829Y-95243470D01*
X98419650Y-95232980D01*
X98398607Y-95220368D01*
X98378901Y-95205753D01*
X98360723Y-95189277D01*
X98344247Y-95171099D01*
X98329632Y-95151393D01*
X98317020Y-95130350D01*
X98306530Y-95108171D01*
X98298265Y-95085072D01*
X98292304Y-95061273D01*
X98288704Y-95037005D01*
X98287500Y-95012501D01*
X98287500Y-94362499D01*
X98288704Y-94337995D01*
X98292304Y-94313727D01*
X98298265Y-94289928D01*
X98306530Y-94266829D01*
X98317020Y-94244650D01*
X98329632Y-94223607D01*
X98344247Y-94203901D01*
X98360723Y-94185723D01*
X98378901Y-94169247D01*
X98398607Y-94154632D01*
X98419650Y-94142020D01*
X98441829Y-94131530D01*
X98464928Y-94123265D01*
X98488727Y-94117304D01*
X98512995Y-94113704D01*
X98537499Y-94112500D01*
X99437501Y-94112500D01*
X99462005Y-94113704D01*
G37*
G36*
X99462005Y-92063704D02*
G01*
X99486273Y-92067304D01*
X99510072Y-92073265D01*
X99533171Y-92081530D01*
X99555350Y-92092020D01*
X99576393Y-92104632D01*
X99596099Y-92119247D01*
X99614277Y-92135723D01*
X99630753Y-92153901D01*
X99645368Y-92173607D01*
X99657980Y-92194650D01*
X99668470Y-92216829D01*
X99676735Y-92239928D01*
X99682696Y-92263727D01*
X99686296Y-92287995D01*
X99687500Y-92312499D01*
X99687500Y-92962501D01*
X99686296Y-92987005D01*
X99682696Y-93011273D01*
X99676735Y-93035072D01*
X99668470Y-93058171D01*
X99657980Y-93080350D01*
X99645368Y-93101393D01*
X99630753Y-93121099D01*
X99614277Y-93139277D01*
X99596099Y-93155753D01*
X99576393Y-93170368D01*
X99555350Y-93182980D01*
X99533171Y-93193470D01*
X99510072Y-93201735D01*
X99486273Y-93207696D01*
X99462005Y-93211296D01*
X99437501Y-93212500D01*
X98537499Y-93212500D01*
X98512995Y-93211296D01*
X98488727Y-93207696D01*
X98464928Y-93201735D01*
X98441829Y-93193470D01*
X98419650Y-93182980D01*
X98398607Y-93170368D01*
X98378901Y-93155753D01*
X98360723Y-93139277D01*
X98344247Y-93121099D01*
X98329632Y-93101393D01*
X98317020Y-93080350D01*
X98306530Y-93058171D01*
X98298265Y-93035072D01*
X98292304Y-93011273D01*
X98288704Y-92987005D01*
X98287500Y-92962501D01*
X98287500Y-92312499D01*
X98288704Y-92287995D01*
X98292304Y-92263727D01*
X98298265Y-92239928D01*
X98306530Y-92216829D01*
X98317020Y-92194650D01*
X98329632Y-92173607D01*
X98344247Y-92153901D01*
X98360723Y-92135723D01*
X98378901Y-92119247D01*
X98398607Y-92104632D01*
X98419650Y-92092020D01*
X98441829Y-92081530D01*
X98464928Y-92073265D01*
X98488727Y-92067304D01*
X98512995Y-92063704D01*
X98537499Y-92062500D01*
X99437501Y-92062500D01*
X99462005Y-92063704D01*
G37*
G36*
X99280505Y-104319204D02*
G01*
X99304773Y-104322804D01*
X99328572Y-104328765D01*
X99351671Y-104337030D01*
X99373850Y-104347520D01*
X99394893Y-104360132D01*
X99414599Y-104374747D01*
X99432777Y-104391223D01*
X99449253Y-104409401D01*
X99463868Y-104429107D01*
X99476480Y-104450150D01*
X99486970Y-104472329D01*
X99495235Y-104495428D01*
X99501196Y-104519227D01*
X99504796Y-104543495D01*
X99506000Y-104567999D01*
X99506000Y-105218001D01*
X99504796Y-105242505D01*
X99501196Y-105266773D01*
X99495235Y-105290572D01*
X99486970Y-105313671D01*
X99476480Y-105335850D01*
X99463868Y-105356893D01*
X99449253Y-105376599D01*
X99432777Y-105394777D01*
X99414599Y-105411253D01*
X99394893Y-105425868D01*
X99373850Y-105438480D01*
X99351671Y-105448970D01*
X99328572Y-105457235D01*
X99304773Y-105463196D01*
X99280505Y-105466796D01*
X99256001Y-105468000D01*
X98355999Y-105468000D01*
X98331495Y-105466796D01*
X98307227Y-105463196D01*
X98283428Y-105457235D01*
X98260329Y-105448970D01*
X98238150Y-105438480D01*
X98217107Y-105425868D01*
X98197401Y-105411253D01*
X98179223Y-105394777D01*
X98162747Y-105376599D01*
X98148132Y-105356893D01*
X98135520Y-105335850D01*
X98125030Y-105313671D01*
X98116765Y-105290572D01*
X98110804Y-105266773D01*
X98107204Y-105242505D01*
X98106000Y-105218001D01*
X98106000Y-104567999D01*
X98107204Y-104543495D01*
X98110804Y-104519227D01*
X98116765Y-104495428D01*
X98125030Y-104472329D01*
X98135520Y-104450150D01*
X98148132Y-104429107D01*
X98162747Y-104409401D01*
X98179223Y-104391223D01*
X98197401Y-104374747D01*
X98217107Y-104360132D01*
X98238150Y-104347520D01*
X98260329Y-104337030D01*
X98283428Y-104328765D01*
X98307227Y-104322804D01*
X98331495Y-104319204D01*
X98355999Y-104318000D01*
X99256001Y-104318000D01*
X99280505Y-104319204D01*
G37*
G36*
X99280505Y-106369204D02*
G01*
X99304773Y-106372804D01*
X99328572Y-106378765D01*
X99351671Y-106387030D01*
X99373850Y-106397520D01*
X99394893Y-106410132D01*
X99414599Y-106424747D01*
X99432777Y-106441223D01*
X99449253Y-106459401D01*
X99463868Y-106479107D01*
X99476480Y-106500150D01*
X99486970Y-106522329D01*
X99495235Y-106545428D01*
X99501196Y-106569227D01*
X99504796Y-106593495D01*
X99506000Y-106617999D01*
X99506000Y-107268001D01*
X99504796Y-107292505D01*
X99501196Y-107316773D01*
X99495235Y-107340572D01*
X99486970Y-107363671D01*
X99476480Y-107385850D01*
X99463868Y-107406893D01*
X99449253Y-107426599D01*
X99432777Y-107444777D01*
X99414599Y-107461253D01*
X99394893Y-107475868D01*
X99373850Y-107488480D01*
X99351671Y-107498970D01*
X99328572Y-107507235D01*
X99304773Y-107513196D01*
X99280505Y-107516796D01*
X99256001Y-107518000D01*
X98355999Y-107518000D01*
X98331495Y-107516796D01*
X98307227Y-107513196D01*
X98283428Y-107507235D01*
X98260329Y-107498970D01*
X98238150Y-107488480D01*
X98217107Y-107475868D01*
X98197401Y-107461253D01*
X98179223Y-107444777D01*
X98162747Y-107426599D01*
X98148132Y-107406893D01*
X98135520Y-107385850D01*
X98125030Y-107363671D01*
X98116765Y-107340572D01*
X98110804Y-107316773D01*
X98107204Y-107292505D01*
X98106000Y-107268001D01*
X98106000Y-106617999D01*
X98107204Y-106593495D01*
X98110804Y-106569227D01*
X98116765Y-106545428D01*
X98125030Y-106522329D01*
X98135520Y-106500150D01*
X98148132Y-106479107D01*
X98162747Y-106459401D01*
X98179223Y-106441223D01*
X98197401Y-106424747D01*
X98217107Y-106410132D01*
X98238150Y-106397520D01*
X98260329Y-106387030D01*
X98283428Y-106378765D01*
X98307227Y-106372804D01*
X98331495Y-106369204D01*
X98355999Y-106368000D01*
X99256001Y-106368000D01*
X99280505Y-106369204D01*
G37*
G36*
X90644505Y-107140204D02*
G01*
X90668773Y-107143804D01*
X90692572Y-107149765D01*
X90715671Y-107158030D01*
X90737850Y-107168520D01*
X90758893Y-107181132D01*
X90778599Y-107195747D01*
X90796777Y-107212223D01*
X90813253Y-107230401D01*
X90827868Y-107250107D01*
X90840480Y-107271150D01*
X90850970Y-107293329D01*
X90859235Y-107316428D01*
X90865196Y-107340227D01*
X90868796Y-107364495D01*
X90870000Y-107388999D01*
X90870000Y-108039001D01*
X90868796Y-108063505D01*
X90865196Y-108087773D01*
X90859235Y-108111572D01*
X90850970Y-108134671D01*
X90840480Y-108156850D01*
X90827868Y-108177893D01*
X90813253Y-108197599D01*
X90796777Y-108215777D01*
X90778599Y-108232253D01*
X90758893Y-108246868D01*
X90737850Y-108259480D01*
X90715671Y-108269970D01*
X90692572Y-108278235D01*
X90668773Y-108284196D01*
X90644505Y-108287796D01*
X90620001Y-108289000D01*
X89719999Y-108289000D01*
X89695495Y-108287796D01*
X89671227Y-108284196D01*
X89647428Y-108278235D01*
X89624329Y-108269970D01*
X89602150Y-108259480D01*
X89581107Y-108246868D01*
X89561401Y-108232253D01*
X89543223Y-108215777D01*
X89526747Y-108197599D01*
X89512132Y-108177893D01*
X89499520Y-108156850D01*
X89489030Y-108134671D01*
X89480765Y-108111572D01*
X89474804Y-108087773D01*
X89471204Y-108063505D01*
X89470000Y-108039001D01*
X89470000Y-107388999D01*
X89471204Y-107364495D01*
X89474804Y-107340227D01*
X89480765Y-107316428D01*
X89489030Y-107293329D01*
X89499520Y-107271150D01*
X89512132Y-107250107D01*
X89526747Y-107230401D01*
X89543223Y-107212223D01*
X89561401Y-107195747D01*
X89581107Y-107181132D01*
X89602150Y-107168520D01*
X89624329Y-107158030D01*
X89647428Y-107149765D01*
X89671227Y-107143804D01*
X89695495Y-107140204D01*
X89719999Y-107139000D01*
X90620001Y-107139000D01*
X90644505Y-107140204D01*
G37*
G36*
X90644505Y-105090204D02*
G01*
X90668773Y-105093804D01*
X90692572Y-105099765D01*
X90715671Y-105108030D01*
X90737850Y-105118520D01*
X90758893Y-105131132D01*
X90778599Y-105145747D01*
X90796777Y-105162223D01*
X90813253Y-105180401D01*
X90827868Y-105200107D01*
X90840480Y-105221150D01*
X90850970Y-105243329D01*
X90859235Y-105266428D01*
X90865196Y-105290227D01*
X90868796Y-105314495D01*
X90870000Y-105338999D01*
X90870000Y-105989001D01*
X90868796Y-106013505D01*
X90865196Y-106037773D01*
X90859235Y-106061572D01*
X90850970Y-106084671D01*
X90840480Y-106106850D01*
X90827868Y-106127893D01*
X90813253Y-106147599D01*
X90796777Y-106165777D01*
X90778599Y-106182253D01*
X90758893Y-106196868D01*
X90737850Y-106209480D01*
X90715671Y-106219970D01*
X90692572Y-106228235D01*
X90668773Y-106234196D01*
X90644505Y-106237796D01*
X90620001Y-106239000D01*
X89719999Y-106239000D01*
X89695495Y-106237796D01*
X89671227Y-106234196D01*
X89647428Y-106228235D01*
X89624329Y-106219970D01*
X89602150Y-106209480D01*
X89581107Y-106196868D01*
X89561401Y-106182253D01*
X89543223Y-106165777D01*
X89526747Y-106147599D01*
X89512132Y-106127893D01*
X89499520Y-106106850D01*
X89489030Y-106084671D01*
X89480765Y-106061572D01*
X89474804Y-106037773D01*
X89471204Y-106013505D01*
X89470000Y-105989001D01*
X89470000Y-105338999D01*
X89471204Y-105314495D01*
X89474804Y-105290227D01*
X89480765Y-105266428D01*
X89489030Y-105243329D01*
X89499520Y-105221150D01*
X89512132Y-105200107D01*
X89526747Y-105180401D01*
X89543223Y-105162223D01*
X89561401Y-105145747D01*
X89581107Y-105131132D01*
X89602150Y-105118520D01*
X89624329Y-105108030D01*
X89647428Y-105099765D01*
X89671227Y-105093804D01*
X89695495Y-105090204D01*
X89719999Y-105089000D01*
X90620001Y-105089000D01*
X90644505Y-105090204D01*
G37*
G36*
X79724505Y-102488704D02*
G01*
X79748773Y-102492304D01*
X79772572Y-102498265D01*
X79795671Y-102506530D01*
X79817850Y-102517020D01*
X79838893Y-102529632D01*
X79858599Y-102544247D01*
X79876777Y-102560723D01*
X79893253Y-102578901D01*
X79907868Y-102598607D01*
X79920480Y-102619650D01*
X79930970Y-102641829D01*
X79939235Y-102664928D01*
X79945196Y-102688727D01*
X79948796Y-102712995D01*
X79950000Y-102737499D01*
X79950000Y-103637501D01*
X79948796Y-103662005D01*
X79945196Y-103686273D01*
X79939235Y-103710072D01*
X79930970Y-103733171D01*
X79920480Y-103755350D01*
X79907868Y-103776393D01*
X79893253Y-103796099D01*
X79876777Y-103814277D01*
X79858599Y-103830753D01*
X79838893Y-103845368D01*
X79817850Y-103857980D01*
X79795671Y-103868470D01*
X79772572Y-103876735D01*
X79748773Y-103882696D01*
X79724505Y-103886296D01*
X79700001Y-103887500D01*
X79049999Y-103887500D01*
X79025495Y-103886296D01*
X79001227Y-103882696D01*
X78977428Y-103876735D01*
X78954329Y-103868470D01*
X78932150Y-103857980D01*
X78911107Y-103845368D01*
X78891401Y-103830753D01*
X78873223Y-103814277D01*
X78856747Y-103796099D01*
X78842132Y-103776393D01*
X78829520Y-103755350D01*
X78819030Y-103733171D01*
X78810765Y-103710072D01*
X78804804Y-103686273D01*
X78801204Y-103662005D01*
X78800000Y-103637501D01*
X78800000Y-102737499D01*
X78801204Y-102712995D01*
X78804804Y-102688727D01*
X78810765Y-102664928D01*
X78819030Y-102641829D01*
X78829520Y-102619650D01*
X78842132Y-102598607D01*
X78856747Y-102578901D01*
X78873223Y-102560723D01*
X78891401Y-102544247D01*
X78911107Y-102529632D01*
X78932150Y-102517020D01*
X78954329Y-102506530D01*
X78977428Y-102498265D01*
X79001227Y-102492304D01*
X79025495Y-102488704D01*
X79049999Y-102487500D01*
X79700001Y-102487500D01*
X79724505Y-102488704D01*
G37*
G36*
X77674505Y-102488704D02*
G01*
X77698773Y-102492304D01*
X77722572Y-102498265D01*
X77745671Y-102506530D01*
X77767850Y-102517020D01*
X77788893Y-102529632D01*
X77808599Y-102544247D01*
X77826777Y-102560723D01*
X77843253Y-102578901D01*
X77857868Y-102598607D01*
X77870480Y-102619650D01*
X77880970Y-102641829D01*
X77889235Y-102664928D01*
X77895196Y-102688727D01*
X77898796Y-102712995D01*
X77900000Y-102737499D01*
X77900000Y-103637501D01*
X77898796Y-103662005D01*
X77895196Y-103686273D01*
X77889235Y-103710072D01*
X77880970Y-103733171D01*
X77870480Y-103755350D01*
X77857868Y-103776393D01*
X77843253Y-103796099D01*
X77826777Y-103814277D01*
X77808599Y-103830753D01*
X77788893Y-103845368D01*
X77767850Y-103857980D01*
X77745671Y-103868470D01*
X77722572Y-103876735D01*
X77698773Y-103882696D01*
X77674505Y-103886296D01*
X77650001Y-103887500D01*
X76999999Y-103887500D01*
X76975495Y-103886296D01*
X76951227Y-103882696D01*
X76927428Y-103876735D01*
X76904329Y-103868470D01*
X76882150Y-103857980D01*
X76861107Y-103845368D01*
X76841401Y-103830753D01*
X76823223Y-103814277D01*
X76806747Y-103796099D01*
X76792132Y-103776393D01*
X76779520Y-103755350D01*
X76769030Y-103733171D01*
X76760765Y-103710072D01*
X76754804Y-103686273D01*
X76751204Y-103662005D01*
X76750000Y-103637501D01*
X76750000Y-102737499D01*
X76751204Y-102712995D01*
X76754804Y-102688727D01*
X76760765Y-102664928D01*
X76769030Y-102641829D01*
X76779520Y-102619650D01*
X76792132Y-102598607D01*
X76806747Y-102578901D01*
X76823223Y-102560723D01*
X76841401Y-102544247D01*
X76861107Y-102529632D01*
X76882150Y-102517020D01*
X76904329Y-102506530D01*
X76927428Y-102498265D01*
X76951227Y-102492304D01*
X76975495Y-102488704D01*
X76999999Y-102487500D01*
X77650001Y-102487500D01*
X77674505Y-102488704D01*
G37*
G36*
X77343255Y-92963704D02*
G01*
X77367523Y-92967304D01*
X77391322Y-92973265D01*
X77414421Y-92981530D01*
X77436600Y-92992020D01*
X77457643Y-93004632D01*
X77477349Y-93019247D01*
X77495527Y-93035723D01*
X77512003Y-93053901D01*
X77526618Y-93073607D01*
X77539230Y-93094650D01*
X77549720Y-93116829D01*
X77557985Y-93139928D01*
X77563946Y-93163727D01*
X77567546Y-93187995D01*
X77568750Y-93212499D01*
X77568750Y-94112501D01*
X77567546Y-94137005D01*
X77563946Y-94161273D01*
X77557985Y-94185072D01*
X77549720Y-94208171D01*
X77539230Y-94230350D01*
X77526618Y-94251393D01*
X77512003Y-94271099D01*
X77495527Y-94289277D01*
X77477349Y-94305753D01*
X77457643Y-94320368D01*
X77436600Y-94332980D01*
X77414421Y-94343470D01*
X77391322Y-94351735D01*
X77367523Y-94357696D01*
X77343255Y-94361296D01*
X77318751Y-94362500D01*
X76668749Y-94362500D01*
X76644245Y-94361296D01*
X76619977Y-94357696D01*
X76596178Y-94351735D01*
X76573079Y-94343470D01*
X76550900Y-94332980D01*
X76529857Y-94320368D01*
X76510151Y-94305753D01*
X76491973Y-94289277D01*
X76475497Y-94271099D01*
X76460882Y-94251393D01*
X76448270Y-94230350D01*
X76437780Y-94208171D01*
X76429515Y-94185072D01*
X76423554Y-94161273D01*
X76419954Y-94137005D01*
X76418750Y-94112501D01*
X76418750Y-93212499D01*
X76419954Y-93187995D01*
X76423554Y-93163727D01*
X76429515Y-93139928D01*
X76437780Y-93116829D01*
X76448270Y-93094650D01*
X76460882Y-93073607D01*
X76475497Y-93053901D01*
X76491973Y-93035723D01*
X76510151Y-93019247D01*
X76529857Y-93004632D01*
X76550900Y-92992020D01*
X76573079Y-92981530D01*
X76596178Y-92973265D01*
X76619977Y-92967304D01*
X76644245Y-92963704D01*
X76668749Y-92962500D01*
X77318751Y-92962500D01*
X77343255Y-92963704D01*
G37*
G36*
X79393255Y-92963704D02*
G01*
X79417523Y-92967304D01*
X79441322Y-92973265D01*
X79464421Y-92981530D01*
X79486600Y-92992020D01*
X79507643Y-93004632D01*
X79527349Y-93019247D01*
X79545527Y-93035723D01*
X79562003Y-93053901D01*
X79576618Y-93073607D01*
X79589230Y-93094650D01*
X79599720Y-93116829D01*
X79607985Y-93139928D01*
X79613946Y-93163727D01*
X79617546Y-93187995D01*
X79618750Y-93212499D01*
X79618750Y-94112501D01*
X79617546Y-94137005D01*
X79613946Y-94161273D01*
X79607985Y-94185072D01*
X79599720Y-94208171D01*
X79589230Y-94230350D01*
X79576618Y-94251393D01*
X79562003Y-94271099D01*
X79545527Y-94289277D01*
X79527349Y-94305753D01*
X79507643Y-94320368D01*
X79486600Y-94332980D01*
X79464421Y-94343470D01*
X79441322Y-94351735D01*
X79417523Y-94357696D01*
X79393255Y-94361296D01*
X79368751Y-94362500D01*
X78718749Y-94362500D01*
X78694245Y-94361296D01*
X78669977Y-94357696D01*
X78646178Y-94351735D01*
X78623079Y-94343470D01*
X78600900Y-94332980D01*
X78579857Y-94320368D01*
X78560151Y-94305753D01*
X78541973Y-94289277D01*
X78525497Y-94271099D01*
X78510882Y-94251393D01*
X78498270Y-94230350D01*
X78487780Y-94208171D01*
X78479515Y-94185072D01*
X78473554Y-94161273D01*
X78469954Y-94137005D01*
X78468750Y-94112501D01*
X78468750Y-93212499D01*
X78469954Y-93187995D01*
X78473554Y-93163727D01*
X78479515Y-93139928D01*
X78487780Y-93116829D01*
X78498270Y-93094650D01*
X78510882Y-93073607D01*
X78525497Y-93053901D01*
X78541973Y-93035723D01*
X78560151Y-93019247D01*
X78579857Y-93004632D01*
X78600900Y-92992020D01*
X78623079Y-92981530D01*
X78646178Y-92973265D01*
X78669977Y-92967304D01*
X78694245Y-92963704D01*
X78718749Y-92962500D01*
X79368751Y-92962500D01*
X79393255Y-92963704D01*
G37*
M02*
