G04 #@! TF.GenerationSoftware,KiCad,Pcbnew,(5.1.5)-3*
G04 #@! TF.CreationDate,2020-06-06T22:21:35-05:00*
G04 #@! TF.ProjectId,MacroPad,4d616372-6f50-4616-942e-6b696361645f,rev?*
G04 #@! TF.SameCoordinates,Original*
G04 #@! TF.FileFunction,Copper,L1,Top*
G04 #@! TF.FilePolarity,Positive*
%FSLAX46Y46*%
G04 Gerber Fmt 4.6, Leading zero omitted, Abs format (unit mm)*
G04 Created by KiCad (PCBNEW (5.1.5)-3) date 2020-06-06 22:21:35*
%MOMM*%
%LPD*%
G04 APERTURE LIST*
%ADD10R,2.000000X2.000000*%
%ADD11C,2.000000*%
%ADD12R,3.200000X2.000000*%
%ADD13O,2.700000X1.700000*%
%ADD14C,2.250000*%
%ADD15C,2.250000*%
%ADD16C,0.800000*%
%ADD17C,0.381000*%
%ADD18C,0.254000*%
G04 APERTURE END LIST*
D10*
X107950000Y-95250000D03*
D11*
X107950000Y-97750000D03*
X107950000Y-100250000D03*
D12*
X115450000Y-92150000D03*
X115450000Y-103350000D03*
D11*
X122450000Y-95250000D03*
X122450000Y-100250000D03*
D13*
X209550000Y-89218750D03*
X209550000Y-96518750D03*
X205050000Y-96518750D03*
X205050000Y-89218750D03*
D14*
X188793750Y-93631250D03*
D15*
X187483750Y-95091250D02*
X188793752Y-93631250D01*
D14*
X193833750Y-92551250D03*
D15*
X193793750Y-93131250D02*
X193833750Y-92551250D01*
D14*
X169743750Y-93631250D03*
D15*
X168433750Y-95091250D02*
X169743752Y-93631250D01*
D14*
X174783750Y-92551250D03*
D15*
X174743750Y-93131250D02*
X174783750Y-92551250D01*
D14*
X150693750Y-93631250D03*
D15*
X149383750Y-95091250D02*
X150693752Y-93631250D01*
D14*
X155733750Y-92551250D03*
D15*
X155693750Y-93131250D02*
X155733750Y-92551250D01*
D14*
X131643750Y-93631250D03*
D15*
X130333750Y-95091250D02*
X131643752Y-93631250D01*
D14*
X136683750Y-92551250D03*
D15*
X136643750Y-93131250D02*
X136683750Y-92551250D01*
D16*
X207962500Y-94456250D03*
X200818750Y-94456250D03*
X198437500Y-94456250D03*
X109728000Y-97917000D03*
X109347000Y-90170000D03*
X111479058Y-107288058D03*
X111506000Y-98044000D03*
X99949000Y-104013000D03*
X104140000Y-104902000D03*
X88093750Y-105556250D03*
X95758000Y-107153000D03*
X100806250Y-102393750D03*
X96837500Y-102393750D03*
X96837500Y-86518750D03*
X100806250Y-84137500D03*
X199231250Y-86518750D03*
X201612500Y-105568750D03*
X96837500Y-92075000D03*
X91165260Y-106659260D03*
X93604189Y-105612213D03*
X87312500Y-104775000D03*
X100330000Y-106807000D03*
X101727000Y-97224760D03*
X101727000Y-92964000D03*
X102870000Y-97224760D03*
X102870000Y-92237000D03*
X103886000Y-97282000D03*
X103886000Y-91440000D03*
X104775000Y-97790000D03*
X104902000Y-90713000D03*
X184202969Y-89460969D03*
X85725000Y-105568750D03*
X85725000Y-108743750D03*
X110331250Y-95250000D03*
X110328000Y-103124000D03*
X106426000Y-88519000D03*
X109347000Y-107315000D03*
X109601000Y-100330000D03*
X105699000Y-89535000D03*
X108331000Y-89408000D03*
X112141000Y-89281000D03*
X105591749Y-101577001D03*
X105568750Y-96043750D03*
D17*
X207962500Y-94456250D02*
X200818750Y-94456250D01*
X109728000Y-95816692D02*
X109347000Y-95435692D01*
X109728000Y-97917000D02*
X109728000Y-95816692D01*
X109347000Y-95435692D02*
X109347000Y-90170000D01*
X111479058Y-107288058D02*
X111479058Y-98070942D01*
X111479058Y-98070942D02*
X111506000Y-98044000D01*
X100348999Y-104412999D02*
X103650999Y-104412999D01*
X99949000Y-104013000D02*
X100348999Y-104412999D01*
X103650999Y-104412999D02*
X104140000Y-104902000D01*
D18*
X88093750Y-105556250D02*
X88093750Y-107143750D01*
X88093750Y-107143750D02*
X88093750Y-107365122D01*
X88114889Y-107386261D02*
X95067261Y-107386261D01*
X88093750Y-107365122D02*
X88114889Y-107386261D01*
X95067261Y-107386261D02*
X95524739Y-107386261D01*
X95524739Y-107386261D02*
X95758000Y-107153000D01*
D17*
X100806250Y-88900000D02*
X100806250Y-102393750D01*
X100806250Y-88900000D02*
X100806250Y-84137500D01*
X199231250Y-86518750D02*
X199231250Y-100012500D01*
X199231250Y-100012500D02*
X201612500Y-102393750D01*
X201612500Y-102393750D02*
X201612500Y-105568750D01*
X96837500Y-92075000D02*
X96837500Y-86518750D01*
X96837500Y-102393750D02*
X96837500Y-92075000D01*
X94953240Y-106659260D02*
X94340260Y-106659260D01*
X95250000Y-106362500D02*
X94953240Y-106659260D01*
X96837500Y-102393750D02*
X96837500Y-106362500D01*
X96837500Y-106362500D02*
X95250000Y-106362500D01*
X93604189Y-106674811D02*
X93599000Y-106680000D01*
X93604189Y-105612213D02*
X93604189Y-106674811D01*
X94340260Y-106659260D02*
X93599000Y-106680000D01*
X93599000Y-106680000D02*
X91165260Y-106659260D01*
D18*
X100330000Y-107569000D02*
X100330000Y-106807000D01*
X100018999Y-107880001D02*
X100330000Y-107569000D01*
X95409039Y-107880001D02*
X100018999Y-107880001D01*
X87312500Y-107950000D02*
X93345000Y-107950000D01*
X93345000Y-107950000D02*
X93454729Y-107840271D01*
X95369309Y-107840271D02*
X95409039Y-107880001D01*
X87312500Y-104775000D02*
X87312500Y-107950000D01*
X93454729Y-107840271D02*
X95369309Y-107840271D01*
X101727000Y-97224760D02*
X101727000Y-96659075D01*
X101727000Y-96659075D02*
X101727000Y-92964000D01*
X102870000Y-97224760D02*
X102870000Y-96659075D01*
X102870000Y-96659075D02*
X102870000Y-92237000D01*
X103886000Y-97282000D02*
X103886000Y-91440000D01*
X104775000Y-97790000D02*
X104775000Y-90840000D01*
X104775000Y-90840000D02*
X104902000Y-90713000D01*
X188373250Y-93631250D02*
X188793750Y-93631250D01*
X184202969Y-89460969D02*
X188373250Y-93631250D01*
X85725000Y-105568750D02*
X85725000Y-108743750D01*
X110731249Y-95649999D02*
X110331250Y-95250000D01*
X110731249Y-102720751D02*
X110731249Y-95649999D01*
X110328000Y-103124000D02*
X110731249Y-102720751D01*
X107950000Y-93996000D02*
X106426000Y-92472000D01*
X107950000Y-95250000D02*
X107950000Y-93996000D01*
X106426000Y-92472000D02*
X106426000Y-88519000D01*
X109601000Y-107061000D02*
X109347000Y-107315000D01*
X109601000Y-100330000D02*
X109601000Y-107061000D01*
X106295751Y-92983817D02*
X105791000Y-92479066D01*
X107950000Y-100250000D02*
X106295751Y-98595751D01*
X106295751Y-98595751D02*
X106295751Y-92983817D01*
X105791000Y-92479066D02*
X105791000Y-89535000D01*
X105791000Y-89535000D02*
X105699000Y-89535000D01*
X108896685Y-89408000D02*
X109023685Y-89281000D01*
X108331000Y-89408000D02*
X108896685Y-89408000D01*
X109023685Y-89281000D02*
X112141000Y-89281000D01*
X105591749Y-101577001D02*
X105591749Y-96066749D01*
X105591749Y-96066749D02*
X105568750Y-96043750D01*
M02*
