G04 #@! TF.GenerationSoftware,KiCad,Pcbnew,(5.1.5)-3*
G04 #@! TF.CreationDate,2020-06-06T22:21:36-05:00*
G04 #@! TF.ProjectId,MacroPad,4d616372-6f50-4616-942e-6b696361645f,rev?*
G04 #@! TF.SameCoordinates,Original*
G04 #@! TF.FileFunction,Legend,Top*
G04 #@! TF.FilePolarity,Positive*
%FSLAX46Y46*%
G04 Gerber Fmt 4.6, Leading zero omitted, Abs format (unit mm)*
G04 Created by KiCad (PCBNEW (5.1.5)-3) date 2020-06-06 22:21:36*
%MOMM*%
%LPD*%
G04 APERTURE LIST*
%ADD10C,0.120000*%
%ADD11C,0.150000*%
%ADD12R,2.102000X2.102000*%
%ADD13C,2.102000*%
%ADD14R,3.302000X2.102000*%
%ADD15O,2.802000X1.802000*%
%ADD16C,1.852000*%
%ADD17C,4.089800*%
G04 APERTURE END LIST*
D10*
X118450000Y-97750000D02*
G75*
G03X118450000Y-97750000I-3000000J0D01*
G01*
X117450000Y-91850000D02*
X121550000Y-91850000D01*
X121550000Y-103650000D02*
X117450000Y-103650000D01*
X113450000Y-103650000D02*
X109350000Y-103650000D01*
X113450000Y-91850000D02*
X109350000Y-91850000D01*
X109350000Y-91850000D02*
X109350000Y-103650000D01*
X107950000Y-93950000D02*
X107650000Y-93650000D01*
X107650000Y-93650000D02*
X108250000Y-93650000D01*
X108250000Y-93650000D02*
X107950000Y-93950000D01*
X121550000Y-91850000D02*
X121550000Y-94250000D01*
X121550000Y-96450000D02*
X121550000Y-99050000D01*
X121550000Y-101250000D02*
X121550000Y-103650000D01*
X115450000Y-97250000D02*
X115450000Y-98250000D01*
X114950000Y-97750000D02*
X115950000Y-97750000D01*
D11*
X109416666Y-90954761D02*
X109559523Y-91002380D01*
X109797619Y-91002380D01*
X109892857Y-90954761D01*
X109940476Y-90907142D01*
X109988095Y-90811904D01*
X109988095Y-90716666D01*
X109940476Y-90621428D01*
X109892857Y-90573809D01*
X109797619Y-90526190D01*
X109607142Y-90478571D01*
X109511904Y-90430952D01*
X109464285Y-90383333D01*
X109416666Y-90288095D01*
X109416666Y-90192857D01*
X109464285Y-90097619D01*
X109511904Y-90050000D01*
X109607142Y-90002380D01*
X109845238Y-90002380D01*
X109988095Y-90050000D01*
X110321428Y-90002380D02*
X110559523Y-91002380D01*
X110750000Y-90288095D01*
X110940476Y-91002380D01*
X111178571Y-90002380D01*
X111511904Y-90097619D02*
X111559523Y-90050000D01*
X111654761Y-90002380D01*
X111892857Y-90002380D01*
X111988095Y-90050000D01*
X112035714Y-90097619D01*
X112083333Y-90192857D01*
X112083333Y-90288095D01*
X112035714Y-90430952D01*
X111464285Y-91002380D01*
X112083333Y-91002380D01*
%LPC*%
D12*
X107950000Y-95250000D03*
D13*
X107950000Y-97750000D03*
X107950000Y-100250000D03*
D14*
X115450000Y-92150000D03*
X115450000Y-103350000D03*
D13*
X122450000Y-95250000D03*
X122450000Y-100250000D03*
D15*
X209550000Y-89218750D03*
X209550000Y-96518750D03*
X205050000Y-96518750D03*
X205050000Y-89218750D03*
D16*
X196373750Y-97631250D03*
X186213750Y-97631250D03*
D17*
X191293750Y-97631250D03*
D16*
X177323750Y-97631250D03*
X167163750Y-97631250D03*
D17*
X172243750Y-97631250D03*
D16*
X158273750Y-97631250D03*
X148113750Y-97631250D03*
D17*
X153193750Y-97631250D03*
D16*
X139223750Y-97631250D03*
X129063750Y-97631250D03*
D17*
X134143750Y-97631250D03*
M02*
