G04 #@! TF.GenerationSoftware,KiCad,Pcbnew,(5.1.5)-3*
G04 #@! TF.CreationDate,2020-06-06T22:21:36-05:00*
G04 #@! TF.ProjectId,MacroPad,4d616372-6f50-4616-942e-6b696361645f,rev?*
G04 #@! TF.SameCoordinates,Original*
G04 #@! TF.FileFunction,Legend,Bot*
G04 #@! TF.FilePolarity,Positive*
%FSLAX46Y46*%
G04 Gerber Fmt 4.6, Leading zero omitted, Abs format (unit mm)*
G04 Created by KiCad (PCBNEW (5.1.5)-3) date 2020-06-06 22:21:36*
%MOMM*%
%LPD*%
G04 APERTURE LIST*
%ADD10C,0.120000*%
%ADD11C,0.150000*%
%ADD12R,2.102000X2.102000*%
%ADD13C,2.102000*%
%ADD14R,3.302000X2.102000*%
%ADD15C,0.100000*%
%ADD16R,1.602000X0.652000*%
%ADD17R,0.652000X1.602000*%
%ADD18R,1.902000X2.202000*%
%ADD19O,2.802000X1.802000*%
%ADD20R,2.352000X0.602000*%
%ADD21R,1.902000X1.202000*%
%ADD22C,1.852000*%
%ADD23C,2.352000*%
%ADD24C,4.089800*%
%ADD25C,2.352000*%
%ADD26R,1.002000X1.302000*%
%ADD27R,1.302000X1.002000*%
G04 APERTURE END LIST*
D10*
X190501748Y-109041000D02*
X191024252Y-109041000D01*
X190501748Y-107621000D02*
X191024252Y-107621000D01*
D11*
X94293750Y-102806250D02*
X94293750Y-104081250D01*
X94868750Y-92456250D02*
X94868750Y-93131250D01*
X84518750Y-92456250D02*
X84518750Y-93131250D01*
X84518750Y-102806250D02*
X84518750Y-102131250D01*
X94868750Y-102806250D02*
X94868750Y-102131250D01*
X84518750Y-102806250D02*
X85193750Y-102806250D01*
X84518750Y-92456250D02*
X85193750Y-92456250D01*
X94868750Y-92456250D02*
X94193750Y-92456250D01*
X94868750Y-102806250D02*
X94293750Y-102806250D01*
D10*
X80393750Y-95587500D02*
X80393750Y-100987500D01*
X75893750Y-95587500D02*
X80393750Y-95587500D01*
D11*
X209550000Y-89018750D02*
X204100000Y-89018750D01*
X209550000Y-96718750D02*
X204100000Y-96718750D01*
X204100000Y-89018750D02*
X204100000Y-96718750D01*
X203850000Y-107375000D02*
X209050000Y-107375000D01*
X209050000Y-107375000D02*
X209050000Y-102175000D01*
X209050000Y-102175000D02*
X203850000Y-102175000D01*
X203850000Y-102175000D02*
X203850000Y-107375000D01*
X207450000Y-104775000D02*
G75*
G03X207450000Y-104775000I-1000000J0D01*
G01*
D10*
X106170252Y-108025000D02*
X105647748Y-108025000D01*
X106170252Y-106605000D02*
X105647748Y-106605000D01*
X103503252Y-103834000D02*
X102980748Y-103834000D01*
X103503252Y-102414000D02*
X102980748Y-102414000D01*
X112860000Y-86819998D02*
X112860000Y-87342502D01*
X111440000Y-86819998D02*
X111440000Y-87342502D01*
X108660000Y-86819998D02*
X108660000Y-87342502D01*
X107240000Y-86819998D02*
X107240000Y-87342502D01*
X94948752Y-90403750D02*
X94426248Y-90403750D01*
X94948752Y-88983750D02*
X94426248Y-88983750D01*
X190501748Y-105589000D02*
X191024252Y-105589000D01*
X190501748Y-107009000D02*
X191024252Y-107009000D01*
X198738748Y-106446250D02*
X199261252Y-106446250D01*
X198738748Y-107866250D02*
X199261252Y-107866250D01*
X190750436Y-83291000D02*
X191954564Y-83291000D01*
X190750436Y-85111000D02*
X191954564Y-85111000D01*
X189775000Y-89900000D02*
X193675000Y-89900000D01*
X189775000Y-87900000D02*
X193675000Y-87900000D01*
X189775000Y-89900000D02*
X189775000Y-87900000D01*
X181975000Y-96768750D02*
X181975000Y-92868750D01*
X179975000Y-96768750D02*
X179975000Y-92868750D01*
X181975000Y-96768750D02*
X179975000Y-96768750D01*
X162131250Y-96768750D02*
X162131250Y-92868750D01*
X160131250Y-96768750D02*
X160131250Y-92868750D01*
X162131250Y-96768750D02*
X160131250Y-96768750D01*
X143875000Y-96768750D02*
X143875000Y-92868750D01*
X141875000Y-96768750D02*
X141875000Y-92868750D01*
X143875000Y-96768750D02*
X141875000Y-96768750D01*
X101271000Y-106696252D02*
X101271000Y-106173748D01*
X102691000Y-106696252D02*
X102691000Y-106173748D01*
X97715000Y-101630002D02*
X97715000Y-101107498D01*
X99135000Y-101630002D02*
X99135000Y-101107498D01*
X86548752Y-90403750D02*
X86026248Y-90403750D01*
X86548752Y-88983750D02*
X86026248Y-88983750D01*
X83042502Y-106278750D02*
X82519998Y-106278750D01*
X83042502Y-104858750D02*
X82519998Y-104858750D01*
X99697500Y-93401248D02*
X99697500Y-93923752D01*
X98277500Y-93401248D02*
X98277500Y-93923752D01*
X98096000Y-105656748D02*
X98096000Y-106179252D01*
X99516000Y-105656748D02*
X99516000Y-106179252D01*
X90880000Y-106427748D02*
X90880000Y-106950252D01*
X89460000Y-106427748D02*
X89460000Y-106950252D01*
X78088748Y-102477500D02*
X78611252Y-102477500D01*
X78088748Y-103897500D02*
X78611252Y-103897500D01*
X78280002Y-94372500D02*
X77757498Y-94372500D01*
X78280002Y-92952500D02*
X77757498Y-92952500D01*
D11*
X185586666Y-106624380D02*
X185920000Y-106148190D01*
X186158095Y-106624380D02*
X186158095Y-105624380D01*
X185777142Y-105624380D01*
X185681904Y-105672000D01*
X185634285Y-105719619D01*
X185586666Y-105814857D01*
X185586666Y-105957714D01*
X185634285Y-106052952D01*
X185681904Y-106100571D01*
X185777142Y-106148190D01*
X186158095Y-106148190D01*
X185205714Y-105719619D02*
X185158095Y-105672000D01*
X185062857Y-105624380D01*
X184824761Y-105624380D01*
X184729523Y-105672000D01*
X184681904Y-105719619D01*
X184634285Y-105814857D01*
X184634285Y-105910095D01*
X184681904Y-106052952D01*
X185253333Y-106624380D01*
X184634285Y-106624380D01*
X96596130Y-96869345D02*
X97405654Y-96869345D01*
X97500892Y-96916964D01*
X97548511Y-96964583D01*
X97596130Y-97059821D01*
X97596130Y-97250297D01*
X97548511Y-97345535D01*
X97500892Y-97393154D01*
X97405654Y-97440773D01*
X96596130Y-97440773D01*
X97596130Y-98440773D02*
X97596130Y-97869345D01*
X97596130Y-98155059D02*
X96596130Y-98155059D01*
X96738988Y-98059821D01*
X96834226Y-97964583D01*
X96881845Y-97869345D01*
X75069940Y-97811309D02*
X75546130Y-97811309D01*
X74546130Y-97477976D02*
X75069940Y-97811309D01*
X74546130Y-98144642D01*
X75546130Y-99001785D02*
X75546130Y-98430357D01*
X75546130Y-98716071D02*
X74546130Y-98716071D01*
X74688988Y-98620833D01*
X74784226Y-98525595D01*
X74831845Y-98430357D01*
X206970380Y-91130654D02*
X207779904Y-91130654D01*
X207875142Y-91178273D01*
X207922761Y-91225892D01*
X207970380Y-91321130D01*
X207970380Y-91511607D01*
X207922761Y-91606845D01*
X207875142Y-91654464D01*
X207779904Y-91702083D01*
X206970380Y-91702083D01*
X207922761Y-92130654D02*
X207970380Y-92273511D01*
X207970380Y-92511607D01*
X207922761Y-92606845D01*
X207875142Y-92654464D01*
X207779904Y-92702083D01*
X207684666Y-92702083D01*
X207589428Y-92654464D01*
X207541809Y-92606845D01*
X207494190Y-92511607D01*
X207446571Y-92321130D01*
X207398952Y-92225892D01*
X207351333Y-92178273D01*
X207256095Y-92130654D01*
X207160857Y-92130654D01*
X207065619Y-92178273D01*
X207018000Y-92225892D01*
X206970380Y-92321130D01*
X206970380Y-92559226D01*
X207018000Y-92702083D01*
X207446571Y-93463988D02*
X207494190Y-93606845D01*
X207541809Y-93654464D01*
X207637047Y-93702083D01*
X207779904Y-93702083D01*
X207875142Y-93654464D01*
X207922761Y-93606845D01*
X207970380Y-93511607D01*
X207970380Y-93130654D01*
X206970380Y-93130654D01*
X206970380Y-93463988D01*
X207018000Y-93559226D01*
X207065619Y-93606845D01*
X207160857Y-93654464D01*
X207256095Y-93654464D01*
X207351333Y-93606845D01*
X207398952Y-93559226D01*
X207446571Y-93463988D01*
X207446571Y-93130654D01*
X207970380Y-94654464D02*
X207970380Y-94083035D01*
X207970380Y-94368750D02*
X206970380Y-94368750D01*
X207113238Y-94273511D01*
X207208476Y-94178273D01*
X207256095Y-94083035D01*
X207783333Y-101115761D02*
X207640476Y-101163380D01*
X207402380Y-101163380D01*
X207307142Y-101115761D01*
X207259523Y-101068142D01*
X207211904Y-100972904D01*
X207211904Y-100877666D01*
X207259523Y-100782428D01*
X207307142Y-100734809D01*
X207402380Y-100687190D01*
X207592857Y-100639571D01*
X207688095Y-100591952D01*
X207735714Y-100544333D01*
X207783333Y-100449095D01*
X207783333Y-100353857D01*
X207735714Y-100258619D01*
X207688095Y-100211000D01*
X207592857Y-100163380D01*
X207354761Y-100163380D01*
X207211904Y-100211000D01*
X206878571Y-100163380D02*
X206640476Y-101163380D01*
X206450000Y-100449095D01*
X206259523Y-101163380D01*
X206021428Y-100163380D01*
X205116666Y-101163380D02*
X205688095Y-101163380D01*
X205402380Y-101163380D02*
X205402380Y-100163380D01*
X205497619Y-100306238D01*
X205592857Y-100401476D01*
X205688095Y-100449095D01*
X106075666Y-106117380D02*
X106409000Y-105641190D01*
X106647095Y-106117380D02*
X106647095Y-105117380D01*
X106266142Y-105117380D01*
X106170904Y-105165000D01*
X106123285Y-105212619D01*
X106075666Y-105307857D01*
X106075666Y-105450714D01*
X106123285Y-105545952D01*
X106170904Y-105593571D01*
X106266142Y-105641190D01*
X106647095Y-105641190D01*
X105504238Y-105545952D02*
X105599476Y-105498333D01*
X105647095Y-105450714D01*
X105694714Y-105355476D01*
X105694714Y-105307857D01*
X105647095Y-105212619D01*
X105599476Y-105165000D01*
X105504238Y-105117380D01*
X105313761Y-105117380D01*
X105218523Y-105165000D01*
X105170904Y-105212619D01*
X105123285Y-105307857D01*
X105123285Y-105355476D01*
X105170904Y-105450714D01*
X105218523Y-105498333D01*
X105313761Y-105545952D01*
X105504238Y-105545952D01*
X105599476Y-105593571D01*
X105647095Y-105641190D01*
X105694714Y-105736428D01*
X105694714Y-105926904D01*
X105647095Y-106022142D01*
X105599476Y-106069761D01*
X105504238Y-106117380D01*
X105313761Y-106117380D01*
X105218523Y-106069761D01*
X105170904Y-106022142D01*
X105123285Y-105926904D01*
X105123285Y-105736428D01*
X105170904Y-105641190D01*
X105218523Y-105593571D01*
X105313761Y-105545952D01*
X106021166Y-105163880D02*
X106354500Y-104687690D01*
X106592595Y-105163880D02*
X106592595Y-104163880D01*
X106211642Y-104163880D01*
X106116404Y-104211500D01*
X106068785Y-104259119D01*
X106021166Y-104354357D01*
X106021166Y-104497214D01*
X106068785Y-104592452D01*
X106116404Y-104640071D01*
X106211642Y-104687690D01*
X106592595Y-104687690D01*
X105687833Y-104163880D02*
X105021166Y-104163880D01*
X105449738Y-105163880D01*
X110952380Y-86914583D02*
X110476190Y-86581250D01*
X110952380Y-86343154D02*
X109952380Y-86343154D01*
X109952380Y-86724107D01*
X110000000Y-86819345D01*
X110047619Y-86866964D01*
X110142857Y-86914583D01*
X110285714Y-86914583D01*
X110380952Y-86866964D01*
X110428571Y-86819345D01*
X110476190Y-86724107D01*
X110476190Y-86343154D01*
X109952380Y-87771726D02*
X109952380Y-87581250D01*
X110000000Y-87486011D01*
X110047619Y-87438392D01*
X110190476Y-87343154D01*
X110380952Y-87295535D01*
X110761904Y-87295535D01*
X110857142Y-87343154D01*
X110904761Y-87390773D01*
X110952380Y-87486011D01*
X110952380Y-87676488D01*
X110904761Y-87771726D01*
X110857142Y-87819345D01*
X110761904Y-87866964D01*
X110523809Y-87866964D01*
X110428571Y-87819345D01*
X110380952Y-87771726D01*
X110333333Y-87676488D01*
X110333333Y-87486011D01*
X110380952Y-87390773D01*
X110428571Y-87343154D01*
X110523809Y-87295535D01*
X106752380Y-86914583D02*
X106276190Y-86581250D01*
X106752380Y-86343154D02*
X105752380Y-86343154D01*
X105752380Y-86724107D01*
X105800000Y-86819345D01*
X105847619Y-86866964D01*
X105942857Y-86914583D01*
X106085714Y-86914583D01*
X106180952Y-86866964D01*
X106228571Y-86819345D01*
X106276190Y-86724107D01*
X106276190Y-86343154D01*
X105752380Y-87819345D02*
X105752380Y-87343154D01*
X106228571Y-87295535D01*
X106180952Y-87343154D01*
X106133333Y-87438392D01*
X106133333Y-87676488D01*
X106180952Y-87771726D01*
X106228571Y-87819345D01*
X106323809Y-87866964D01*
X106561904Y-87866964D01*
X106657142Y-87819345D01*
X106704761Y-87771726D01*
X106752380Y-87676488D01*
X106752380Y-87438392D01*
X106704761Y-87343154D01*
X106657142Y-87295535D01*
X94854166Y-88496130D02*
X95187500Y-88019940D01*
X95425595Y-88496130D02*
X95425595Y-87496130D01*
X95044642Y-87496130D01*
X94949404Y-87543750D01*
X94901785Y-87591369D01*
X94854166Y-87686607D01*
X94854166Y-87829464D01*
X94901785Y-87924702D01*
X94949404Y-87972321D01*
X95044642Y-88019940D01*
X95425595Y-88019940D01*
X93997023Y-87829464D02*
X93997023Y-88496130D01*
X94235119Y-87448511D02*
X94473214Y-88162797D01*
X93854166Y-88162797D01*
X187491666Y-104973380D02*
X187825000Y-104497190D01*
X188063095Y-104973380D02*
X188063095Y-103973380D01*
X187682142Y-103973380D01*
X187586904Y-104021000D01*
X187539285Y-104068619D01*
X187491666Y-104163857D01*
X187491666Y-104306714D01*
X187539285Y-104401952D01*
X187586904Y-104449571D01*
X187682142Y-104497190D01*
X188063095Y-104497190D01*
X187158333Y-103973380D02*
X186539285Y-103973380D01*
X186872619Y-104354333D01*
X186729761Y-104354333D01*
X186634523Y-104401952D01*
X186586904Y-104449571D01*
X186539285Y-104544809D01*
X186539285Y-104782904D01*
X186586904Y-104878142D01*
X186634523Y-104925761D01*
X186729761Y-104973380D01*
X187015476Y-104973380D01*
X187110714Y-104925761D01*
X187158333Y-104878142D01*
X200064666Y-103830380D02*
X200398000Y-103354190D01*
X200636095Y-103830380D02*
X200636095Y-102830380D01*
X200255142Y-102830380D01*
X200159904Y-102878000D01*
X200112285Y-102925619D01*
X200064666Y-103020857D01*
X200064666Y-103163714D01*
X200112285Y-103258952D01*
X200159904Y-103306571D01*
X200255142Y-103354190D01*
X200636095Y-103354190D01*
X199112285Y-103830380D02*
X199683714Y-103830380D01*
X199398000Y-103830380D02*
X199398000Y-102830380D01*
X199493238Y-102973238D01*
X199588476Y-103068476D01*
X199683714Y-103116095D01*
X201882333Y-84764571D02*
X202215666Y-84764571D01*
X202215666Y-85288380D02*
X202215666Y-84288380D01*
X201739476Y-84288380D01*
X200834714Y-85288380D02*
X201406142Y-85288380D01*
X201120428Y-85288380D02*
X201120428Y-84288380D01*
X201215666Y-84431238D01*
X201310904Y-84526476D01*
X201406142Y-84574095D01*
X192763095Y-91352380D02*
X192763095Y-90352380D01*
X192525000Y-90352380D01*
X192382142Y-90400000D01*
X192286904Y-90495238D01*
X192239285Y-90590476D01*
X192191666Y-90780952D01*
X192191666Y-90923809D01*
X192239285Y-91114285D01*
X192286904Y-91209523D01*
X192382142Y-91304761D01*
X192525000Y-91352380D01*
X192763095Y-91352380D01*
X191334523Y-90685714D02*
X191334523Y-91352380D01*
X191572619Y-90304761D02*
X191810714Y-91019047D01*
X191191666Y-91019047D01*
X183427380Y-93780654D02*
X182427380Y-93780654D01*
X182427380Y-94018750D01*
X182475000Y-94161607D01*
X182570238Y-94256845D01*
X182665476Y-94304464D01*
X182855952Y-94352083D01*
X182998809Y-94352083D01*
X183189285Y-94304464D01*
X183284523Y-94256845D01*
X183379761Y-94161607D01*
X183427380Y-94018750D01*
X183427380Y-93780654D01*
X182427380Y-94685416D02*
X182427380Y-95304464D01*
X182808333Y-94971130D01*
X182808333Y-95113988D01*
X182855952Y-95209226D01*
X182903571Y-95256845D01*
X182998809Y-95304464D01*
X183236904Y-95304464D01*
X183332142Y-95256845D01*
X183379761Y-95209226D01*
X183427380Y-95113988D01*
X183427380Y-94828273D01*
X183379761Y-94733035D01*
X183332142Y-94685416D01*
X163583630Y-93780654D02*
X162583630Y-93780654D01*
X162583630Y-94018750D01*
X162631250Y-94161607D01*
X162726488Y-94256845D01*
X162821726Y-94304464D01*
X163012202Y-94352083D01*
X163155059Y-94352083D01*
X163345535Y-94304464D01*
X163440773Y-94256845D01*
X163536011Y-94161607D01*
X163583630Y-94018750D01*
X163583630Y-93780654D01*
X162678869Y-94733035D02*
X162631250Y-94780654D01*
X162583630Y-94875892D01*
X162583630Y-95113988D01*
X162631250Y-95209226D01*
X162678869Y-95256845D01*
X162774107Y-95304464D01*
X162869345Y-95304464D01*
X163012202Y-95256845D01*
X163583630Y-94685416D01*
X163583630Y-95304464D01*
X145327380Y-93780654D02*
X144327380Y-93780654D01*
X144327380Y-94018750D01*
X144375000Y-94161607D01*
X144470238Y-94256845D01*
X144565476Y-94304464D01*
X144755952Y-94352083D01*
X144898809Y-94352083D01*
X145089285Y-94304464D01*
X145184523Y-94256845D01*
X145279761Y-94161607D01*
X145327380Y-94018750D01*
X145327380Y-93780654D01*
X145327380Y-95304464D02*
X145327380Y-94733035D01*
X145327380Y-95018750D02*
X144327380Y-95018750D01*
X144470238Y-94923511D01*
X144565476Y-94828273D01*
X144613095Y-94733035D01*
X103988142Y-106268333D02*
X104035761Y-106220714D01*
X104083380Y-106077857D01*
X104083380Y-105982619D01*
X104035761Y-105839761D01*
X103940523Y-105744523D01*
X103845285Y-105696904D01*
X103654809Y-105649285D01*
X103511952Y-105649285D01*
X103321476Y-105696904D01*
X103226238Y-105744523D01*
X103131000Y-105839761D01*
X103083380Y-105982619D01*
X103083380Y-106077857D01*
X103131000Y-106220714D01*
X103178619Y-106268333D01*
X104083380Y-106744523D02*
X104083380Y-106935000D01*
X104035761Y-107030238D01*
X103988142Y-107077857D01*
X103845285Y-107173095D01*
X103654809Y-107220714D01*
X103273857Y-107220714D01*
X103178619Y-107173095D01*
X103131000Y-107125476D01*
X103083380Y-107030238D01*
X103083380Y-106839761D01*
X103131000Y-106744523D01*
X103178619Y-106696904D01*
X103273857Y-106649285D01*
X103511952Y-106649285D01*
X103607190Y-106696904D01*
X103654809Y-106744523D01*
X103702428Y-106839761D01*
X103702428Y-107030238D01*
X103654809Y-107125476D01*
X103607190Y-107173095D01*
X103511952Y-107220714D01*
X100432142Y-101202083D02*
X100479761Y-101154464D01*
X100527380Y-101011607D01*
X100527380Y-100916369D01*
X100479761Y-100773511D01*
X100384523Y-100678273D01*
X100289285Y-100630654D01*
X100098809Y-100583035D01*
X99955952Y-100583035D01*
X99765476Y-100630654D01*
X99670238Y-100678273D01*
X99575000Y-100773511D01*
X99527380Y-100916369D01*
X99527380Y-101011607D01*
X99575000Y-101154464D01*
X99622619Y-101202083D01*
X99955952Y-101773511D02*
X99908333Y-101678273D01*
X99860714Y-101630654D01*
X99765476Y-101583035D01*
X99717857Y-101583035D01*
X99622619Y-101630654D01*
X99575000Y-101678273D01*
X99527380Y-101773511D01*
X99527380Y-101963988D01*
X99575000Y-102059226D01*
X99622619Y-102106845D01*
X99717857Y-102154464D01*
X99765476Y-102154464D01*
X99860714Y-102106845D01*
X99908333Y-102059226D01*
X99955952Y-101963988D01*
X99955952Y-101773511D01*
X100003571Y-101678273D01*
X100051190Y-101630654D01*
X100146428Y-101583035D01*
X100336904Y-101583035D01*
X100432142Y-101630654D01*
X100479761Y-101678273D01*
X100527380Y-101773511D01*
X100527380Y-101963988D01*
X100479761Y-102059226D01*
X100432142Y-102106845D01*
X100336904Y-102154464D01*
X100146428Y-102154464D01*
X100051190Y-102106845D01*
X100003571Y-102059226D01*
X99955952Y-101963988D01*
X86454166Y-88400892D02*
X86501785Y-88448511D01*
X86644642Y-88496130D01*
X86739880Y-88496130D01*
X86882738Y-88448511D01*
X86977976Y-88353273D01*
X87025595Y-88258035D01*
X87073214Y-88067559D01*
X87073214Y-87924702D01*
X87025595Y-87734226D01*
X86977976Y-87638988D01*
X86882738Y-87543750D01*
X86739880Y-87496130D01*
X86644642Y-87496130D01*
X86501785Y-87543750D01*
X86454166Y-87591369D01*
X86120833Y-87496130D02*
X85454166Y-87496130D01*
X85882738Y-88496130D01*
X82947916Y-104275892D02*
X82995535Y-104323511D01*
X83138392Y-104371130D01*
X83233630Y-104371130D01*
X83376488Y-104323511D01*
X83471726Y-104228273D01*
X83519345Y-104133035D01*
X83566964Y-103942559D01*
X83566964Y-103799702D01*
X83519345Y-103609226D01*
X83471726Y-103513988D01*
X83376488Y-103418750D01*
X83233630Y-103371130D01*
X83138392Y-103371130D01*
X82995535Y-103418750D01*
X82947916Y-103466369D01*
X82090773Y-103371130D02*
X82281250Y-103371130D01*
X82376488Y-103418750D01*
X82424107Y-103466369D01*
X82519345Y-103609226D01*
X82566964Y-103799702D01*
X82566964Y-104180654D01*
X82519345Y-104275892D01*
X82471726Y-104323511D01*
X82376488Y-104371130D01*
X82186011Y-104371130D01*
X82090773Y-104323511D01*
X82043154Y-104275892D01*
X81995535Y-104180654D01*
X81995535Y-103942559D01*
X82043154Y-103847321D01*
X82090773Y-103799702D01*
X82186011Y-103752083D01*
X82376488Y-103752083D01*
X82471726Y-103799702D01*
X82519345Y-103847321D01*
X82566964Y-103942559D01*
X97694642Y-93495833D02*
X97742261Y-93448214D01*
X97789880Y-93305357D01*
X97789880Y-93210119D01*
X97742261Y-93067261D01*
X97647023Y-92972023D01*
X97551785Y-92924404D01*
X97361309Y-92876785D01*
X97218452Y-92876785D01*
X97027976Y-92924404D01*
X96932738Y-92972023D01*
X96837500Y-93067261D01*
X96789880Y-93210119D01*
X96789880Y-93305357D01*
X96837500Y-93448214D01*
X96885119Y-93495833D01*
X96789880Y-94400595D02*
X96789880Y-93924404D01*
X97266071Y-93876785D01*
X97218452Y-93924404D01*
X97170833Y-94019642D01*
X97170833Y-94257738D01*
X97218452Y-94352976D01*
X97266071Y-94400595D01*
X97361309Y-94448214D01*
X97599404Y-94448214D01*
X97694642Y-94400595D01*
X97742261Y-94352976D01*
X97789880Y-94257738D01*
X97789880Y-94019642D01*
X97742261Y-93924404D01*
X97694642Y-93876785D01*
X97513142Y-105751333D02*
X97560761Y-105703714D01*
X97608380Y-105560857D01*
X97608380Y-105465619D01*
X97560761Y-105322761D01*
X97465523Y-105227523D01*
X97370285Y-105179904D01*
X97179809Y-105132285D01*
X97036952Y-105132285D01*
X96846476Y-105179904D01*
X96751238Y-105227523D01*
X96656000Y-105322761D01*
X96608380Y-105465619D01*
X96608380Y-105560857D01*
X96656000Y-105703714D01*
X96703619Y-105751333D01*
X96941714Y-106608476D02*
X97608380Y-106608476D01*
X96560761Y-106370380D02*
X97275047Y-106132285D01*
X97275047Y-106751333D01*
X88877142Y-106522333D02*
X88924761Y-106474714D01*
X88972380Y-106331857D01*
X88972380Y-106236619D01*
X88924761Y-106093761D01*
X88829523Y-105998523D01*
X88734285Y-105950904D01*
X88543809Y-105903285D01*
X88400952Y-105903285D01*
X88210476Y-105950904D01*
X88115238Y-105998523D01*
X88020000Y-106093761D01*
X87972380Y-106236619D01*
X87972380Y-106331857D01*
X88020000Y-106474714D01*
X88067619Y-106522333D01*
X87972380Y-106855666D02*
X87972380Y-107474714D01*
X88353333Y-107141380D01*
X88353333Y-107284238D01*
X88400952Y-107379476D01*
X88448571Y-107427095D01*
X88543809Y-107474714D01*
X88781904Y-107474714D01*
X88877142Y-107427095D01*
X88924761Y-107379476D01*
X88972380Y-107284238D01*
X88972380Y-106998523D01*
X88924761Y-106903285D01*
X88877142Y-106855666D01*
X78516666Y-105194642D02*
X78564285Y-105242261D01*
X78707142Y-105289880D01*
X78802380Y-105289880D01*
X78945238Y-105242261D01*
X79040476Y-105147023D01*
X79088095Y-105051785D01*
X79135714Y-104861309D01*
X79135714Y-104718452D01*
X79088095Y-104527976D01*
X79040476Y-104432738D01*
X78945238Y-104337500D01*
X78802380Y-104289880D01*
X78707142Y-104289880D01*
X78564285Y-104337500D01*
X78516666Y-104385119D01*
X78135714Y-104385119D02*
X78088095Y-104337500D01*
X77992857Y-104289880D01*
X77754761Y-104289880D01*
X77659523Y-104337500D01*
X77611904Y-104385119D01*
X77564285Y-104480357D01*
X77564285Y-104575595D01*
X77611904Y-104718452D01*
X78183333Y-105289880D01*
X77564285Y-105289880D01*
X78185416Y-92369642D02*
X78233035Y-92417261D01*
X78375892Y-92464880D01*
X78471130Y-92464880D01*
X78613988Y-92417261D01*
X78709226Y-92322023D01*
X78756845Y-92226785D01*
X78804464Y-92036309D01*
X78804464Y-91893452D01*
X78756845Y-91702976D01*
X78709226Y-91607738D01*
X78613988Y-91512500D01*
X78471130Y-91464880D01*
X78375892Y-91464880D01*
X78233035Y-91512500D01*
X78185416Y-91560119D01*
X77233035Y-92464880D02*
X77804464Y-92464880D01*
X77518750Y-92464880D02*
X77518750Y-91464880D01*
X77613988Y-91607738D01*
X77709226Y-91702976D01*
X77804464Y-91750595D01*
%LPC*%
D12*
X107950000Y-95250000D03*
D13*
X107950000Y-97750000D03*
X107950000Y-100250000D03*
D14*
X115450000Y-92150000D03*
X115450000Y-103350000D03*
D13*
X122450000Y-95250000D03*
X122450000Y-100250000D03*
D15*
G36*
X190118505Y-107581311D02*
G01*
X190144925Y-107585230D01*
X190170835Y-107591720D01*
X190195983Y-107600718D01*
X190220128Y-107612138D01*
X190243038Y-107625869D01*
X190264492Y-107641780D01*
X190284282Y-107659718D01*
X190302220Y-107679508D01*
X190318131Y-107700962D01*
X190331862Y-107723872D01*
X190343282Y-107748017D01*
X190352280Y-107773165D01*
X190358770Y-107799075D01*
X190362689Y-107825495D01*
X190364000Y-107852173D01*
X190364000Y-108809827D01*
X190362689Y-108836505D01*
X190358770Y-108862925D01*
X190352280Y-108888835D01*
X190343282Y-108913983D01*
X190331862Y-108938128D01*
X190318131Y-108961038D01*
X190302220Y-108982492D01*
X190284282Y-109002282D01*
X190264492Y-109020220D01*
X190243038Y-109036131D01*
X190220128Y-109049862D01*
X190195983Y-109061282D01*
X190170835Y-109070280D01*
X190144925Y-109076770D01*
X190118505Y-109080689D01*
X190091827Y-109082000D01*
X189384173Y-109082000D01*
X189357495Y-109080689D01*
X189331075Y-109076770D01*
X189305165Y-109070280D01*
X189280017Y-109061282D01*
X189255872Y-109049862D01*
X189232962Y-109036131D01*
X189211508Y-109020220D01*
X189191718Y-109002282D01*
X189173780Y-108982492D01*
X189157869Y-108961038D01*
X189144138Y-108938128D01*
X189132718Y-108913983D01*
X189123720Y-108888835D01*
X189117230Y-108862925D01*
X189113311Y-108836505D01*
X189112000Y-108809827D01*
X189112000Y-107852173D01*
X189113311Y-107825495D01*
X189117230Y-107799075D01*
X189123720Y-107773165D01*
X189132718Y-107748017D01*
X189144138Y-107723872D01*
X189157869Y-107700962D01*
X189173780Y-107679508D01*
X189191718Y-107659718D01*
X189211508Y-107641780D01*
X189232962Y-107625869D01*
X189255872Y-107612138D01*
X189280017Y-107600718D01*
X189305165Y-107591720D01*
X189331075Y-107585230D01*
X189357495Y-107581311D01*
X189384173Y-107580000D01*
X190091827Y-107580000D01*
X190118505Y-107581311D01*
G37*
G36*
X192168505Y-107581311D02*
G01*
X192194925Y-107585230D01*
X192220835Y-107591720D01*
X192245983Y-107600718D01*
X192270128Y-107612138D01*
X192293038Y-107625869D01*
X192314492Y-107641780D01*
X192334282Y-107659718D01*
X192352220Y-107679508D01*
X192368131Y-107700962D01*
X192381862Y-107723872D01*
X192393282Y-107748017D01*
X192402280Y-107773165D01*
X192408770Y-107799075D01*
X192412689Y-107825495D01*
X192414000Y-107852173D01*
X192414000Y-108809827D01*
X192412689Y-108836505D01*
X192408770Y-108862925D01*
X192402280Y-108888835D01*
X192393282Y-108913983D01*
X192381862Y-108938128D01*
X192368131Y-108961038D01*
X192352220Y-108982492D01*
X192334282Y-109002282D01*
X192314492Y-109020220D01*
X192293038Y-109036131D01*
X192270128Y-109049862D01*
X192245983Y-109061282D01*
X192220835Y-109070280D01*
X192194925Y-109076770D01*
X192168505Y-109080689D01*
X192141827Y-109082000D01*
X191434173Y-109082000D01*
X191407495Y-109080689D01*
X191381075Y-109076770D01*
X191355165Y-109070280D01*
X191330017Y-109061282D01*
X191305872Y-109049862D01*
X191282962Y-109036131D01*
X191261508Y-109020220D01*
X191241718Y-109002282D01*
X191223780Y-108982492D01*
X191207869Y-108961038D01*
X191194138Y-108938128D01*
X191182718Y-108913983D01*
X191173720Y-108888835D01*
X191167230Y-108862925D01*
X191163311Y-108836505D01*
X191162000Y-108809827D01*
X191162000Y-107852173D01*
X191163311Y-107825495D01*
X191167230Y-107799075D01*
X191173720Y-107773165D01*
X191182718Y-107748017D01*
X191194138Y-107723872D01*
X191207869Y-107700962D01*
X191223780Y-107679508D01*
X191241718Y-107659718D01*
X191261508Y-107641780D01*
X191282962Y-107625869D01*
X191305872Y-107612138D01*
X191330017Y-107600718D01*
X191355165Y-107591720D01*
X191381075Y-107585230D01*
X191407495Y-107581311D01*
X191434173Y-107580000D01*
X192141827Y-107580000D01*
X192168505Y-107581311D01*
G37*
D16*
X95393750Y-101631250D03*
X95393750Y-100831250D03*
X95393750Y-100031250D03*
X95393750Y-99231250D03*
X95393750Y-98431250D03*
X95393750Y-97631250D03*
X95393750Y-96831250D03*
X95393750Y-96031250D03*
X95393750Y-95231250D03*
X95393750Y-94431250D03*
X95393750Y-93631250D03*
D17*
X93693750Y-91931250D03*
X92893750Y-91931250D03*
X92093750Y-91931250D03*
X91293750Y-91931250D03*
X90493750Y-91931250D03*
X89693750Y-91931250D03*
X88893750Y-91931250D03*
X88093750Y-91931250D03*
X87293750Y-91931250D03*
X86493750Y-91931250D03*
X85693750Y-91931250D03*
D16*
X83993750Y-93631250D03*
X83993750Y-94431250D03*
X83993750Y-95231250D03*
X83993750Y-96031250D03*
X83993750Y-96831250D03*
X83993750Y-97631250D03*
X83993750Y-98431250D03*
X83993750Y-99231250D03*
X83993750Y-100031250D03*
X83993750Y-100831250D03*
X83993750Y-101631250D03*
D17*
X85693750Y-103331250D03*
X86493750Y-103331250D03*
X87293750Y-103331250D03*
X88093750Y-103331250D03*
X88893750Y-103331250D03*
X89693750Y-103331250D03*
X90493750Y-103331250D03*
X91293750Y-103331250D03*
X92093750Y-103331250D03*
X92893750Y-103331250D03*
X93693750Y-103331250D03*
D18*
X76993750Y-96837500D03*
X76993750Y-99737500D03*
X79293750Y-99737500D03*
X79293750Y-96837500D03*
D19*
X209550000Y-89218750D03*
X209550000Y-96518750D03*
X205050000Y-96518750D03*
X205050000Y-89218750D03*
D20*
X205050000Y-91268750D03*
X205050000Y-92068750D03*
X205050000Y-92868750D03*
X205050000Y-93668750D03*
X205050000Y-94468750D03*
D21*
X203350000Y-102925000D03*
X209550000Y-106625000D03*
X203350000Y-106625000D03*
X209550000Y-102925000D03*
D15*
G36*
X105264505Y-106565311D02*
G01*
X105290925Y-106569230D01*
X105316835Y-106575720D01*
X105341983Y-106584718D01*
X105366128Y-106596138D01*
X105389038Y-106609869D01*
X105410492Y-106625780D01*
X105430282Y-106643718D01*
X105448220Y-106663508D01*
X105464131Y-106684962D01*
X105477862Y-106707872D01*
X105489282Y-106732017D01*
X105498280Y-106757165D01*
X105504770Y-106783075D01*
X105508689Y-106809495D01*
X105510000Y-106836173D01*
X105510000Y-107793827D01*
X105508689Y-107820505D01*
X105504770Y-107846925D01*
X105498280Y-107872835D01*
X105489282Y-107897983D01*
X105477862Y-107922128D01*
X105464131Y-107945038D01*
X105448220Y-107966492D01*
X105430282Y-107986282D01*
X105410492Y-108004220D01*
X105389038Y-108020131D01*
X105366128Y-108033862D01*
X105341983Y-108045282D01*
X105316835Y-108054280D01*
X105290925Y-108060770D01*
X105264505Y-108064689D01*
X105237827Y-108066000D01*
X104530173Y-108066000D01*
X104503495Y-108064689D01*
X104477075Y-108060770D01*
X104451165Y-108054280D01*
X104426017Y-108045282D01*
X104401872Y-108033862D01*
X104378962Y-108020131D01*
X104357508Y-108004220D01*
X104337718Y-107986282D01*
X104319780Y-107966492D01*
X104303869Y-107945038D01*
X104290138Y-107922128D01*
X104278718Y-107897983D01*
X104269720Y-107872835D01*
X104263230Y-107846925D01*
X104259311Y-107820505D01*
X104258000Y-107793827D01*
X104258000Y-106836173D01*
X104259311Y-106809495D01*
X104263230Y-106783075D01*
X104269720Y-106757165D01*
X104278718Y-106732017D01*
X104290138Y-106707872D01*
X104303869Y-106684962D01*
X104319780Y-106663508D01*
X104337718Y-106643718D01*
X104357508Y-106625780D01*
X104378962Y-106609869D01*
X104401872Y-106596138D01*
X104426017Y-106584718D01*
X104451165Y-106575720D01*
X104477075Y-106569230D01*
X104503495Y-106565311D01*
X104530173Y-106564000D01*
X105237827Y-106564000D01*
X105264505Y-106565311D01*
G37*
G36*
X107314505Y-106565311D02*
G01*
X107340925Y-106569230D01*
X107366835Y-106575720D01*
X107391983Y-106584718D01*
X107416128Y-106596138D01*
X107439038Y-106609869D01*
X107460492Y-106625780D01*
X107480282Y-106643718D01*
X107498220Y-106663508D01*
X107514131Y-106684962D01*
X107527862Y-106707872D01*
X107539282Y-106732017D01*
X107548280Y-106757165D01*
X107554770Y-106783075D01*
X107558689Y-106809495D01*
X107560000Y-106836173D01*
X107560000Y-107793827D01*
X107558689Y-107820505D01*
X107554770Y-107846925D01*
X107548280Y-107872835D01*
X107539282Y-107897983D01*
X107527862Y-107922128D01*
X107514131Y-107945038D01*
X107498220Y-107966492D01*
X107480282Y-107986282D01*
X107460492Y-108004220D01*
X107439038Y-108020131D01*
X107416128Y-108033862D01*
X107391983Y-108045282D01*
X107366835Y-108054280D01*
X107340925Y-108060770D01*
X107314505Y-108064689D01*
X107287827Y-108066000D01*
X106580173Y-108066000D01*
X106553495Y-108064689D01*
X106527075Y-108060770D01*
X106501165Y-108054280D01*
X106476017Y-108045282D01*
X106451872Y-108033862D01*
X106428962Y-108020131D01*
X106407508Y-108004220D01*
X106387718Y-107986282D01*
X106369780Y-107966492D01*
X106353869Y-107945038D01*
X106340138Y-107922128D01*
X106328718Y-107897983D01*
X106319720Y-107872835D01*
X106313230Y-107846925D01*
X106309311Y-107820505D01*
X106308000Y-107793827D01*
X106308000Y-106836173D01*
X106309311Y-106809495D01*
X106313230Y-106783075D01*
X106319720Y-106757165D01*
X106328718Y-106732017D01*
X106340138Y-106707872D01*
X106353869Y-106684962D01*
X106369780Y-106663508D01*
X106387718Y-106643718D01*
X106407508Y-106625780D01*
X106428962Y-106609869D01*
X106451872Y-106596138D01*
X106476017Y-106584718D01*
X106501165Y-106575720D01*
X106527075Y-106569230D01*
X106553495Y-106565311D01*
X106580173Y-106564000D01*
X107287827Y-106564000D01*
X107314505Y-106565311D01*
G37*
G36*
X102597505Y-102374311D02*
G01*
X102623925Y-102378230D01*
X102649835Y-102384720D01*
X102674983Y-102393718D01*
X102699128Y-102405138D01*
X102722038Y-102418869D01*
X102743492Y-102434780D01*
X102763282Y-102452718D01*
X102781220Y-102472508D01*
X102797131Y-102493962D01*
X102810862Y-102516872D01*
X102822282Y-102541017D01*
X102831280Y-102566165D01*
X102837770Y-102592075D01*
X102841689Y-102618495D01*
X102843000Y-102645173D01*
X102843000Y-103602827D01*
X102841689Y-103629505D01*
X102837770Y-103655925D01*
X102831280Y-103681835D01*
X102822282Y-103706983D01*
X102810862Y-103731128D01*
X102797131Y-103754038D01*
X102781220Y-103775492D01*
X102763282Y-103795282D01*
X102743492Y-103813220D01*
X102722038Y-103829131D01*
X102699128Y-103842862D01*
X102674983Y-103854282D01*
X102649835Y-103863280D01*
X102623925Y-103869770D01*
X102597505Y-103873689D01*
X102570827Y-103875000D01*
X101863173Y-103875000D01*
X101836495Y-103873689D01*
X101810075Y-103869770D01*
X101784165Y-103863280D01*
X101759017Y-103854282D01*
X101734872Y-103842862D01*
X101711962Y-103829131D01*
X101690508Y-103813220D01*
X101670718Y-103795282D01*
X101652780Y-103775492D01*
X101636869Y-103754038D01*
X101623138Y-103731128D01*
X101611718Y-103706983D01*
X101602720Y-103681835D01*
X101596230Y-103655925D01*
X101592311Y-103629505D01*
X101591000Y-103602827D01*
X101591000Y-102645173D01*
X101592311Y-102618495D01*
X101596230Y-102592075D01*
X101602720Y-102566165D01*
X101611718Y-102541017D01*
X101623138Y-102516872D01*
X101636869Y-102493962D01*
X101652780Y-102472508D01*
X101670718Y-102452718D01*
X101690508Y-102434780D01*
X101711962Y-102418869D01*
X101734872Y-102405138D01*
X101759017Y-102393718D01*
X101784165Y-102384720D01*
X101810075Y-102378230D01*
X101836495Y-102374311D01*
X101863173Y-102373000D01*
X102570827Y-102373000D01*
X102597505Y-102374311D01*
G37*
G36*
X104647505Y-102374311D02*
G01*
X104673925Y-102378230D01*
X104699835Y-102384720D01*
X104724983Y-102393718D01*
X104749128Y-102405138D01*
X104772038Y-102418869D01*
X104793492Y-102434780D01*
X104813282Y-102452718D01*
X104831220Y-102472508D01*
X104847131Y-102493962D01*
X104860862Y-102516872D01*
X104872282Y-102541017D01*
X104881280Y-102566165D01*
X104887770Y-102592075D01*
X104891689Y-102618495D01*
X104893000Y-102645173D01*
X104893000Y-103602827D01*
X104891689Y-103629505D01*
X104887770Y-103655925D01*
X104881280Y-103681835D01*
X104872282Y-103706983D01*
X104860862Y-103731128D01*
X104847131Y-103754038D01*
X104831220Y-103775492D01*
X104813282Y-103795282D01*
X104793492Y-103813220D01*
X104772038Y-103829131D01*
X104749128Y-103842862D01*
X104724983Y-103854282D01*
X104699835Y-103863280D01*
X104673925Y-103869770D01*
X104647505Y-103873689D01*
X104620827Y-103875000D01*
X103913173Y-103875000D01*
X103886495Y-103873689D01*
X103860075Y-103869770D01*
X103834165Y-103863280D01*
X103809017Y-103854282D01*
X103784872Y-103842862D01*
X103761962Y-103829131D01*
X103740508Y-103813220D01*
X103720718Y-103795282D01*
X103702780Y-103775492D01*
X103686869Y-103754038D01*
X103673138Y-103731128D01*
X103661718Y-103706983D01*
X103652720Y-103681835D01*
X103646230Y-103655925D01*
X103642311Y-103629505D01*
X103641000Y-103602827D01*
X103641000Y-102645173D01*
X103642311Y-102618495D01*
X103646230Y-102592075D01*
X103652720Y-102566165D01*
X103661718Y-102541017D01*
X103673138Y-102516872D01*
X103686869Y-102493962D01*
X103702780Y-102472508D01*
X103720718Y-102452718D01*
X103740508Y-102434780D01*
X103761962Y-102418869D01*
X103784872Y-102405138D01*
X103809017Y-102393718D01*
X103834165Y-102384720D01*
X103860075Y-102378230D01*
X103886495Y-102374311D01*
X103913173Y-102373000D01*
X104620827Y-102373000D01*
X104647505Y-102374311D01*
G37*
G36*
X112655505Y-87481561D02*
G01*
X112681925Y-87485480D01*
X112707835Y-87491970D01*
X112732983Y-87500968D01*
X112757128Y-87512388D01*
X112780038Y-87526119D01*
X112801492Y-87542030D01*
X112821282Y-87559968D01*
X112839220Y-87579758D01*
X112855131Y-87601212D01*
X112868862Y-87624122D01*
X112880282Y-87648267D01*
X112889280Y-87673415D01*
X112895770Y-87699325D01*
X112899689Y-87725745D01*
X112901000Y-87752423D01*
X112901000Y-88460077D01*
X112899689Y-88486755D01*
X112895770Y-88513175D01*
X112889280Y-88539085D01*
X112880282Y-88564233D01*
X112868862Y-88588378D01*
X112855131Y-88611288D01*
X112839220Y-88632742D01*
X112821282Y-88652532D01*
X112801492Y-88670470D01*
X112780038Y-88686381D01*
X112757128Y-88700112D01*
X112732983Y-88711532D01*
X112707835Y-88720530D01*
X112681925Y-88727020D01*
X112655505Y-88730939D01*
X112628827Y-88732250D01*
X111671173Y-88732250D01*
X111644495Y-88730939D01*
X111618075Y-88727020D01*
X111592165Y-88720530D01*
X111567017Y-88711532D01*
X111542872Y-88700112D01*
X111519962Y-88686381D01*
X111498508Y-88670470D01*
X111478718Y-88652532D01*
X111460780Y-88632742D01*
X111444869Y-88611288D01*
X111431138Y-88588378D01*
X111419718Y-88564233D01*
X111410720Y-88539085D01*
X111404230Y-88513175D01*
X111400311Y-88486755D01*
X111399000Y-88460077D01*
X111399000Y-87752423D01*
X111400311Y-87725745D01*
X111404230Y-87699325D01*
X111410720Y-87673415D01*
X111419718Y-87648267D01*
X111431138Y-87624122D01*
X111444869Y-87601212D01*
X111460780Y-87579758D01*
X111478718Y-87559968D01*
X111498508Y-87542030D01*
X111519962Y-87526119D01*
X111542872Y-87512388D01*
X111567017Y-87500968D01*
X111592165Y-87491970D01*
X111618075Y-87485480D01*
X111644495Y-87481561D01*
X111671173Y-87480250D01*
X112628827Y-87480250D01*
X112655505Y-87481561D01*
G37*
G36*
X112655505Y-85431561D02*
G01*
X112681925Y-85435480D01*
X112707835Y-85441970D01*
X112732983Y-85450968D01*
X112757128Y-85462388D01*
X112780038Y-85476119D01*
X112801492Y-85492030D01*
X112821282Y-85509968D01*
X112839220Y-85529758D01*
X112855131Y-85551212D01*
X112868862Y-85574122D01*
X112880282Y-85598267D01*
X112889280Y-85623415D01*
X112895770Y-85649325D01*
X112899689Y-85675745D01*
X112901000Y-85702423D01*
X112901000Y-86410077D01*
X112899689Y-86436755D01*
X112895770Y-86463175D01*
X112889280Y-86489085D01*
X112880282Y-86514233D01*
X112868862Y-86538378D01*
X112855131Y-86561288D01*
X112839220Y-86582742D01*
X112821282Y-86602532D01*
X112801492Y-86620470D01*
X112780038Y-86636381D01*
X112757128Y-86650112D01*
X112732983Y-86661532D01*
X112707835Y-86670530D01*
X112681925Y-86677020D01*
X112655505Y-86680939D01*
X112628827Y-86682250D01*
X111671173Y-86682250D01*
X111644495Y-86680939D01*
X111618075Y-86677020D01*
X111592165Y-86670530D01*
X111567017Y-86661532D01*
X111542872Y-86650112D01*
X111519962Y-86636381D01*
X111498508Y-86620470D01*
X111478718Y-86602532D01*
X111460780Y-86582742D01*
X111444869Y-86561288D01*
X111431138Y-86538378D01*
X111419718Y-86514233D01*
X111410720Y-86489085D01*
X111404230Y-86463175D01*
X111400311Y-86436755D01*
X111399000Y-86410077D01*
X111399000Y-85702423D01*
X111400311Y-85675745D01*
X111404230Y-85649325D01*
X111410720Y-85623415D01*
X111419718Y-85598267D01*
X111431138Y-85574122D01*
X111444869Y-85551212D01*
X111460780Y-85529758D01*
X111478718Y-85509968D01*
X111498508Y-85492030D01*
X111519962Y-85476119D01*
X111542872Y-85462388D01*
X111567017Y-85450968D01*
X111592165Y-85441970D01*
X111618075Y-85435480D01*
X111644495Y-85431561D01*
X111671173Y-85430250D01*
X112628827Y-85430250D01*
X112655505Y-85431561D01*
G37*
G36*
X108455505Y-87481561D02*
G01*
X108481925Y-87485480D01*
X108507835Y-87491970D01*
X108532983Y-87500968D01*
X108557128Y-87512388D01*
X108580038Y-87526119D01*
X108601492Y-87542030D01*
X108621282Y-87559968D01*
X108639220Y-87579758D01*
X108655131Y-87601212D01*
X108668862Y-87624122D01*
X108680282Y-87648267D01*
X108689280Y-87673415D01*
X108695770Y-87699325D01*
X108699689Y-87725745D01*
X108701000Y-87752423D01*
X108701000Y-88460077D01*
X108699689Y-88486755D01*
X108695770Y-88513175D01*
X108689280Y-88539085D01*
X108680282Y-88564233D01*
X108668862Y-88588378D01*
X108655131Y-88611288D01*
X108639220Y-88632742D01*
X108621282Y-88652532D01*
X108601492Y-88670470D01*
X108580038Y-88686381D01*
X108557128Y-88700112D01*
X108532983Y-88711532D01*
X108507835Y-88720530D01*
X108481925Y-88727020D01*
X108455505Y-88730939D01*
X108428827Y-88732250D01*
X107471173Y-88732250D01*
X107444495Y-88730939D01*
X107418075Y-88727020D01*
X107392165Y-88720530D01*
X107367017Y-88711532D01*
X107342872Y-88700112D01*
X107319962Y-88686381D01*
X107298508Y-88670470D01*
X107278718Y-88652532D01*
X107260780Y-88632742D01*
X107244869Y-88611288D01*
X107231138Y-88588378D01*
X107219718Y-88564233D01*
X107210720Y-88539085D01*
X107204230Y-88513175D01*
X107200311Y-88486755D01*
X107199000Y-88460077D01*
X107199000Y-87752423D01*
X107200311Y-87725745D01*
X107204230Y-87699325D01*
X107210720Y-87673415D01*
X107219718Y-87648267D01*
X107231138Y-87624122D01*
X107244869Y-87601212D01*
X107260780Y-87579758D01*
X107278718Y-87559968D01*
X107298508Y-87542030D01*
X107319962Y-87526119D01*
X107342872Y-87512388D01*
X107367017Y-87500968D01*
X107392165Y-87491970D01*
X107418075Y-87485480D01*
X107444495Y-87481561D01*
X107471173Y-87480250D01*
X108428827Y-87480250D01*
X108455505Y-87481561D01*
G37*
G36*
X108455505Y-85431561D02*
G01*
X108481925Y-85435480D01*
X108507835Y-85441970D01*
X108532983Y-85450968D01*
X108557128Y-85462388D01*
X108580038Y-85476119D01*
X108601492Y-85492030D01*
X108621282Y-85509968D01*
X108639220Y-85529758D01*
X108655131Y-85551212D01*
X108668862Y-85574122D01*
X108680282Y-85598267D01*
X108689280Y-85623415D01*
X108695770Y-85649325D01*
X108699689Y-85675745D01*
X108701000Y-85702423D01*
X108701000Y-86410077D01*
X108699689Y-86436755D01*
X108695770Y-86463175D01*
X108689280Y-86489085D01*
X108680282Y-86514233D01*
X108668862Y-86538378D01*
X108655131Y-86561288D01*
X108639220Y-86582742D01*
X108621282Y-86602532D01*
X108601492Y-86620470D01*
X108580038Y-86636381D01*
X108557128Y-86650112D01*
X108532983Y-86661532D01*
X108507835Y-86670530D01*
X108481925Y-86677020D01*
X108455505Y-86680939D01*
X108428827Y-86682250D01*
X107471173Y-86682250D01*
X107444495Y-86680939D01*
X107418075Y-86677020D01*
X107392165Y-86670530D01*
X107367017Y-86661532D01*
X107342872Y-86650112D01*
X107319962Y-86636381D01*
X107298508Y-86620470D01*
X107278718Y-86602532D01*
X107260780Y-86582742D01*
X107244869Y-86561288D01*
X107231138Y-86538378D01*
X107219718Y-86514233D01*
X107210720Y-86489085D01*
X107204230Y-86463175D01*
X107200311Y-86436755D01*
X107199000Y-86410077D01*
X107199000Y-85702423D01*
X107200311Y-85675745D01*
X107204230Y-85649325D01*
X107210720Y-85623415D01*
X107219718Y-85598267D01*
X107231138Y-85574122D01*
X107244869Y-85551212D01*
X107260780Y-85529758D01*
X107278718Y-85509968D01*
X107298508Y-85492030D01*
X107319962Y-85476119D01*
X107342872Y-85462388D01*
X107367017Y-85450968D01*
X107392165Y-85441970D01*
X107418075Y-85435480D01*
X107444495Y-85431561D01*
X107471173Y-85430250D01*
X108428827Y-85430250D01*
X108455505Y-85431561D01*
G37*
G36*
X94043005Y-88944061D02*
G01*
X94069425Y-88947980D01*
X94095335Y-88954470D01*
X94120483Y-88963468D01*
X94144628Y-88974888D01*
X94167538Y-88988619D01*
X94188992Y-89004530D01*
X94208782Y-89022468D01*
X94226720Y-89042258D01*
X94242631Y-89063712D01*
X94256362Y-89086622D01*
X94267782Y-89110767D01*
X94276780Y-89135915D01*
X94283270Y-89161825D01*
X94287189Y-89188245D01*
X94288500Y-89214923D01*
X94288500Y-90172577D01*
X94287189Y-90199255D01*
X94283270Y-90225675D01*
X94276780Y-90251585D01*
X94267782Y-90276733D01*
X94256362Y-90300878D01*
X94242631Y-90323788D01*
X94226720Y-90345242D01*
X94208782Y-90365032D01*
X94188992Y-90382970D01*
X94167538Y-90398881D01*
X94144628Y-90412612D01*
X94120483Y-90424032D01*
X94095335Y-90433030D01*
X94069425Y-90439520D01*
X94043005Y-90443439D01*
X94016327Y-90444750D01*
X93308673Y-90444750D01*
X93281995Y-90443439D01*
X93255575Y-90439520D01*
X93229665Y-90433030D01*
X93204517Y-90424032D01*
X93180372Y-90412612D01*
X93157462Y-90398881D01*
X93136008Y-90382970D01*
X93116218Y-90365032D01*
X93098280Y-90345242D01*
X93082369Y-90323788D01*
X93068638Y-90300878D01*
X93057218Y-90276733D01*
X93048220Y-90251585D01*
X93041730Y-90225675D01*
X93037811Y-90199255D01*
X93036500Y-90172577D01*
X93036500Y-89214923D01*
X93037811Y-89188245D01*
X93041730Y-89161825D01*
X93048220Y-89135915D01*
X93057218Y-89110767D01*
X93068638Y-89086622D01*
X93082369Y-89063712D01*
X93098280Y-89042258D01*
X93116218Y-89022468D01*
X93136008Y-89004530D01*
X93157462Y-88988619D01*
X93180372Y-88974888D01*
X93204517Y-88963468D01*
X93229665Y-88954470D01*
X93255575Y-88947980D01*
X93281995Y-88944061D01*
X93308673Y-88942750D01*
X94016327Y-88942750D01*
X94043005Y-88944061D01*
G37*
G36*
X96093005Y-88944061D02*
G01*
X96119425Y-88947980D01*
X96145335Y-88954470D01*
X96170483Y-88963468D01*
X96194628Y-88974888D01*
X96217538Y-88988619D01*
X96238992Y-89004530D01*
X96258782Y-89022468D01*
X96276720Y-89042258D01*
X96292631Y-89063712D01*
X96306362Y-89086622D01*
X96317782Y-89110767D01*
X96326780Y-89135915D01*
X96333270Y-89161825D01*
X96337189Y-89188245D01*
X96338500Y-89214923D01*
X96338500Y-90172577D01*
X96337189Y-90199255D01*
X96333270Y-90225675D01*
X96326780Y-90251585D01*
X96317782Y-90276733D01*
X96306362Y-90300878D01*
X96292631Y-90323788D01*
X96276720Y-90345242D01*
X96258782Y-90365032D01*
X96238992Y-90382970D01*
X96217538Y-90398881D01*
X96194628Y-90412612D01*
X96170483Y-90424032D01*
X96145335Y-90433030D01*
X96119425Y-90439520D01*
X96093005Y-90443439D01*
X96066327Y-90444750D01*
X95358673Y-90444750D01*
X95331995Y-90443439D01*
X95305575Y-90439520D01*
X95279665Y-90433030D01*
X95254517Y-90424032D01*
X95230372Y-90412612D01*
X95207462Y-90398881D01*
X95186008Y-90382970D01*
X95166218Y-90365032D01*
X95148280Y-90345242D01*
X95132369Y-90323788D01*
X95118638Y-90300878D01*
X95107218Y-90276733D01*
X95098220Y-90251585D01*
X95091730Y-90225675D01*
X95087811Y-90199255D01*
X95086500Y-90172577D01*
X95086500Y-89214923D01*
X95087811Y-89188245D01*
X95091730Y-89161825D01*
X95098220Y-89135915D01*
X95107218Y-89110767D01*
X95118638Y-89086622D01*
X95132369Y-89063712D01*
X95148280Y-89042258D01*
X95166218Y-89022468D01*
X95186008Y-89004530D01*
X95207462Y-88988619D01*
X95230372Y-88974888D01*
X95254517Y-88963468D01*
X95279665Y-88954470D01*
X95305575Y-88947980D01*
X95331995Y-88944061D01*
X95358673Y-88942750D01*
X96066327Y-88942750D01*
X96093005Y-88944061D01*
G37*
G36*
X192168505Y-105549311D02*
G01*
X192194925Y-105553230D01*
X192220835Y-105559720D01*
X192245983Y-105568718D01*
X192270128Y-105580138D01*
X192293038Y-105593869D01*
X192314492Y-105609780D01*
X192334282Y-105627718D01*
X192352220Y-105647508D01*
X192368131Y-105668962D01*
X192381862Y-105691872D01*
X192393282Y-105716017D01*
X192402280Y-105741165D01*
X192408770Y-105767075D01*
X192412689Y-105793495D01*
X192414000Y-105820173D01*
X192414000Y-106777827D01*
X192412689Y-106804505D01*
X192408770Y-106830925D01*
X192402280Y-106856835D01*
X192393282Y-106881983D01*
X192381862Y-106906128D01*
X192368131Y-106929038D01*
X192352220Y-106950492D01*
X192334282Y-106970282D01*
X192314492Y-106988220D01*
X192293038Y-107004131D01*
X192270128Y-107017862D01*
X192245983Y-107029282D01*
X192220835Y-107038280D01*
X192194925Y-107044770D01*
X192168505Y-107048689D01*
X192141827Y-107050000D01*
X191434173Y-107050000D01*
X191407495Y-107048689D01*
X191381075Y-107044770D01*
X191355165Y-107038280D01*
X191330017Y-107029282D01*
X191305872Y-107017862D01*
X191282962Y-107004131D01*
X191261508Y-106988220D01*
X191241718Y-106970282D01*
X191223780Y-106950492D01*
X191207869Y-106929038D01*
X191194138Y-106906128D01*
X191182718Y-106881983D01*
X191173720Y-106856835D01*
X191167230Y-106830925D01*
X191163311Y-106804505D01*
X191162000Y-106777827D01*
X191162000Y-105820173D01*
X191163311Y-105793495D01*
X191167230Y-105767075D01*
X191173720Y-105741165D01*
X191182718Y-105716017D01*
X191194138Y-105691872D01*
X191207869Y-105668962D01*
X191223780Y-105647508D01*
X191241718Y-105627718D01*
X191261508Y-105609780D01*
X191282962Y-105593869D01*
X191305872Y-105580138D01*
X191330017Y-105568718D01*
X191355165Y-105559720D01*
X191381075Y-105553230D01*
X191407495Y-105549311D01*
X191434173Y-105548000D01*
X192141827Y-105548000D01*
X192168505Y-105549311D01*
G37*
G36*
X190118505Y-105549311D02*
G01*
X190144925Y-105553230D01*
X190170835Y-105559720D01*
X190195983Y-105568718D01*
X190220128Y-105580138D01*
X190243038Y-105593869D01*
X190264492Y-105609780D01*
X190284282Y-105627718D01*
X190302220Y-105647508D01*
X190318131Y-105668962D01*
X190331862Y-105691872D01*
X190343282Y-105716017D01*
X190352280Y-105741165D01*
X190358770Y-105767075D01*
X190362689Y-105793495D01*
X190364000Y-105820173D01*
X190364000Y-106777827D01*
X190362689Y-106804505D01*
X190358770Y-106830925D01*
X190352280Y-106856835D01*
X190343282Y-106881983D01*
X190331862Y-106906128D01*
X190318131Y-106929038D01*
X190302220Y-106950492D01*
X190284282Y-106970282D01*
X190264492Y-106988220D01*
X190243038Y-107004131D01*
X190220128Y-107017862D01*
X190195983Y-107029282D01*
X190170835Y-107038280D01*
X190144925Y-107044770D01*
X190118505Y-107048689D01*
X190091827Y-107050000D01*
X189384173Y-107050000D01*
X189357495Y-107048689D01*
X189331075Y-107044770D01*
X189305165Y-107038280D01*
X189280017Y-107029282D01*
X189255872Y-107017862D01*
X189232962Y-107004131D01*
X189211508Y-106988220D01*
X189191718Y-106970282D01*
X189173780Y-106950492D01*
X189157869Y-106929038D01*
X189144138Y-106906128D01*
X189132718Y-106881983D01*
X189123720Y-106856835D01*
X189117230Y-106830925D01*
X189113311Y-106804505D01*
X189112000Y-106777827D01*
X189112000Y-105820173D01*
X189113311Y-105793495D01*
X189117230Y-105767075D01*
X189123720Y-105741165D01*
X189132718Y-105716017D01*
X189144138Y-105691872D01*
X189157869Y-105668962D01*
X189173780Y-105647508D01*
X189191718Y-105627718D01*
X189211508Y-105609780D01*
X189232962Y-105593869D01*
X189255872Y-105580138D01*
X189280017Y-105568718D01*
X189305165Y-105559720D01*
X189331075Y-105553230D01*
X189357495Y-105549311D01*
X189384173Y-105548000D01*
X190091827Y-105548000D01*
X190118505Y-105549311D01*
G37*
G36*
X200405505Y-106406561D02*
G01*
X200431925Y-106410480D01*
X200457835Y-106416970D01*
X200482983Y-106425968D01*
X200507128Y-106437388D01*
X200530038Y-106451119D01*
X200551492Y-106467030D01*
X200571282Y-106484968D01*
X200589220Y-106504758D01*
X200605131Y-106526212D01*
X200618862Y-106549122D01*
X200630282Y-106573267D01*
X200639280Y-106598415D01*
X200645770Y-106624325D01*
X200649689Y-106650745D01*
X200651000Y-106677423D01*
X200651000Y-107635077D01*
X200649689Y-107661755D01*
X200645770Y-107688175D01*
X200639280Y-107714085D01*
X200630282Y-107739233D01*
X200618862Y-107763378D01*
X200605131Y-107786288D01*
X200589220Y-107807742D01*
X200571282Y-107827532D01*
X200551492Y-107845470D01*
X200530038Y-107861381D01*
X200507128Y-107875112D01*
X200482983Y-107886532D01*
X200457835Y-107895530D01*
X200431925Y-107902020D01*
X200405505Y-107905939D01*
X200378827Y-107907250D01*
X199671173Y-107907250D01*
X199644495Y-107905939D01*
X199618075Y-107902020D01*
X199592165Y-107895530D01*
X199567017Y-107886532D01*
X199542872Y-107875112D01*
X199519962Y-107861381D01*
X199498508Y-107845470D01*
X199478718Y-107827532D01*
X199460780Y-107807742D01*
X199444869Y-107786288D01*
X199431138Y-107763378D01*
X199419718Y-107739233D01*
X199410720Y-107714085D01*
X199404230Y-107688175D01*
X199400311Y-107661755D01*
X199399000Y-107635077D01*
X199399000Y-106677423D01*
X199400311Y-106650745D01*
X199404230Y-106624325D01*
X199410720Y-106598415D01*
X199419718Y-106573267D01*
X199431138Y-106549122D01*
X199444869Y-106526212D01*
X199460780Y-106504758D01*
X199478718Y-106484968D01*
X199498508Y-106467030D01*
X199519962Y-106451119D01*
X199542872Y-106437388D01*
X199567017Y-106425968D01*
X199592165Y-106416970D01*
X199618075Y-106410480D01*
X199644495Y-106406561D01*
X199671173Y-106405250D01*
X200378827Y-106405250D01*
X200405505Y-106406561D01*
G37*
G36*
X198355505Y-106406561D02*
G01*
X198381925Y-106410480D01*
X198407835Y-106416970D01*
X198432983Y-106425968D01*
X198457128Y-106437388D01*
X198480038Y-106451119D01*
X198501492Y-106467030D01*
X198521282Y-106484968D01*
X198539220Y-106504758D01*
X198555131Y-106526212D01*
X198568862Y-106549122D01*
X198580282Y-106573267D01*
X198589280Y-106598415D01*
X198595770Y-106624325D01*
X198599689Y-106650745D01*
X198601000Y-106677423D01*
X198601000Y-107635077D01*
X198599689Y-107661755D01*
X198595770Y-107688175D01*
X198589280Y-107714085D01*
X198580282Y-107739233D01*
X198568862Y-107763378D01*
X198555131Y-107786288D01*
X198539220Y-107807742D01*
X198521282Y-107827532D01*
X198501492Y-107845470D01*
X198480038Y-107861381D01*
X198457128Y-107875112D01*
X198432983Y-107886532D01*
X198407835Y-107895530D01*
X198381925Y-107902020D01*
X198355505Y-107905939D01*
X198328827Y-107907250D01*
X197621173Y-107907250D01*
X197594495Y-107905939D01*
X197568075Y-107902020D01*
X197542165Y-107895530D01*
X197517017Y-107886532D01*
X197492872Y-107875112D01*
X197469962Y-107861381D01*
X197448508Y-107845470D01*
X197428718Y-107827532D01*
X197410780Y-107807742D01*
X197394869Y-107786288D01*
X197381138Y-107763378D01*
X197369718Y-107739233D01*
X197360720Y-107714085D01*
X197354230Y-107688175D01*
X197350311Y-107661755D01*
X197349000Y-107635077D01*
X197349000Y-106677423D01*
X197350311Y-106650745D01*
X197354230Y-106624325D01*
X197360720Y-106598415D01*
X197369718Y-106573267D01*
X197381138Y-106549122D01*
X197394869Y-106526212D01*
X197410780Y-106504758D01*
X197428718Y-106484968D01*
X197448508Y-106467030D01*
X197469962Y-106451119D01*
X197492872Y-106437388D01*
X197517017Y-106425968D01*
X197542165Y-106416970D01*
X197568075Y-106410480D01*
X197594495Y-106406561D01*
X197621173Y-106405250D01*
X198328827Y-106405250D01*
X198355505Y-106406561D01*
G37*
D22*
X196373750Y-97631250D03*
X186213750Y-97631250D03*
D23*
X188793750Y-93631250D03*
D24*
X191293750Y-97631250D03*
D25*
X187483750Y-95091250D02*
X188793752Y-93631250D01*
D23*
X193833750Y-92551250D03*
D25*
X193793750Y-93131250D02*
X193833750Y-92551250D01*
D22*
X177323750Y-97631250D03*
X167163750Y-97631250D03*
D23*
X169743750Y-93631250D03*
D24*
X172243750Y-97631250D03*
D25*
X168433750Y-95091250D02*
X169743752Y-93631250D01*
D23*
X174783750Y-92551250D03*
D25*
X174743750Y-93131250D02*
X174783750Y-92551250D01*
D22*
X158273750Y-97631250D03*
X148113750Y-97631250D03*
D23*
X150693750Y-93631250D03*
D24*
X153193750Y-97631250D03*
D25*
X149383750Y-95091250D02*
X150693752Y-93631250D01*
D23*
X155733750Y-92551250D03*
D25*
X155693750Y-93131250D02*
X155733750Y-92551250D01*
D22*
X139223750Y-97631250D03*
X129063750Y-97631250D03*
D23*
X131643750Y-93631250D03*
D24*
X134143750Y-97631250D03*
D25*
X130333750Y-95091250D02*
X131643752Y-93631250D01*
D23*
X136683750Y-92551250D03*
D25*
X136643750Y-93131250D02*
X136683750Y-92551250D01*
D15*
G36*
X193361863Y-83276290D02*
G01*
X193387869Y-83280148D01*
X193413371Y-83286535D01*
X193438124Y-83295392D01*
X193461890Y-83306633D01*
X193484439Y-83320148D01*
X193505556Y-83335809D01*
X193525035Y-83353465D01*
X193542691Y-83372944D01*
X193558352Y-83394061D01*
X193571867Y-83416610D01*
X193583108Y-83440376D01*
X193591965Y-83465129D01*
X193598352Y-83490631D01*
X193602210Y-83516637D01*
X193603500Y-83542895D01*
X193603500Y-84859105D01*
X193602210Y-84885363D01*
X193598352Y-84911369D01*
X193591965Y-84936871D01*
X193583108Y-84961624D01*
X193571867Y-84985390D01*
X193558352Y-85007939D01*
X193542691Y-85029056D01*
X193525035Y-85048535D01*
X193505556Y-85066191D01*
X193484439Y-85081852D01*
X193461890Y-85095367D01*
X193438124Y-85106608D01*
X193413371Y-85115465D01*
X193387869Y-85121852D01*
X193361863Y-85125710D01*
X193335605Y-85127000D01*
X192344395Y-85127000D01*
X192318137Y-85125710D01*
X192292131Y-85121852D01*
X192266629Y-85115465D01*
X192241876Y-85106608D01*
X192218110Y-85095367D01*
X192195561Y-85081852D01*
X192174444Y-85066191D01*
X192154965Y-85048535D01*
X192137309Y-85029056D01*
X192121648Y-85007939D01*
X192108133Y-84985390D01*
X192096892Y-84961624D01*
X192088035Y-84936871D01*
X192081648Y-84911369D01*
X192077790Y-84885363D01*
X192076500Y-84859105D01*
X192076500Y-83542895D01*
X192077790Y-83516637D01*
X192081648Y-83490631D01*
X192088035Y-83465129D01*
X192096892Y-83440376D01*
X192108133Y-83416610D01*
X192121648Y-83394061D01*
X192137309Y-83372944D01*
X192154965Y-83353465D01*
X192174444Y-83335809D01*
X192195561Y-83320148D01*
X192218110Y-83306633D01*
X192241876Y-83295392D01*
X192266629Y-83286535D01*
X192292131Y-83280148D01*
X192318137Y-83276290D01*
X192344395Y-83275000D01*
X193335605Y-83275000D01*
X193361863Y-83276290D01*
G37*
G36*
X190386863Y-83276290D02*
G01*
X190412869Y-83280148D01*
X190438371Y-83286535D01*
X190463124Y-83295392D01*
X190486890Y-83306633D01*
X190509439Y-83320148D01*
X190530556Y-83335809D01*
X190550035Y-83353465D01*
X190567691Y-83372944D01*
X190583352Y-83394061D01*
X190596867Y-83416610D01*
X190608108Y-83440376D01*
X190616965Y-83465129D01*
X190623352Y-83490631D01*
X190627210Y-83516637D01*
X190628500Y-83542895D01*
X190628500Y-84859105D01*
X190627210Y-84885363D01*
X190623352Y-84911369D01*
X190616965Y-84936871D01*
X190608108Y-84961624D01*
X190596867Y-84985390D01*
X190583352Y-85007939D01*
X190567691Y-85029056D01*
X190550035Y-85048535D01*
X190530556Y-85066191D01*
X190509439Y-85081852D01*
X190486890Y-85095367D01*
X190463124Y-85106608D01*
X190438371Y-85115465D01*
X190412869Y-85121852D01*
X190386863Y-85125710D01*
X190360605Y-85127000D01*
X189369395Y-85127000D01*
X189343137Y-85125710D01*
X189317131Y-85121852D01*
X189291629Y-85115465D01*
X189266876Y-85106608D01*
X189243110Y-85095367D01*
X189220561Y-85081852D01*
X189199444Y-85066191D01*
X189179965Y-85048535D01*
X189162309Y-85029056D01*
X189146648Y-85007939D01*
X189133133Y-84985390D01*
X189121892Y-84961624D01*
X189113035Y-84936871D01*
X189106648Y-84911369D01*
X189102790Y-84885363D01*
X189101500Y-84859105D01*
X189101500Y-83542895D01*
X189102790Y-83516637D01*
X189106648Y-83490631D01*
X189113035Y-83465129D01*
X189121892Y-83440376D01*
X189133133Y-83416610D01*
X189146648Y-83394061D01*
X189162309Y-83372944D01*
X189179965Y-83353465D01*
X189199444Y-83335809D01*
X189220561Y-83320148D01*
X189243110Y-83306633D01*
X189266876Y-83295392D01*
X189291629Y-83286535D01*
X189317131Y-83280148D01*
X189343137Y-83276290D01*
X189369395Y-83275000D01*
X190360605Y-83275000D01*
X190386863Y-83276290D01*
G37*
D26*
X193675000Y-88900000D03*
X190375000Y-88900000D03*
D27*
X180975000Y-92868750D03*
X180975000Y-96168750D03*
X161131250Y-92868750D03*
X161131250Y-96168750D03*
X142875000Y-92868750D03*
X142875000Y-96168750D03*
D15*
G36*
X102486505Y-104785311D02*
G01*
X102512925Y-104789230D01*
X102538835Y-104795720D01*
X102563983Y-104804718D01*
X102588128Y-104816138D01*
X102611038Y-104829869D01*
X102632492Y-104845780D01*
X102652282Y-104863718D01*
X102670220Y-104883508D01*
X102686131Y-104904962D01*
X102699862Y-104927872D01*
X102711282Y-104952017D01*
X102720280Y-104977165D01*
X102726770Y-105003075D01*
X102730689Y-105029495D01*
X102732000Y-105056173D01*
X102732000Y-105763827D01*
X102730689Y-105790505D01*
X102726770Y-105816925D01*
X102720280Y-105842835D01*
X102711282Y-105867983D01*
X102699862Y-105892128D01*
X102686131Y-105915038D01*
X102670220Y-105936492D01*
X102652282Y-105956282D01*
X102632492Y-105974220D01*
X102611038Y-105990131D01*
X102588128Y-106003862D01*
X102563983Y-106015282D01*
X102538835Y-106024280D01*
X102512925Y-106030770D01*
X102486505Y-106034689D01*
X102459827Y-106036000D01*
X101502173Y-106036000D01*
X101475495Y-106034689D01*
X101449075Y-106030770D01*
X101423165Y-106024280D01*
X101398017Y-106015282D01*
X101373872Y-106003862D01*
X101350962Y-105990131D01*
X101329508Y-105974220D01*
X101309718Y-105956282D01*
X101291780Y-105936492D01*
X101275869Y-105915038D01*
X101262138Y-105892128D01*
X101250718Y-105867983D01*
X101241720Y-105842835D01*
X101235230Y-105816925D01*
X101231311Y-105790505D01*
X101230000Y-105763827D01*
X101230000Y-105056173D01*
X101231311Y-105029495D01*
X101235230Y-105003075D01*
X101241720Y-104977165D01*
X101250718Y-104952017D01*
X101262138Y-104927872D01*
X101275869Y-104904962D01*
X101291780Y-104883508D01*
X101309718Y-104863718D01*
X101329508Y-104845780D01*
X101350962Y-104829869D01*
X101373872Y-104816138D01*
X101398017Y-104804718D01*
X101423165Y-104795720D01*
X101449075Y-104789230D01*
X101475495Y-104785311D01*
X101502173Y-104784000D01*
X102459827Y-104784000D01*
X102486505Y-104785311D01*
G37*
G36*
X102486505Y-106835311D02*
G01*
X102512925Y-106839230D01*
X102538835Y-106845720D01*
X102563983Y-106854718D01*
X102588128Y-106866138D01*
X102611038Y-106879869D01*
X102632492Y-106895780D01*
X102652282Y-106913718D01*
X102670220Y-106933508D01*
X102686131Y-106954962D01*
X102699862Y-106977872D01*
X102711282Y-107002017D01*
X102720280Y-107027165D01*
X102726770Y-107053075D01*
X102730689Y-107079495D01*
X102732000Y-107106173D01*
X102732000Y-107813827D01*
X102730689Y-107840505D01*
X102726770Y-107866925D01*
X102720280Y-107892835D01*
X102711282Y-107917983D01*
X102699862Y-107942128D01*
X102686131Y-107965038D01*
X102670220Y-107986492D01*
X102652282Y-108006282D01*
X102632492Y-108024220D01*
X102611038Y-108040131D01*
X102588128Y-108053862D01*
X102563983Y-108065282D01*
X102538835Y-108074280D01*
X102512925Y-108080770D01*
X102486505Y-108084689D01*
X102459827Y-108086000D01*
X101502173Y-108086000D01*
X101475495Y-108084689D01*
X101449075Y-108080770D01*
X101423165Y-108074280D01*
X101398017Y-108065282D01*
X101373872Y-108053862D01*
X101350962Y-108040131D01*
X101329508Y-108024220D01*
X101309718Y-108006282D01*
X101291780Y-107986492D01*
X101275869Y-107965038D01*
X101262138Y-107942128D01*
X101250718Y-107917983D01*
X101241720Y-107892835D01*
X101235230Y-107866925D01*
X101231311Y-107840505D01*
X101230000Y-107813827D01*
X101230000Y-107106173D01*
X101231311Y-107079495D01*
X101235230Y-107053075D01*
X101241720Y-107027165D01*
X101250718Y-107002017D01*
X101262138Y-106977872D01*
X101275869Y-106954962D01*
X101291780Y-106933508D01*
X101309718Y-106913718D01*
X101329508Y-106895780D01*
X101350962Y-106879869D01*
X101373872Y-106866138D01*
X101398017Y-106854718D01*
X101423165Y-106845720D01*
X101449075Y-106839230D01*
X101475495Y-106835311D01*
X101502173Y-106834000D01*
X102459827Y-106834000D01*
X102486505Y-106835311D01*
G37*
G36*
X98930505Y-99719061D02*
G01*
X98956925Y-99722980D01*
X98982835Y-99729470D01*
X99007983Y-99738468D01*
X99032128Y-99749888D01*
X99055038Y-99763619D01*
X99076492Y-99779530D01*
X99096282Y-99797468D01*
X99114220Y-99817258D01*
X99130131Y-99838712D01*
X99143862Y-99861622D01*
X99155282Y-99885767D01*
X99164280Y-99910915D01*
X99170770Y-99936825D01*
X99174689Y-99963245D01*
X99176000Y-99989923D01*
X99176000Y-100697577D01*
X99174689Y-100724255D01*
X99170770Y-100750675D01*
X99164280Y-100776585D01*
X99155282Y-100801733D01*
X99143862Y-100825878D01*
X99130131Y-100848788D01*
X99114220Y-100870242D01*
X99096282Y-100890032D01*
X99076492Y-100907970D01*
X99055038Y-100923881D01*
X99032128Y-100937612D01*
X99007983Y-100949032D01*
X98982835Y-100958030D01*
X98956925Y-100964520D01*
X98930505Y-100968439D01*
X98903827Y-100969750D01*
X97946173Y-100969750D01*
X97919495Y-100968439D01*
X97893075Y-100964520D01*
X97867165Y-100958030D01*
X97842017Y-100949032D01*
X97817872Y-100937612D01*
X97794962Y-100923881D01*
X97773508Y-100907970D01*
X97753718Y-100890032D01*
X97735780Y-100870242D01*
X97719869Y-100848788D01*
X97706138Y-100825878D01*
X97694718Y-100801733D01*
X97685720Y-100776585D01*
X97679230Y-100750675D01*
X97675311Y-100724255D01*
X97674000Y-100697577D01*
X97674000Y-99989923D01*
X97675311Y-99963245D01*
X97679230Y-99936825D01*
X97685720Y-99910915D01*
X97694718Y-99885767D01*
X97706138Y-99861622D01*
X97719869Y-99838712D01*
X97735780Y-99817258D01*
X97753718Y-99797468D01*
X97773508Y-99779530D01*
X97794962Y-99763619D01*
X97817872Y-99749888D01*
X97842017Y-99738468D01*
X97867165Y-99729470D01*
X97893075Y-99722980D01*
X97919495Y-99719061D01*
X97946173Y-99717750D01*
X98903827Y-99717750D01*
X98930505Y-99719061D01*
G37*
G36*
X98930505Y-101769061D02*
G01*
X98956925Y-101772980D01*
X98982835Y-101779470D01*
X99007983Y-101788468D01*
X99032128Y-101799888D01*
X99055038Y-101813619D01*
X99076492Y-101829530D01*
X99096282Y-101847468D01*
X99114220Y-101867258D01*
X99130131Y-101888712D01*
X99143862Y-101911622D01*
X99155282Y-101935767D01*
X99164280Y-101960915D01*
X99170770Y-101986825D01*
X99174689Y-102013245D01*
X99176000Y-102039923D01*
X99176000Y-102747577D01*
X99174689Y-102774255D01*
X99170770Y-102800675D01*
X99164280Y-102826585D01*
X99155282Y-102851733D01*
X99143862Y-102875878D01*
X99130131Y-102898788D01*
X99114220Y-102920242D01*
X99096282Y-102940032D01*
X99076492Y-102957970D01*
X99055038Y-102973881D01*
X99032128Y-102987612D01*
X99007983Y-102999032D01*
X98982835Y-103008030D01*
X98956925Y-103014520D01*
X98930505Y-103018439D01*
X98903827Y-103019750D01*
X97946173Y-103019750D01*
X97919495Y-103018439D01*
X97893075Y-103014520D01*
X97867165Y-103008030D01*
X97842017Y-102999032D01*
X97817872Y-102987612D01*
X97794962Y-102973881D01*
X97773508Y-102957970D01*
X97753718Y-102940032D01*
X97735780Y-102920242D01*
X97719869Y-102898788D01*
X97706138Y-102875878D01*
X97694718Y-102851733D01*
X97685720Y-102826585D01*
X97679230Y-102800675D01*
X97675311Y-102774255D01*
X97674000Y-102747577D01*
X97674000Y-102039923D01*
X97675311Y-102013245D01*
X97679230Y-101986825D01*
X97685720Y-101960915D01*
X97694718Y-101935767D01*
X97706138Y-101911622D01*
X97719869Y-101888712D01*
X97735780Y-101867258D01*
X97753718Y-101847468D01*
X97773508Y-101829530D01*
X97794962Y-101813619D01*
X97817872Y-101799888D01*
X97842017Y-101788468D01*
X97867165Y-101779470D01*
X97893075Y-101772980D01*
X97919495Y-101769061D01*
X97946173Y-101767750D01*
X98903827Y-101767750D01*
X98930505Y-101769061D01*
G37*
G36*
X85643005Y-88944061D02*
G01*
X85669425Y-88947980D01*
X85695335Y-88954470D01*
X85720483Y-88963468D01*
X85744628Y-88974888D01*
X85767538Y-88988619D01*
X85788992Y-89004530D01*
X85808782Y-89022468D01*
X85826720Y-89042258D01*
X85842631Y-89063712D01*
X85856362Y-89086622D01*
X85867782Y-89110767D01*
X85876780Y-89135915D01*
X85883270Y-89161825D01*
X85887189Y-89188245D01*
X85888500Y-89214923D01*
X85888500Y-90172577D01*
X85887189Y-90199255D01*
X85883270Y-90225675D01*
X85876780Y-90251585D01*
X85867782Y-90276733D01*
X85856362Y-90300878D01*
X85842631Y-90323788D01*
X85826720Y-90345242D01*
X85808782Y-90365032D01*
X85788992Y-90382970D01*
X85767538Y-90398881D01*
X85744628Y-90412612D01*
X85720483Y-90424032D01*
X85695335Y-90433030D01*
X85669425Y-90439520D01*
X85643005Y-90443439D01*
X85616327Y-90444750D01*
X84908673Y-90444750D01*
X84881995Y-90443439D01*
X84855575Y-90439520D01*
X84829665Y-90433030D01*
X84804517Y-90424032D01*
X84780372Y-90412612D01*
X84757462Y-90398881D01*
X84736008Y-90382970D01*
X84716218Y-90365032D01*
X84698280Y-90345242D01*
X84682369Y-90323788D01*
X84668638Y-90300878D01*
X84657218Y-90276733D01*
X84648220Y-90251585D01*
X84641730Y-90225675D01*
X84637811Y-90199255D01*
X84636500Y-90172577D01*
X84636500Y-89214923D01*
X84637811Y-89188245D01*
X84641730Y-89161825D01*
X84648220Y-89135915D01*
X84657218Y-89110767D01*
X84668638Y-89086622D01*
X84682369Y-89063712D01*
X84698280Y-89042258D01*
X84716218Y-89022468D01*
X84736008Y-89004530D01*
X84757462Y-88988619D01*
X84780372Y-88974888D01*
X84804517Y-88963468D01*
X84829665Y-88954470D01*
X84855575Y-88947980D01*
X84881995Y-88944061D01*
X84908673Y-88942750D01*
X85616327Y-88942750D01*
X85643005Y-88944061D01*
G37*
G36*
X87693005Y-88944061D02*
G01*
X87719425Y-88947980D01*
X87745335Y-88954470D01*
X87770483Y-88963468D01*
X87794628Y-88974888D01*
X87817538Y-88988619D01*
X87838992Y-89004530D01*
X87858782Y-89022468D01*
X87876720Y-89042258D01*
X87892631Y-89063712D01*
X87906362Y-89086622D01*
X87917782Y-89110767D01*
X87926780Y-89135915D01*
X87933270Y-89161825D01*
X87937189Y-89188245D01*
X87938500Y-89214923D01*
X87938500Y-90172577D01*
X87937189Y-90199255D01*
X87933270Y-90225675D01*
X87926780Y-90251585D01*
X87917782Y-90276733D01*
X87906362Y-90300878D01*
X87892631Y-90323788D01*
X87876720Y-90345242D01*
X87858782Y-90365032D01*
X87838992Y-90382970D01*
X87817538Y-90398881D01*
X87794628Y-90412612D01*
X87770483Y-90424032D01*
X87745335Y-90433030D01*
X87719425Y-90439520D01*
X87693005Y-90443439D01*
X87666327Y-90444750D01*
X86958673Y-90444750D01*
X86931995Y-90443439D01*
X86905575Y-90439520D01*
X86879665Y-90433030D01*
X86854517Y-90424032D01*
X86830372Y-90412612D01*
X86807462Y-90398881D01*
X86786008Y-90382970D01*
X86766218Y-90365032D01*
X86748280Y-90345242D01*
X86732369Y-90323788D01*
X86718638Y-90300878D01*
X86707218Y-90276733D01*
X86698220Y-90251585D01*
X86691730Y-90225675D01*
X86687811Y-90199255D01*
X86686500Y-90172577D01*
X86686500Y-89214923D01*
X86687811Y-89188245D01*
X86691730Y-89161825D01*
X86698220Y-89135915D01*
X86707218Y-89110767D01*
X86718638Y-89086622D01*
X86732369Y-89063712D01*
X86748280Y-89042258D01*
X86766218Y-89022468D01*
X86786008Y-89004530D01*
X86807462Y-88988619D01*
X86830372Y-88974888D01*
X86854517Y-88963468D01*
X86879665Y-88954470D01*
X86905575Y-88947980D01*
X86931995Y-88944061D01*
X86958673Y-88942750D01*
X87666327Y-88942750D01*
X87693005Y-88944061D01*
G37*
G36*
X82136755Y-104819061D02*
G01*
X82163175Y-104822980D01*
X82189085Y-104829470D01*
X82214233Y-104838468D01*
X82238378Y-104849888D01*
X82261288Y-104863619D01*
X82282742Y-104879530D01*
X82302532Y-104897468D01*
X82320470Y-104917258D01*
X82336381Y-104938712D01*
X82350112Y-104961622D01*
X82361532Y-104985767D01*
X82370530Y-105010915D01*
X82377020Y-105036825D01*
X82380939Y-105063245D01*
X82382250Y-105089923D01*
X82382250Y-106047577D01*
X82380939Y-106074255D01*
X82377020Y-106100675D01*
X82370530Y-106126585D01*
X82361532Y-106151733D01*
X82350112Y-106175878D01*
X82336381Y-106198788D01*
X82320470Y-106220242D01*
X82302532Y-106240032D01*
X82282742Y-106257970D01*
X82261288Y-106273881D01*
X82238378Y-106287612D01*
X82214233Y-106299032D01*
X82189085Y-106308030D01*
X82163175Y-106314520D01*
X82136755Y-106318439D01*
X82110077Y-106319750D01*
X81402423Y-106319750D01*
X81375745Y-106318439D01*
X81349325Y-106314520D01*
X81323415Y-106308030D01*
X81298267Y-106299032D01*
X81274122Y-106287612D01*
X81251212Y-106273881D01*
X81229758Y-106257970D01*
X81209968Y-106240032D01*
X81192030Y-106220242D01*
X81176119Y-106198788D01*
X81162388Y-106175878D01*
X81150968Y-106151733D01*
X81141970Y-106126585D01*
X81135480Y-106100675D01*
X81131561Y-106074255D01*
X81130250Y-106047577D01*
X81130250Y-105089923D01*
X81131561Y-105063245D01*
X81135480Y-105036825D01*
X81141970Y-105010915D01*
X81150968Y-104985767D01*
X81162388Y-104961622D01*
X81176119Y-104938712D01*
X81192030Y-104917258D01*
X81209968Y-104897468D01*
X81229758Y-104879530D01*
X81251212Y-104863619D01*
X81274122Y-104849888D01*
X81298267Y-104838468D01*
X81323415Y-104829470D01*
X81349325Y-104822980D01*
X81375745Y-104819061D01*
X81402423Y-104817750D01*
X82110077Y-104817750D01*
X82136755Y-104819061D01*
G37*
G36*
X84186755Y-104819061D02*
G01*
X84213175Y-104822980D01*
X84239085Y-104829470D01*
X84264233Y-104838468D01*
X84288378Y-104849888D01*
X84311288Y-104863619D01*
X84332742Y-104879530D01*
X84352532Y-104897468D01*
X84370470Y-104917258D01*
X84386381Y-104938712D01*
X84400112Y-104961622D01*
X84411532Y-104985767D01*
X84420530Y-105010915D01*
X84427020Y-105036825D01*
X84430939Y-105063245D01*
X84432250Y-105089923D01*
X84432250Y-106047577D01*
X84430939Y-106074255D01*
X84427020Y-106100675D01*
X84420530Y-106126585D01*
X84411532Y-106151733D01*
X84400112Y-106175878D01*
X84386381Y-106198788D01*
X84370470Y-106220242D01*
X84352532Y-106240032D01*
X84332742Y-106257970D01*
X84311288Y-106273881D01*
X84288378Y-106287612D01*
X84264233Y-106299032D01*
X84239085Y-106308030D01*
X84213175Y-106314520D01*
X84186755Y-106318439D01*
X84160077Y-106319750D01*
X83452423Y-106319750D01*
X83425745Y-106318439D01*
X83399325Y-106314520D01*
X83373415Y-106308030D01*
X83348267Y-106299032D01*
X83324122Y-106287612D01*
X83301212Y-106273881D01*
X83279758Y-106257970D01*
X83259968Y-106240032D01*
X83242030Y-106220242D01*
X83226119Y-106198788D01*
X83212388Y-106175878D01*
X83200968Y-106151733D01*
X83191970Y-106126585D01*
X83185480Y-106100675D01*
X83181561Y-106074255D01*
X83180250Y-106047577D01*
X83180250Y-105089923D01*
X83181561Y-105063245D01*
X83185480Y-105036825D01*
X83191970Y-105010915D01*
X83200968Y-104985767D01*
X83212388Y-104961622D01*
X83226119Y-104938712D01*
X83242030Y-104917258D01*
X83259968Y-104897468D01*
X83279758Y-104879530D01*
X83301212Y-104863619D01*
X83324122Y-104849888D01*
X83348267Y-104838468D01*
X83373415Y-104829470D01*
X83399325Y-104822980D01*
X83425745Y-104819061D01*
X83452423Y-104817750D01*
X84160077Y-104817750D01*
X84186755Y-104819061D01*
G37*
G36*
X99493005Y-94062811D02*
G01*
X99519425Y-94066730D01*
X99545335Y-94073220D01*
X99570483Y-94082218D01*
X99594628Y-94093638D01*
X99617538Y-94107369D01*
X99638992Y-94123280D01*
X99658782Y-94141218D01*
X99676720Y-94161008D01*
X99692631Y-94182462D01*
X99706362Y-94205372D01*
X99717782Y-94229517D01*
X99726780Y-94254665D01*
X99733270Y-94280575D01*
X99737189Y-94306995D01*
X99738500Y-94333673D01*
X99738500Y-95041327D01*
X99737189Y-95068005D01*
X99733270Y-95094425D01*
X99726780Y-95120335D01*
X99717782Y-95145483D01*
X99706362Y-95169628D01*
X99692631Y-95192538D01*
X99676720Y-95213992D01*
X99658782Y-95233782D01*
X99638992Y-95251720D01*
X99617538Y-95267631D01*
X99594628Y-95281362D01*
X99570483Y-95292782D01*
X99545335Y-95301780D01*
X99519425Y-95308270D01*
X99493005Y-95312189D01*
X99466327Y-95313500D01*
X98508673Y-95313500D01*
X98481995Y-95312189D01*
X98455575Y-95308270D01*
X98429665Y-95301780D01*
X98404517Y-95292782D01*
X98380372Y-95281362D01*
X98357462Y-95267631D01*
X98336008Y-95251720D01*
X98316218Y-95233782D01*
X98298280Y-95213992D01*
X98282369Y-95192538D01*
X98268638Y-95169628D01*
X98257218Y-95145483D01*
X98248220Y-95120335D01*
X98241730Y-95094425D01*
X98237811Y-95068005D01*
X98236500Y-95041327D01*
X98236500Y-94333673D01*
X98237811Y-94306995D01*
X98241730Y-94280575D01*
X98248220Y-94254665D01*
X98257218Y-94229517D01*
X98268638Y-94205372D01*
X98282369Y-94182462D01*
X98298280Y-94161008D01*
X98316218Y-94141218D01*
X98336008Y-94123280D01*
X98357462Y-94107369D01*
X98380372Y-94093638D01*
X98404517Y-94082218D01*
X98429665Y-94073220D01*
X98455575Y-94066730D01*
X98481995Y-94062811D01*
X98508673Y-94061500D01*
X99466327Y-94061500D01*
X99493005Y-94062811D01*
G37*
G36*
X99493005Y-92012811D02*
G01*
X99519425Y-92016730D01*
X99545335Y-92023220D01*
X99570483Y-92032218D01*
X99594628Y-92043638D01*
X99617538Y-92057369D01*
X99638992Y-92073280D01*
X99658782Y-92091218D01*
X99676720Y-92111008D01*
X99692631Y-92132462D01*
X99706362Y-92155372D01*
X99717782Y-92179517D01*
X99726780Y-92204665D01*
X99733270Y-92230575D01*
X99737189Y-92256995D01*
X99738500Y-92283673D01*
X99738500Y-92991327D01*
X99737189Y-93018005D01*
X99733270Y-93044425D01*
X99726780Y-93070335D01*
X99717782Y-93095483D01*
X99706362Y-93119628D01*
X99692631Y-93142538D01*
X99676720Y-93163992D01*
X99658782Y-93183782D01*
X99638992Y-93201720D01*
X99617538Y-93217631D01*
X99594628Y-93231362D01*
X99570483Y-93242782D01*
X99545335Y-93251780D01*
X99519425Y-93258270D01*
X99493005Y-93262189D01*
X99466327Y-93263500D01*
X98508673Y-93263500D01*
X98481995Y-93262189D01*
X98455575Y-93258270D01*
X98429665Y-93251780D01*
X98404517Y-93242782D01*
X98380372Y-93231362D01*
X98357462Y-93217631D01*
X98336008Y-93201720D01*
X98316218Y-93183782D01*
X98298280Y-93163992D01*
X98282369Y-93142538D01*
X98268638Y-93119628D01*
X98257218Y-93095483D01*
X98248220Y-93070335D01*
X98241730Y-93044425D01*
X98237811Y-93018005D01*
X98236500Y-92991327D01*
X98236500Y-92283673D01*
X98237811Y-92256995D01*
X98241730Y-92230575D01*
X98248220Y-92204665D01*
X98257218Y-92179517D01*
X98268638Y-92155372D01*
X98282369Y-92132462D01*
X98298280Y-92111008D01*
X98316218Y-92091218D01*
X98336008Y-92073280D01*
X98357462Y-92057369D01*
X98380372Y-92043638D01*
X98404517Y-92032218D01*
X98429665Y-92023220D01*
X98455575Y-92016730D01*
X98481995Y-92012811D01*
X98508673Y-92011500D01*
X99466327Y-92011500D01*
X99493005Y-92012811D01*
G37*
G36*
X99311505Y-104268311D02*
G01*
X99337925Y-104272230D01*
X99363835Y-104278720D01*
X99388983Y-104287718D01*
X99413128Y-104299138D01*
X99436038Y-104312869D01*
X99457492Y-104328780D01*
X99477282Y-104346718D01*
X99495220Y-104366508D01*
X99511131Y-104387962D01*
X99524862Y-104410872D01*
X99536282Y-104435017D01*
X99545280Y-104460165D01*
X99551770Y-104486075D01*
X99555689Y-104512495D01*
X99557000Y-104539173D01*
X99557000Y-105246827D01*
X99555689Y-105273505D01*
X99551770Y-105299925D01*
X99545280Y-105325835D01*
X99536282Y-105350983D01*
X99524862Y-105375128D01*
X99511131Y-105398038D01*
X99495220Y-105419492D01*
X99477282Y-105439282D01*
X99457492Y-105457220D01*
X99436038Y-105473131D01*
X99413128Y-105486862D01*
X99388983Y-105498282D01*
X99363835Y-105507280D01*
X99337925Y-105513770D01*
X99311505Y-105517689D01*
X99284827Y-105519000D01*
X98327173Y-105519000D01*
X98300495Y-105517689D01*
X98274075Y-105513770D01*
X98248165Y-105507280D01*
X98223017Y-105498282D01*
X98198872Y-105486862D01*
X98175962Y-105473131D01*
X98154508Y-105457220D01*
X98134718Y-105439282D01*
X98116780Y-105419492D01*
X98100869Y-105398038D01*
X98087138Y-105375128D01*
X98075718Y-105350983D01*
X98066720Y-105325835D01*
X98060230Y-105299925D01*
X98056311Y-105273505D01*
X98055000Y-105246827D01*
X98055000Y-104539173D01*
X98056311Y-104512495D01*
X98060230Y-104486075D01*
X98066720Y-104460165D01*
X98075718Y-104435017D01*
X98087138Y-104410872D01*
X98100869Y-104387962D01*
X98116780Y-104366508D01*
X98134718Y-104346718D01*
X98154508Y-104328780D01*
X98175962Y-104312869D01*
X98198872Y-104299138D01*
X98223017Y-104287718D01*
X98248165Y-104278720D01*
X98274075Y-104272230D01*
X98300495Y-104268311D01*
X98327173Y-104267000D01*
X99284827Y-104267000D01*
X99311505Y-104268311D01*
G37*
G36*
X99311505Y-106318311D02*
G01*
X99337925Y-106322230D01*
X99363835Y-106328720D01*
X99388983Y-106337718D01*
X99413128Y-106349138D01*
X99436038Y-106362869D01*
X99457492Y-106378780D01*
X99477282Y-106396718D01*
X99495220Y-106416508D01*
X99511131Y-106437962D01*
X99524862Y-106460872D01*
X99536282Y-106485017D01*
X99545280Y-106510165D01*
X99551770Y-106536075D01*
X99555689Y-106562495D01*
X99557000Y-106589173D01*
X99557000Y-107296827D01*
X99555689Y-107323505D01*
X99551770Y-107349925D01*
X99545280Y-107375835D01*
X99536282Y-107400983D01*
X99524862Y-107425128D01*
X99511131Y-107448038D01*
X99495220Y-107469492D01*
X99477282Y-107489282D01*
X99457492Y-107507220D01*
X99436038Y-107523131D01*
X99413128Y-107536862D01*
X99388983Y-107548282D01*
X99363835Y-107557280D01*
X99337925Y-107563770D01*
X99311505Y-107567689D01*
X99284827Y-107569000D01*
X98327173Y-107569000D01*
X98300495Y-107567689D01*
X98274075Y-107563770D01*
X98248165Y-107557280D01*
X98223017Y-107548282D01*
X98198872Y-107536862D01*
X98175962Y-107523131D01*
X98154508Y-107507220D01*
X98134718Y-107489282D01*
X98116780Y-107469492D01*
X98100869Y-107448038D01*
X98087138Y-107425128D01*
X98075718Y-107400983D01*
X98066720Y-107375835D01*
X98060230Y-107349925D01*
X98056311Y-107323505D01*
X98055000Y-107296827D01*
X98055000Y-106589173D01*
X98056311Y-106562495D01*
X98060230Y-106536075D01*
X98066720Y-106510165D01*
X98075718Y-106485017D01*
X98087138Y-106460872D01*
X98100869Y-106437962D01*
X98116780Y-106416508D01*
X98134718Y-106396718D01*
X98154508Y-106378780D01*
X98175962Y-106362869D01*
X98198872Y-106349138D01*
X98223017Y-106337718D01*
X98248165Y-106328720D01*
X98274075Y-106322230D01*
X98300495Y-106318311D01*
X98327173Y-106317000D01*
X99284827Y-106317000D01*
X99311505Y-106318311D01*
G37*
G36*
X90675505Y-107089311D02*
G01*
X90701925Y-107093230D01*
X90727835Y-107099720D01*
X90752983Y-107108718D01*
X90777128Y-107120138D01*
X90800038Y-107133869D01*
X90821492Y-107149780D01*
X90841282Y-107167718D01*
X90859220Y-107187508D01*
X90875131Y-107208962D01*
X90888862Y-107231872D01*
X90900282Y-107256017D01*
X90909280Y-107281165D01*
X90915770Y-107307075D01*
X90919689Y-107333495D01*
X90921000Y-107360173D01*
X90921000Y-108067827D01*
X90919689Y-108094505D01*
X90915770Y-108120925D01*
X90909280Y-108146835D01*
X90900282Y-108171983D01*
X90888862Y-108196128D01*
X90875131Y-108219038D01*
X90859220Y-108240492D01*
X90841282Y-108260282D01*
X90821492Y-108278220D01*
X90800038Y-108294131D01*
X90777128Y-108307862D01*
X90752983Y-108319282D01*
X90727835Y-108328280D01*
X90701925Y-108334770D01*
X90675505Y-108338689D01*
X90648827Y-108340000D01*
X89691173Y-108340000D01*
X89664495Y-108338689D01*
X89638075Y-108334770D01*
X89612165Y-108328280D01*
X89587017Y-108319282D01*
X89562872Y-108307862D01*
X89539962Y-108294131D01*
X89518508Y-108278220D01*
X89498718Y-108260282D01*
X89480780Y-108240492D01*
X89464869Y-108219038D01*
X89451138Y-108196128D01*
X89439718Y-108171983D01*
X89430720Y-108146835D01*
X89424230Y-108120925D01*
X89420311Y-108094505D01*
X89419000Y-108067827D01*
X89419000Y-107360173D01*
X89420311Y-107333495D01*
X89424230Y-107307075D01*
X89430720Y-107281165D01*
X89439718Y-107256017D01*
X89451138Y-107231872D01*
X89464869Y-107208962D01*
X89480780Y-107187508D01*
X89498718Y-107167718D01*
X89518508Y-107149780D01*
X89539962Y-107133869D01*
X89562872Y-107120138D01*
X89587017Y-107108718D01*
X89612165Y-107099720D01*
X89638075Y-107093230D01*
X89664495Y-107089311D01*
X89691173Y-107088000D01*
X90648827Y-107088000D01*
X90675505Y-107089311D01*
G37*
G36*
X90675505Y-105039311D02*
G01*
X90701925Y-105043230D01*
X90727835Y-105049720D01*
X90752983Y-105058718D01*
X90777128Y-105070138D01*
X90800038Y-105083869D01*
X90821492Y-105099780D01*
X90841282Y-105117718D01*
X90859220Y-105137508D01*
X90875131Y-105158962D01*
X90888862Y-105181872D01*
X90900282Y-105206017D01*
X90909280Y-105231165D01*
X90915770Y-105257075D01*
X90919689Y-105283495D01*
X90921000Y-105310173D01*
X90921000Y-106017827D01*
X90919689Y-106044505D01*
X90915770Y-106070925D01*
X90909280Y-106096835D01*
X90900282Y-106121983D01*
X90888862Y-106146128D01*
X90875131Y-106169038D01*
X90859220Y-106190492D01*
X90841282Y-106210282D01*
X90821492Y-106228220D01*
X90800038Y-106244131D01*
X90777128Y-106257862D01*
X90752983Y-106269282D01*
X90727835Y-106278280D01*
X90701925Y-106284770D01*
X90675505Y-106288689D01*
X90648827Y-106290000D01*
X89691173Y-106290000D01*
X89664495Y-106288689D01*
X89638075Y-106284770D01*
X89612165Y-106278280D01*
X89587017Y-106269282D01*
X89562872Y-106257862D01*
X89539962Y-106244131D01*
X89518508Y-106228220D01*
X89498718Y-106210282D01*
X89480780Y-106190492D01*
X89464869Y-106169038D01*
X89451138Y-106146128D01*
X89439718Y-106121983D01*
X89430720Y-106096835D01*
X89424230Y-106070925D01*
X89420311Y-106044505D01*
X89419000Y-106017827D01*
X89419000Y-105310173D01*
X89420311Y-105283495D01*
X89424230Y-105257075D01*
X89430720Y-105231165D01*
X89439718Y-105206017D01*
X89451138Y-105181872D01*
X89464869Y-105158962D01*
X89480780Y-105137508D01*
X89498718Y-105117718D01*
X89518508Y-105099780D01*
X89539962Y-105083869D01*
X89562872Y-105070138D01*
X89587017Y-105058718D01*
X89612165Y-105049720D01*
X89638075Y-105043230D01*
X89664495Y-105039311D01*
X89691173Y-105038000D01*
X90648827Y-105038000D01*
X90675505Y-105039311D01*
G37*
G36*
X79755505Y-102437811D02*
G01*
X79781925Y-102441730D01*
X79807835Y-102448220D01*
X79832983Y-102457218D01*
X79857128Y-102468638D01*
X79880038Y-102482369D01*
X79901492Y-102498280D01*
X79921282Y-102516218D01*
X79939220Y-102536008D01*
X79955131Y-102557462D01*
X79968862Y-102580372D01*
X79980282Y-102604517D01*
X79989280Y-102629665D01*
X79995770Y-102655575D01*
X79999689Y-102681995D01*
X80001000Y-102708673D01*
X80001000Y-103666327D01*
X79999689Y-103693005D01*
X79995770Y-103719425D01*
X79989280Y-103745335D01*
X79980282Y-103770483D01*
X79968862Y-103794628D01*
X79955131Y-103817538D01*
X79939220Y-103838992D01*
X79921282Y-103858782D01*
X79901492Y-103876720D01*
X79880038Y-103892631D01*
X79857128Y-103906362D01*
X79832983Y-103917782D01*
X79807835Y-103926780D01*
X79781925Y-103933270D01*
X79755505Y-103937189D01*
X79728827Y-103938500D01*
X79021173Y-103938500D01*
X78994495Y-103937189D01*
X78968075Y-103933270D01*
X78942165Y-103926780D01*
X78917017Y-103917782D01*
X78892872Y-103906362D01*
X78869962Y-103892631D01*
X78848508Y-103876720D01*
X78828718Y-103858782D01*
X78810780Y-103838992D01*
X78794869Y-103817538D01*
X78781138Y-103794628D01*
X78769718Y-103770483D01*
X78760720Y-103745335D01*
X78754230Y-103719425D01*
X78750311Y-103693005D01*
X78749000Y-103666327D01*
X78749000Y-102708673D01*
X78750311Y-102681995D01*
X78754230Y-102655575D01*
X78760720Y-102629665D01*
X78769718Y-102604517D01*
X78781138Y-102580372D01*
X78794869Y-102557462D01*
X78810780Y-102536008D01*
X78828718Y-102516218D01*
X78848508Y-102498280D01*
X78869962Y-102482369D01*
X78892872Y-102468638D01*
X78917017Y-102457218D01*
X78942165Y-102448220D01*
X78968075Y-102441730D01*
X78994495Y-102437811D01*
X79021173Y-102436500D01*
X79728827Y-102436500D01*
X79755505Y-102437811D01*
G37*
G36*
X77705505Y-102437811D02*
G01*
X77731925Y-102441730D01*
X77757835Y-102448220D01*
X77782983Y-102457218D01*
X77807128Y-102468638D01*
X77830038Y-102482369D01*
X77851492Y-102498280D01*
X77871282Y-102516218D01*
X77889220Y-102536008D01*
X77905131Y-102557462D01*
X77918862Y-102580372D01*
X77930282Y-102604517D01*
X77939280Y-102629665D01*
X77945770Y-102655575D01*
X77949689Y-102681995D01*
X77951000Y-102708673D01*
X77951000Y-103666327D01*
X77949689Y-103693005D01*
X77945770Y-103719425D01*
X77939280Y-103745335D01*
X77930282Y-103770483D01*
X77918862Y-103794628D01*
X77905131Y-103817538D01*
X77889220Y-103838992D01*
X77871282Y-103858782D01*
X77851492Y-103876720D01*
X77830038Y-103892631D01*
X77807128Y-103906362D01*
X77782983Y-103917782D01*
X77757835Y-103926780D01*
X77731925Y-103933270D01*
X77705505Y-103937189D01*
X77678827Y-103938500D01*
X76971173Y-103938500D01*
X76944495Y-103937189D01*
X76918075Y-103933270D01*
X76892165Y-103926780D01*
X76867017Y-103917782D01*
X76842872Y-103906362D01*
X76819962Y-103892631D01*
X76798508Y-103876720D01*
X76778718Y-103858782D01*
X76760780Y-103838992D01*
X76744869Y-103817538D01*
X76731138Y-103794628D01*
X76719718Y-103770483D01*
X76710720Y-103745335D01*
X76704230Y-103719425D01*
X76700311Y-103693005D01*
X76699000Y-103666327D01*
X76699000Y-102708673D01*
X76700311Y-102681995D01*
X76704230Y-102655575D01*
X76710720Y-102629665D01*
X76719718Y-102604517D01*
X76731138Y-102580372D01*
X76744869Y-102557462D01*
X76760780Y-102536008D01*
X76778718Y-102516218D01*
X76798508Y-102498280D01*
X76819962Y-102482369D01*
X76842872Y-102468638D01*
X76867017Y-102457218D01*
X76892165Y-102448220D01*
X76918075Y-102441730D01*
X76944495Y-102437811D01*
X76971173Y-102436500D01*
X77678827Y-102436500D01*
X77705505Y-102437811D01*
G37*
G36*
X77374255Y-92912811D02*
G01*
X77400675Y-92916730D01*
X77426585Y-92923220D01*
X77451733Y-92932218D01*
X77475878Y-92943638D01*
X77498788Y-92957369D01*
X77520242Y-92973280D01*
X77540032Y-92991218D01*
X77557970Y-93011008D01*
X77573881Y-93032462D01*
X77587612Y-93055372D01*
X77599032Y-93079517D01*
X77608030Y-93104665D01*
X77614520Y-93130575D01*
X77618439Y-93156995D01*
X77619750Y-93183673D01*
X77619750Y-94141327D01*
X77618439Y-94168005D01*
X77614520Y-94194425D01*
X77608030Y-94220335D01*
X77599032Y-94245483D01*
X77587612Y-94269628D01*
X77573881Y-94292538D01*
X77557970Y-94313992D01*
X77540032Y-94333782D01*
X77520242Y-94351720D01*
X77498788Y-94367631D01*
X77475878Y-94381362D01*
X77451733Y-94392782D01*
X77426585Y-94401780D01*
X77400675Y-94408270D01*
X77374255Y-94412189D01*
X77347577Y-94413500D01*
X76639923Y-94413500D01*
X76613245Y-94412189D01*
X76586825Y-94408270D01*
X76560915Y-94401780D01*
X76535767Y-94392782D01*
X76511622Y-94381362D01*
X76488712Y-94367631D01*
X76467258Y-94351720D01*
X76447468Y-94333782D01*
X76429530Y-94313992D01*
X76413619Y-94292538D01*
X76399888Y-94269628D01*
X76388468Y-94245483D01*
X76379470Y-94220335D01*
X76372980Y-94194425D01*
X76369061Y-94168005D01*
X76367750Y-94141327D01*
X76367750Y-93183673D01*
X76369061Y-93156995D01*
X76372980Y-93130575D01*
X76379470Y-93104665D01*
X76388468Y-93079517D01*
X76399888Y-93055372D01*
X76413619Y-93032462D01*
X76429530Y-93011008D01*
X76447468Y-92991218D01*
X76467258Y-92973280D01*
X76488712Y-92957369D01*
X76511622Y-92943638D01*
X76535767Y-92932218D01*
X76560915Y-92923220D01*
X76586825Y-92916730D01*
X76613245Y-92912811D01*
X76639923Y-92911500D01*
X77347577Y-92911500D01*
X77374255Y-92912811D01*
G37*
G36*
X79424255Y-92912811D02*
G01*
X79450675Y-92916730D01*
X79476585Y-92923220D01*
X79501733Y-92932218D01*
X79525878Y-92943638D01*
X79548788Y-92957369D01*
X79570242Y-92973280D01*
X79590032Y-92991218D01*
X79607970Y-93011008D01*
X79623881Y-93032462D01*
X79637612Y-93055372D01*
X79649032Y-93079517D01*
X79658030Y-93104665D01*
X79664520Y-93130575D01*
X79668439Y-93156995D01*
X79669750Y-93183673D01*
X79669750Y-94141327D01*
X79668439Y-94168005D01*
X79664520Y-94194425D01*
X79658030Y-94220335D01*
X79649032Y-94245483D01*
X79637612Y-94269628D01*
X79623881Y-94292538D01*
X79607970Y-94313992D01*
X79590032Y-94333782D01*
X79570242Y-94351720D01*
X79548788Y-94367631D01*
X79525878Y-94381362D01*
X79501733Y-94392782D01*
X79476585Y-94401780D01*
X79450675Y-94408270D01*
X79424255Y-94412189D01*
X79397577Y-94413500D01*
X78689923Y-94413500D01*
X78663245Y-94412189D01*
X78636825Y-94408270D01*
X78610915Y-94401780D01*
X78585767Y-94392782D01*
X78561622Y-94381362D01*
X78538712Y-94367631D01*
X78517258Y-94351720D01*
X78497468Y-94333782D01*
X78479530Y-94313992D01*
X78463619Y-94292538D01*
X78449888Y-94269628D01*
X78438468Y-94245483D01*
X78429470Y-94220335D01*
X78422980Y-94194425D01*
X78419061Y-94168005D01*
X78417750Y-94141327D01*
X78417750Y-93183673D01*
X78419061Y-93156995D01*
X78422980Y-93130575D01*
X78429470Y-93104665D01*
X78438468Y-93079517D01*
X78449888Y-93055372D01*
X78463619Y-93032462D01*
X78479530Y-93011008D01*
X78497468Y-92991218D01*
X78517258Y-92973280D01*
X78538712Y-92957369D01*
X78561622Y-92943638D01*
X78585767Y-92932218D01*
X78610915Y-92923220D01*
X78636825Y-92916730D01*
X78663245Y-92912811D01*
X78689923Y-92911500D01*
X79397577Y-92911500D01*
X79424255Y-92912811D01*
G37*
M02*
