G04 #@! TF.GenerationSoftware,KiCad,Pcbnew,(5.1.5)-3*
G04 #@! TF.CreationDate,2020-06-06T22:21:36-05:00*
G04 #@! TF.ProjectId,MacroPad,4d616372-6f50-4616-942e-6b696361645f,rev?*
G04 #@! TF.SameCoordinates,Original*
G04 #@! TF.FileFunction,Soldermask,Bot*
G04 #@! TF.FilePolarity,Negative*
%FSLAX46Y46*%
G04 Gerber Fmt 4.6, Leading zero omitted, Abs format (unit mm)*
G04 Created by KiCad (PCBNEW (5.1.5)-3) date 2020-06-06 22:21:36*
%MOMM*%
%LPD*%
G04 APERTURE LIST*
%ADD10C,0.100000*%
G04 APERTURE END LIST*
D10*
G36*
X192251674Y-107584465D02*
G01*
X192289367Y-107595899D01*
X192324103Y-107614466D01*
X192354548Y-107639452D01*
X192379534Y-107669897D01*
X192398101Y-107704633D01*
X192409535Y-107742326D01*
X192414000Y-107787661D01*
X192414000Y-108874339D01*
X192409535Y-108919674D01*
X192398101Y-108957367D01*
X192379534Y-108992103D01*
X192354548Y-109022548D01*
X192324103Y-109047534D01*
X192289367Y-109066101D01*
X192251674Y-109077535D01*
X192206339Y-109082000D01*
X191369661Y-109082000D01*
X191324326Y-109077535D01*
X191286633Y-109066101D01*
X191251897Y-109047534D01*
X191221452Y-109022548D01*
X191196466Y-108992103D01*
X191177899Y-108957367D01*
X191166465Y-108919674D01*
X191162000Y-108874339D01*
X191162000Y-107787661D01*
X191166465Y-107742326D01*
X191177899Y-107704633D01*
X191196466Y-107669897D01*
X191221452Y-107639452D01*
X191251897Y-107614466D01*
X191286633Y-107595899D01*
X191324326Y-107584465D01*
X191369661Y-107580000D01*
X192206339Y-107580000D01*
X192251674Y-107584465D01*
G37*
G36*
X190201674Y-107584465D02*
G01*
X190239367Y-107595899D01*
X190274103Y-107614466D01*
X190304548Y-107639452D01*
X190329534Y-107669897D01*
X190348101Y-107704633D01*
X190359535Y-107742326D01*
X190364000Y-107787661D01*
X190364000Y-108874339D01*
X190359535Y-108919674D01*
X190348101Y-108957367D01*
X190329534Y-108992103D01*
X190304548Y-109022548D01*
X190274103Y-109047534D01*
X190239367Y-109066101D01*
X190201674Y-109077535D01*
X190156339Y-109082000D01*
X189319661Y-109082000D01*
X189274326Y-109077535D01*
X189236633Y-109066101D01*
X189201897Y-109047534D01*
X189171452Y-109022548D01*
X189146466Y-108992103D01*
X189127899Y-108957367D01*
X189116465Y-108919674D01*
X189112000Y-108874339D01*
X189112000Y-107787661D01*
X189116465Y-107742326D01*
X189127899Y-107704633D01*
X189146466Y-107669897D01*
X189171452Y-107639452D01*
X189201897Y-107614466D01*
X189236633Y-107595899D01*
X189274326Y-107584465D01*
X189319661Y-107580000D01*
X190156339Y-107580000D01*
X190201674Y-107584465D01*
G37*
G36*
X90758674Y-107092465D02*
G01*
X90796367Y-107103899D01*
X90831103Y-107122466D01*
X90861548Y-107147452D01*
X90886534Y-107177897D01*
X90905101Y-107212633D01*
X90916535Y-107250326D01*
X90921000Y-107295661D01*
X90921000Y-108132339D01*
X90916535Y-108177674D01*
X90905101Y-108215367D01*
X90886534Y-108250103D01*
X90861548Y-108280548D01*
X90831103Y-108305534D01*
X90796367Y-108324101D01*
X90758674Y-108335535D01*
X90713339Y-108340000D01*
X89626661Y-108340000D01*
X89581326Y-108335535D01*
X89543633Y-108324101D01*
X89508897Y-108305534D01*
X89478452Y-108280548D01*
X89453466Y-108250103D01*
X89434899Y-108215367D01*
X89423465Y-108177674D01*
X89419000Y-108132339D01*
X89419000Y-107295661D01*
X89423465Y-107250326D01*
X89434899Y-107212633D01*
X89453466Y-107177897D01*
X89478452Y-107147452D01*
X89508897Y-107122466D01*
X89543633Y-107103899D01*
X89581326Y-107092465D01*
X89626661Y-107088000D01*
X90713339Y-107088000D01*
X90758674Y-107092465D01*
G37*
G36*
X102569674Y-106838465D02*
G01*
X102607367Y-106849899D01*
X102642103Y-106868466D01*
X102672548Y-106893452D01*
X102697534Y-106923897D01*
X102716101Y-106958633D01*
X102727535Y-106996326D01*
X102732000Y-107041661D01*
X102732000Y-107878339D01*
X102727535Y-107923674D01*
X102716101Y-107961367D01*
X102697534Y-107996103D01*
X102672548Y-108026548D01*
X102642103Y-108051534D01*
X102607367Y-108070101D01*
X102569674Y-108081535D01*
X102524339Y-108086000D01*
X101437661Y-108086000D01*
X101392326Y-108081535D01*
X101354633Y-108070101D01*
X101319897Y-108051534D01*
X101289452Y-108026548D01*
X101264466Y-107996103D01*
X101245899Y-107961367D01*
X101234465Y-107923674D01*
X101230000Y-107878339D01*
X101230000Y-107041661D01*
X101234465Y-106996326D01*
X101245899Y-106958633D01*
X101264466Y-106923897D01*
X101289452Y-106893452D01*
X101319897Y-106868466D01*
X101354633Y-106849899D01*
X101392326Y-106838465D01*
X101437661Y-106834000D01*
X102524339Y-106834000D01*
X102569674Y-106838465D01*
G37*
G36*
X105347674Y-106568465D02*
G01*
X105385367Y-106579899D01*
X105420103Y-106598466D01*
X105450548Y-106623452D01*
X105475534Y-106653897D01*
X105494101Y-106688633D01*
X105505535Y-106726326D01*
X105510000Y-106771661D01*
X105510000Y-107858339D01*
X105505535Y-107903674D01*
X105494101Y-107941367D01*
X105475534Y-107976103D01*
X105450548Y-108006548D01*
X105420103Y-108031534D01*
X105385367Y-108050101D01*
X105347674Y-108061535D01*
X105302339Y-108066000D01*
X104465661Y-108066000D01*
X104420326Y-108061535D01*
X104382633Y-108050101D01*
X104347897Y-108031534D01*
X104317452Y-108006548D01*
X104292466Y-107976103D01*
X104273899Y-107941367D01*
X104262465Y-107903674D01*
X104258000Y-107858339D01*
X104258000Y-106771661D01*
X104262465Y-106726326D01*
X104273899Y-106688633D01*
X104292466Y-106653897D01*
X104317452Y-106623452D01*
X104347897Y-106598466D01*
X104382633Y-106579899D01*
X104420326Y-106568465D01*
X104465661Y-106564000D01*
X105302339Y-106564000D01*
X105347674Y-106568465D01*
G37*
G36*
X107397674Y-106568465D02*
G01*
X107435367Y-106579899D01*
X107470103Y-106598466D01*
X107500548Y-106623452D01*
X107525534Y-106653897D01*
X107544101Y-106688633D01*
X107555535Y-106726326D01*
X107560000Y-106771661D01*
X107560000Y-107858339D01*
X107555535Y-107903674D01*
X107544101Y-107941367D01*
X107525534Y-107976103D01*
X107500548Y-108006548D01*
X107470103Y-108031534D01*
X107435367Y-108050101D01*
X107397674Y-108061535D01*
X107352339Y-108066000D01*
X106515661Y-108066000D01*
X106470326Y-108061535D01*
X106432633Y-108050101D01*
X106397897Y-108031534D01*
X106367452Y-108006548D01*
X106342466Y-107976103D01*
X106323899Y-107941367D01*
X106312465Y-107903674D01*
X106308000Y-107858339D01*
X106308000Y-106771661D01*
X106312465Y-106726326D01*
X106323899Y-106688633D01*
X106342466Y-106653897D01*
X106367452Y-106623452D01*
X106397897Y-106598466D01*
X106432633Y-106579899D01*
X106470326Y-106568465D01*
X106515661Y-106564000D01*
X107352339Y-106564000D01*
X107397674Y-106568465D01*
G37*
G36*
X198438674Y-106409715D02*
G01*
X198476367Y-106421149D01*
X198511103Y-106439716D01*
X198541548Y-106464702D01*
X198566534Y-106495147D01*
X198585101Y-106529883D01*
X198596535Y-106567576D01*
X198601000Y-106612911D01*
X198601000Y-107699589D01*
X198596535Y-107744924D01*
X198585101Y-107782617D01*
X198566534Y-107817353D01*
X198541548Y-107847798D01*
X198511103Y-107872784D01*
X198476367Y-107891351D01*
X198438674Y-107902785D01*
X198393339Y-107907250D01*
X197556661Y-107907250D01*
X197511326Y-107902785D01*
X197473633Y-107891351D01*
X197438897Y-107872784D01*
X197408452Y-107847798D01*
X197383466Y-107817353D01*
X197364899Y-107782617D01*
X197353465Y-107744924D01*
X197349000Y-107699589D01*
X197349000Y-106612911D01*
X197353465Y-106567576D01*
X197364899Y-106529883D01*
X197383466Y-106495147D01*
X197408452Y-106464702D01*
X197438897Y-106439716D01*
X197473633Y-106421149D01*
X197511326Y-106409715D01*
X197556661Y-106405250D01*
X198393339Y-106405250D01*
X198438674Y-106409715D01*
G37*
G36*
X200488674Y-106409715D02*
G01*
X200526367Y-106421149D01*
X200561103Y-106439716D01*
X200591548Y-106464702D01*
X200616534Y-106495147D01*
X200635101Y-106529883D01*
X200646535Y-106567576D01*
X200651000Y-106612911D01*
X200651000Y-107699589D01*
X200646535Y-107744924D01*
X200635101Y-107782617D01*
X200616534Y-107817353D01*
X200591548Y-107847798D01*
X200561103Y-107872784D01*
X200526367Y-107891351D01*
X200488674Y-107902785D01*
X200443339Y-107907250D01*
X199606661Y-107907250D01*
X199561326Y-107902785D01*
X199523633Y-107891351D01*
X199488897Y-107872784D01*
X199458452Y-107847798D01*
X199433466Y-107817353D01*
X199414899Y-107782617D01*
X199403465Y-107744924D01*
X199399000Y-107699589D01*
X199399000Y-106612911D01*
X199403465Y-106567576D01*
X199414899Y-106529883D01*
X199433466Y-106495147D01*
X199458452Y-106464702D01*
X199488897Y-106439716D01*
X199523633Y-106421149D01*
X199561326Y-106409715D01*
X199606661Y-106405250D01*
X200443339Y-106405250D01*
X200488674Y-106409715D01*
G37*
G36*
X99394674Y-106321465D02*
G01*
X99432367Y-106332899D01*
X99467103Y-106351466D01*
X99497548Y-106376452D01*
X99522534Y-106406897D01*
X99541101Y-106441633D01*
X99552535Y-106479326D01*
X99557000Y-106524661D01*
X99557000Y-107361339D01*
X99552535Y-107406674D01*
X99541101Y-107444367D01*
X99522534Y-107479103D01*
X99497548Y-107509548D01*
X99467103Y-107534534D01*
X99432367Y-107553101D01*
X99394674Y-107564535D01*
X99349339Y-107569000D01*
X98262661Y-107569000D01*
X98217326Y-107564535D01*
X98179633Y-107553101D01*
X98144897Y-107534534D01*
X98114452Y-107509548D01*
X98089466Y-107479103D01*
X98070899Y-107444367D01*
X98059465Y-107406674D01*
X98055000Y-107361339D01*
X98055000Y-106524661D01*
X98059465Y-106479326D01*
X98070899Y-106441633D01*
X98089466Y-106406897D01*
X98114452Y-106376452D01*
X98144897Y-106351466D01*
X98179633Y-106332899D01*
X98217326Y-106321465D01*
X98262661Y-106317000D01*
X99349339Y-106317000D01*
X99394674Y-106321465D01*
G37*
G36*
X204301000Y-107226000D02*
G01*
X202399000Y-107226000D01*
X202399000Y-106024000D01*
X204301000Y-106024000D01*
X204301000Y-107226000D01*
G37*
G36*
X210501000Y-107226000D02*
G01*
X208599000Y-107226000D01*
X208599000Y-106024000D01*
X210501000Y-106024000D01*
X210501000Y-107226000D01*
G37*
G36*
X192251674Y-105552465D02*
G01*
X192289367Y-105563899D01*
X192324103Y-105582466D01*
X192354548Y-105607452D01*
X192379534Y-105637897D01*
X192398101Y-105672633D01*
X192409535Y-105710326D01*
X192414000Y-105755661D01*
X192414000Y-106842339D01*
X192409535Y-106887674D01*
X192398101Y-106925367D01*
X192379534Y-106960103D01*
X192354548Y-106990548D01*
X192324103Y-107015534D01*
X192289367Y-107034101D01*
X192251674Y-107045535D01*
X192206339Y-107050000D01*
X191369661Y-107050000D01*
X191324326Y-107045535D01*
X191286633Y-107034101D01*
X191251897Y-107015534D01*
X191221452Y-106990548D01*
X191196466Y-106960103D01*
X191177899Y-106925367D01*
X191166465Y-106887674D01*
X191162000Y-106842339D01*
X191162000Y-105755661D01*
X191166465Y-105710326D01*
X191177899Y-105672633D01*
X191196466Y-105637897D01*
X191221452Y-105607452D01*
X191251897Y-105582466D01*
X191286633Y-105563899D01*
X191324326Y-105552465D01*
X191369661Y-105548000D01*
X192206339Y-105548000D01*
X192251674Y-105552465D01*
G37*
G36*
X190201674Y-105552465D02*
G01*
X190239367Y-105563899D01*
X190274103Y-105582466D01*
X190304548Y-105607452D01*
X190329534Y-105637897D01*
X190348101Y-105672633D01*
X190359535Y-105710326D01*
X190364000Y-105755661D01*
X190364000Y-106842339D01*
X190359535Y-106887674D01*
X190348101Y-106925367D01*
X190329534Y-106960103D01*
X190304548Y-106990548D01*
X190274103Y-107015534D01*
X190239367Y-107034101D01*
X190201674Y-107045535D01*
X190156339Y-107050000D01*
X189319661Y-107050000D01*
X189274326Y-107045535D01*
X189236633Y-107034101D01*
X189201897Y-107015534D01*
X189171452Y-106990548D01*
X189146466Y-106960103D01*
X189127899Y-106925367D01*
X189116465Y-106887674D01*
X189112000Y-106842339D01*
X189112000Y-105755661D01*
X189116465Y-105710326D01*
X189127899Y-105672633D01*
X189146466Y-105637897D01*
X189171452Y-105607452D01*
X189201897Y-105582466D01*
X189236633Y-105563899D01*
X189274326Y-105552465D01*
X189319661Y-105548000D01*
X190156339Y-105548000D01*
X190201674Y-105552465D01*
G37*
G36*
X84269924Y-104822215D02*
G01*
X84307617Y-104833649D01*
X84342353Y-104852216D01*
X84372798Y-104877202D01*
X84397784Y-104907647D01*
X84416351Y-104942383D01*
X84427785Y-104980076D01*
X84432250Y-105025411D01*
X84432250Y-106112089D01*
X84427785Y-106157424D01*
X84416351Y-106195117D01*
X84397784Y-106229853D01*
X84372798Y-106260298D01*
X84342353Y-106285284D01*
X84307617Y-106303851D01*
X84269924Y-106315285D01*
X84224589Y-106319750D01*
X83387911Y-106319750D01*
X83342576Y-106315285D01*
X83304883Y-106303851D01*
X83270147Y-106285284D01*
X83239702Y-106260298D01*
X83214716Y-106229853D01*
X83196149Y-106195117D01*
X83184715Y-106157424D01*
X83180250Y-106112089D01*
X83180250Y-105025411D01*
X83184715Y-104980076D01*
X83196149Y-104942383D01*
X83214716Y-104907647D01*
X83239702Y-104877202D01*
X83270147Y-104852216D01*
X83304883Y-104833649D01*
X83342576Y-104822215D01*
X83387911Y-104817750D01*
X84224589Y-104817750D01*
X84269924Y-104822215D01*
G37*
G36*
X82219924Y-104822215D02*
G01*
X82257617Y-104833649D01*
X82292353Y-104852216D01*
X82322798Y-104877202D01*
X82347784Y-104907647D01*
X82366351Y-104942383D01*
X82377785Y-104980076D01*
X82382250Y-105025411D01*
X82382250Y-106112089D01*
X82377785Y-106157424D01*
X82366351Y-106195117D01*
X82347784Y-106229853D01*
X82322798Y-106260298D01*
X82292353Y-106285284D01*
X82257617Y-106303851D01*
X82219924Y-106315285D01*
X82174589Y-106319750D01*
X81337911Y-106319750D01*
X81292576Y-106315285D01*
X81254883Y-106303851D01*
X81220147Y-106285284D01*
X81189702Y-106260298D01*
X81164716Y-106229853D01*
X81146149Y-106195117D01*
X81134715Y-106157424D01*
X81130250Y-106112089D01*
X81130250Y-105025411D01*
X81134715Y-104980076D01*
X81146149Y-104942383D01*
X81164716Y-104907647D01*
X81189702Y-104877202D01*
X81220147Y-104852216D01*
X81254883Y-104833649D01*
X81292576Y-104822215D01*
X81337911Y-104817750D01*
X82174589Y-104817750D01*
X82219924Y-104822215D01*
G37*
G36*
X90758674Y-105042465D02*
G01*
X90796367Y-105053899D01*
X90831103Y-105072466D01*
X90861548Y-105097452D01*
X90886534Y-105127897D01*
X90905101Y-105162633D01*
X90916535Y-105200326D01*
X90921000Y-105245661D01*
X90921000Y-106082339D01*
X90916535Y-106127674D01*
X90905101Y-106165367D01*
X90886534Y-106200103D01*
X90861548Y-106230548D01*
X90831103Y-106255534D01*
X90796367Y-106274101D01*
X90758674Y-106285535D01*
X90713339Y-106290000D01*
X89626661Y-106290000D01*
X89581326Y-106285535D01*
X89543633Y-106274101D01*
X89508897Y-106255534D01*
X89478452Y-106230548D01*
X89453466Y-106200103D01*
X89434899Y-106165367D01*
X89423465Y-106127674D01*
X89419000Y-106082339D01*
X89419000Y-105245661D01*
X89423465Y-105200326D01*
X89434899Y-105162633D01*
X89453466Y-105127897D01*
X89478452Y-105097452D01*
X89508897Y-105072466D01*
X89543633Y-105053899D01*
X89581326Y-105042465D01*
X89626661Y-105038000D01*
X90713339Y-105038000D01*
X90758674Y-105042465D01*
G37*
G36*
X102569674Y-104788465D02*
G01*
X102607367Y-104799899D01*
X102642103Y-104818466D01*
X102672548Y-104843452D01*
X102697534Y-104873897D01*
X102716101Y-104908633D01*
X102727535Y-104946326D01*
X102732000Y-104991661D01*
X102732000Y-105828339D01*
X102727535Y-105873674D01*
X102716101Y-105911367D01*
X102697534Y-105946103D01*
X102672548Y-105976548D01*
X102642103Y-106001534D01*
X102607367Y-106020101D01*
X102569674Y-106031535D01*
X102524339Y-106036000D01*
X101437661Y-106036000D01*
X101392326Y-106031535D01*
X101354633Y-106020101D01*
X101319897Y-106001534D01*
X101289452Y-105976548D01*
X101264466Y-105946103D01*
X101245899Y-105911367D01*
X101234465Y-105873674D01*
X101230000Y-105828339D01*
X101230000Y-104991661D01*
X101234465Y-104946326D01*
X101245899Y-104908633D01*
X101264466Y-104873897D01*
X101289452Y-104843452D01*
X101319897Y-104818466D01*
X101354633Y-104799899D01*
X101392326Y-104788465D01*
X101437661Y-104784000D01*
X102524339Y-104784000D01*
X102569674Y-104788465D01*
G37*
G36*
X99394674Y-104271465D02*
G01*
X99432367Y-104282899D01*
X99467103Y-104301466D01*
X99497548Y-104326452D01*
X99522534Y-104356897D01*
X99541101Y-104391633D01*
X99552535Y-104429326D01*
X99557000Y-104474661D01*
X99557000Y-105311339D01*
X99552535Y-105356674D01*
X99541101Y-105394367D01*
X99522534Y-105429103D01*
X99497548Y-105459548D01*
X99467103Y-105484534D01*
X99432367Y-105503101D01*
X99394674Y-105514535D01*
X99349339Y-105519000D01*
X98262661Y-105519000D01*
X98217326Y-105514535D01*
X98179633Y-105503101D01*
X98144897Y-105484534D01*
X98114452Y-105459548D01*
X98089466Y-105429103D01*
X98070899Y-105394367D01*
X98059465Y-105356674D01*
X98055000Y-105311339D01*
X98055000Y-104474661D01*
X98059465Y-104429326D01*
X98070899Y-104391633D01*
X98089466Y-104356897D01*
X98114452Y-104326452D01*
X98144897Y-104301466D01*
X98179633Y-104282899D01*
X98217326Y-104271465D01*
X98262661Y-104267000D01*
X99349339Y-104267000D01*
X99394674Y-104271465D01*
G37*
G36*
X117101000Y-104401000D02*
G01*
X113799000Y-104401000D01*
X113799000Y-102299000D01*
X117101000Y-102299000D01*
X117101000Y-104401000D01*
G37*
G36*
X94019750Y-104132250D02*
G01*
X85367750Y-104132250D01*
X85367750Y-102530250D01*
X94019750Y-102530250D01*
X94019750Y-104132250D01*
G37*
G36*
X77788674Y-102440965D02*
G01*
X77826367Y-102452399D01*
X77861103Y-102470966D01*
X77891548Y-102495952D01*
X77916534Y-102526397D01*
X77935101Y-102561133D01*
X77946535Y-102598826D01*
X77951000Y-102644161D01*
X77951000Y-103730839D01*
X77946535Y-103776174D01*
X77935101Y-103813867D01*
X77916534Y-103848603D01*
X77891548Y-103879048D01*
X77861103Y-103904034D01*
X77826367Y-103922601D01*
X77788674Y-103934035D01*
X77743339Y-103938500D01*
X76906661Y-103938500D01*
X76861326Y-103934035D01*
X76823633Y-103922601D01*
X76788897Y-103904034D01*
X76758452Y-103879048D01*
X76733466Y-103848603D01*
X76714899Y-103813867D01*
X76703465Y-103776174D01*
X76699000Y-103730839D01*
X76699000Y-102644161D01*
X76703465Y-102598826D01*
X76714899Y-102561133D01*
X76733466Y-102526397D01*
X76758452Y-102495952D01*
X76788897Y-102470966D01*
X76823633Y-102452399D01*
X76861326Y-102440965D01*
X76906661Y-102436500D01*
X77743339Y-102436500D01*
X77788674Y-102440965D01*
G37*
G36*
X79838674Y-102440965D02*
G01*
X79876367Y-102452399D01*
X79911103Y-102470966D01*
X79941548Y-102495952D01*
X79966534Y-102526397D01*
X79985101Y-102561133D01*
X79996535Y-102598826D01*
X80001000Y-102644161D01*
X80001000Y-103730839D01*
X79996535Y-103776174D01*
X79985101Y-103813867D01*
X79966534Y-103848603D01*
X79941548Y-103879048D01*
X79911103Y-103904034D01*
X79876367Y-103922601D01*
X79838674Y-103934035D01*
X79793339Y-103938500D01*
X78956661Y-103938500D01*
X78911326Y-103934035D01*
X78873633Y-103922601D01*
X78838897Y-103904034D01*
X78808452Y-103879048D01*
X78783466Y-103848603D01*
X78764899Y-103813867D01*
X78753465Y-103776174D01*
X78749000Y-103730839D01*
X78749000Y-102644161D01*
X78753465Y-102598826D01*
X78764899Y-102561133D01*
X78783466Y-102526397D01*
X78808452Y-102495952D01*
X78838897Y-102470966D01*
X78873633Y-102452399D01*
X78911326Y-102440965D01*
X78956661Y-102436500D01*
X79793339Y-102436500D01*
X79838674Y-102440965D01*
G37*
G36*
X104730674Y-102377465D02*
G01*
X104768367Y-102388899D01*
X104803103Y-102407466D01*
X104833548Y-102432452D01*
X104858534Y-102462897D01*
X104877101Y-102497633D01*
X104888535Y-102535326D01*
X104893000Y-102580661D01*
X104893000Y-103667339D01*
X104888535Y-103712674D01*
X104877101Y-103750367D01*
X104858534Y-103785103D01*
X104833548Y-103815548D01*
X104803103Y-103840534D01*
X104768367Y-103859101D01*
X104730674Y-103870535D01*
X104685339Y-103875000D01*
X103848661Y-103875000D01*
X103803326Y-103870535D01*
X103765633Y-103859101D01*
X103730897Y-103840534D01*
X103700452Y-103815548D01*
X103675466Y-103785103D01*
X103656899Y-103750367D01*
X103645465Y-103712674D01*
X103641000Y-103667339D01*
X103641000Y-102580661D01*
X103645465Y-102535326D01*
X103656899Y-102497633D01*
X103675466Y-102462897D01*
X103700452Y-102432452D01*
X103730897Y-102407466D01*
X103765633Y-102388899D01*
X103803326Y-102377465D01*
X103848661Y-102373000D01*
X104685339Y-102373000D01*
X104730674Y-102377465D01*
G37*
G36*
X102680674Y-102377465D02*
G01*
X102718367Y-102388899D01*
X102753103Y-102407466D01*
X102783548Y-102432452D01*
X102808534Y-102462897D01*
X102827101Y-102497633D01*
X102838535Y-102535326D01*
X102843000Y-102580661D01*
X102843000Y-103667339D01*
X102838535Y-103712674D01*
X102827101Y-103750367D01*
X102808534Y-103785103D01*
X102783548Y-103815548D01*
X102753103Y-103840534D01*
X102718367Y-103859101D01*
X102680674Y-103870535D01*
X102635339Y-103875000D01*
X101798661Y-103875000D01*
X101753326Y-103870535D01*
X101715633Y-103859101D01*
X101680897Y-103840534D01*
X101650452Y-103815548D01*
X101625466Y-103785103D01*
X101606899Y-103750367D01*
X101595465Y-103712674D01*
X101591000Y-103667339D01*
X101591000Y-102580661D01*
X101595465Y-102535326D01*
X101606899Y-102497633D01*
X101625466Y-102462897D01*
X101650452Y-102432452D01*
X101680897Y-102407466D01*
X101715633Y-102388899D01*
X101753326Y-102377465D01*
X101798661Y-102373000D01*
X102635339Y-102373000D01*
X102680674Y-102377465D01*
G37*
G36*
X204301000Y-103526000D02*
G01*
X202399000Y-103526000D01*
X202399000Y-102324000D01*
X204301000Y-102324000D01*
X204301000Y-103526000D01*
G37*
G36*
X210501000Y-103526000D02*
G01*
X208599000Y-103526000D01*
X208599000Y-102324000D01*
X210501000Y-102324000D01*
X210501000Y-103526000D01*
G37*
G36*
X99013674Y-101772215D02*
G01*
X99051367Y-101783649D01*
X99086103Y-101802216D01*
X99116548Y-101827202D01*
X99141534Y-101857647D01*
X99160101Y-101892383D01*
X99171535Y-101930076D01*
X99176000Y-101975411D01*
X99176000Y-102812089D01*
X99171535Y-102857424D01*
X99160101Y-102895117D01*
X99141534Y-102929853D01*
X99116548Y-102960298D01*
X99086103Y-102985284D01*
X99051367Y-103003851D01*
X99013674Y-103015285D01*
X98968339Y-103019750D01*
X97881661Y-103019750D01*
X97836326Y-103015285D01*
X97798633Y-103003851D01*
X97763897Y-102985284D01*
X97733452Y-102960298D01*
X97708466Y-102929853D01*
X97689899Y-102895117D01*
X97678465Y-102857424D01*
X97674000Y-102812089D01*
X97674000Y-101975411D01*
X97678465Y-101930076D01*
X97689899Y-101892383D01*
X97708466Y-101857647D01*
X97733452Y-101827202D01*
X97763897Y-101802216D01*
X97798633Y-101783649D01*
X97836326Y-101772215D01*
X97881661Y-101767750D01*
X98968339Y-101767750D01*
X99013674Y-101772215D01*
G37*
G36*
X96194750Y-101957250D02*
G01*
X94592750Y-101957250D01*
X94592750Y-93305250D01*
X96194750Y-93305250D01*
X96194750Y-101957250D01*
G37*
G36*
X84794750Y-101957250D02*
G01*
X83192750Y-101957250D01*
X83192750Y-93305250D01*
X84794750Y-93305250D01*
X84794750Y-101957250D01*
G37*
G36*
X122756564Y-99239389D02*
G01*
X122947833Y-99318615D01*
X122947835Y-99318616D01*
X123119973Y-99433635D01*
X123266365Y-99580027D01*
X123358389Y-99717750D01*
X123381385Y-99752167D01*
X123460611Y-99943436D01*
X123501000Y-100146484D01*
X123501000Y-100353516D01*
X123460611Y-100556564D01*
X123381385Y-100747833D01*
X123381384Y-100747835D01*
X123266365Y-100919973D01*
X123119973Y-101066365D01*
X122947835Y-101181384D01*
X122947834Y-101181385D01*
X122947833Y-101181385D01*
X122756564Y-101260611D01*
X122553516Y-101301000D01*
X122346484Y-101301000D01*
X122143436Y-101260611D01*
X121952167Y-101181385D01*
X121952166Y-101181385D01*
X121952165Y-101181384D01*
X121780027Y-101066365D01*
X121633635Y-100919973D01*
X121518616Y-100747835D01*
X121518615Y-100747833D01*
X121439389Y-100556564D01*
X121399000Y-100353516D01*
X121399000Y-100146484D01*
X121439389Y-99943436D01*
X121518615Y-99752167D01*
X121541612Y-99717750D01*
X121633635Y-99580027D01*
X121780027Y-99433635D01*
X121952165Y-99318616D01*
X121952167Y-99318615D01*
X122143436Y-99239389D01*
X122346484Y-99199000D01*
X122553516Y-99199000D01*
X122756564Y-99239389D01*
G37*
G36*
X108256564Y-99239389D02*
G01*
X108447833Y-99318615D01*
X108447835Y-99318616D01*
X108619973Y-99433635D01*
X108766365Y-99580027D01*
X108858389Y-99717750D01*
X108881385Y-99752167D01*
X108960611Y-99943436D01*
X109001000Y-100146484D01*
X109001000Y-100353516D01*
X108960611Y-100556564D01*
X108881385Y-100747833D01*
X108881384Y-100747835D01*
X108766365Y-100919973D01*
X108619973Y-101066365D01*
X108447835Y-101181384D01*
X108447834Y-101181385D01*
X108447833Y-101181385D01*
X108256564Y-101260611D01*
X108053516Y-101301000D01*
X107846484Y-101301000D01*
X107643436Y-101260611D01*
X107452167Y-101181385D01*
X107452166Y-101181385D01*
X107452165Y-101181384D01*
X107280027Y-101066365D01*
X107133635Y-100919973D01*
X107018616Y-100747835D01*
X107018615Y-100747833D01*
X106939389Y-100556564D01*
X106899000Y-100353516D01*
X106899000Y-100146484D01*
X106939389Y-99943436D01*
X107018615Y-99752167D01*
X107041612Y-99717750D01*
X107133635Y-99580027D01*
X107280027Y-99433635D01*
X107452165Y-99318616D01*
X107452167Y-99318615D01*
X107643436Y-99239389D01*
X107846484Y-99199000D01*
X108053516Y-99199000D01*
X108256564Y-99239389D01*
G37*
G36*
X99013674Y-99722215D02*
G01*
X99051367Y-99733649D01*
X99086103Y-99752216D01*
X99116548Y-99777202D01*
X99141534Y-99807647D01*
X99160101Y-99842383D01*
X99171535Y-99880076D01*
X99176000Y-99925411D01*
X99176000Y-100762089D01*
X99171535Y-100807424D01*
X99160101Y-100845117D01*
X99141534Y-100879853D01*
X99116548Y-100910298D01*
X99086103Y-100935284D01*
X99051367Y-100953851D01*
X99013674Y-100965285D01*
X98968339Y-100969750D01*
X97881661Y-100969750D01*
X97836326Y-100965285D01*
X97798633Y-100953851D01*
X97763897Y-100935284D01*
X97733452Y-100910298D01*
X97708466Y-100879853D01*
X97689899Y-100845117D01*
X97678465Y-100807424D01*
X97674000Y-100762089D01*
X97674000Y-99925411D01*
X97678465Y-99880076D01*
X97689899Y-99842383D01*
X97708466Y-99807647D01*
X97733452Y-99777202D01*
X97763897Y-99752216D01*
X97798633Y-99733649D01*
X97836326Y-99722215D01*
X97881661Y-99717750D01*
X98968339Y-99717750D01*
X99013674Y-99722215D01*
G37*
G36*
X80244750Y-100838500D02*
G01*
X78342750Y-100838500D01*
X78342750Y-98636500D01*
X80244750Y-98636500D01*
X80244750Y-100838500D01*
G37*
G36*
X77944750Y-100838500D02*
G01*
X76042750Y-100838500D01*
X76042750Y-98636500D01*
X77944750Y-98636500D01*
X77944750Y-100838500D01*
G37*
G36*
X172840224Y-95664934D02*
G01*
X173040364Y-95747835D01*
X173212373Y-95819083D01*
X173547298Y-96042873D01*
X173832127Y-96327702D01*
X174055917Y-96662627D01*
X174088312Y-96740836D01*
X174210066Y-97034776D01*
X174288650Y-97429844D01*
X174288650Y-97832656D01*
X174210066Y-98227724D01*
X174159201Y-98350522D01*
X174055917Y-98599873D01*
X173832127Y-98934798D01*
X173547298Y-99219627D01*
X173212373Y-99443417D01*
X173058224Y-99507267D01*
X172840224Y-99597566D01*
X172445156Y-99676150D01*
X172042344Y-99676150D01*
X171647276Y-99597566D01*
X171429276Y-99507267D01*
X171275127Y-99443417D01*
X170940202Y-99219627D01*
X170655373Y-98934798D01*
X170431583Y-98599873D01*
X170328299Y-98350522D01*
X170277434Y-98227724D01*
X170198850Y-97832656D01*
X170198850Y-97429844D01*
X170277434Y-97034776D01*
X170399188Y-96740836D01*
X170431583Y-96662627D01*
X170655373Y-96327702D01*
X170940202Y-96042873D01*
X171275127Y-95819083D01*
X171447136Y-95747835D01*
X171647276Y-95664934D01*
X172042344Y-95586350D01*
X172445156Y-95586350D01*
X172840224Y-95664934D01*
G37*
G36*
X134740224Y-95664934D02*
G01*
X134940364Y-95747835D01*
X135112373Y-95819083D01*
X135447298Y-96042873D01*
X135732127Y-96327702D01*
X135955917Y-96662627D01*
X135988312Y-96740836D01*
X136110066Y-97034776D01*
X136188650Y-97429844D01*
X136188650Y-97832656D01*
X136110066Y-98227724D01*
X136059201Y-98350522D01*
X135955917Y-98599873D01*
X135732127Y-98934798D01*
X135447298Y-99219627D01*
X135112373Y-99443417D01*
X134958224Y-99507267D01*
X134740224Y-99597566D01*
X134345156Y-99676150D01*
X133942344Y-99676150D01*
X133547276Y-99597566D01*
X133329276Y-99507267D01*
X133175127Y-99443417D01*
X132840202Y-99219627D01*
X132555373Y-98934798D01*
X132331583Y-98599873D01*
X132228299Y-98350522D01*
X132177434Y-98227724D01*
X132098850Y-97832656D01*
X132098850Y-97429844D01*
X132177434Y-97034776D01*
X132299188Y-96740836D01*
X132331583Y-96662627D01*
X132555373Y-96327702D01*
X132840202Y-96042873D01*
X133175127Y-95819083D01*
X133347136Y-95747835D01*
X133547276Y-95664934D01*
X133942344Y-95586350D01*
X134345156Y-95586350D01*
X134740224Y-95664934D01*
G37*
G36*
X191890224Y-95664934D02*
G01*
X192090364Y-95747835D01*
X192262373Y-95819083D01*
X192597298Y-96042873D01*
X192882127Y-96327702D01*
X193105917Y-96662627D01*
X193138312Y-96740836D01*
X193260066Y-97034776D01*
X193338650Y-97429844D01*
X193338650Y-97832656D01*
X193260066Y-98227724D01*
X193209201Y-98350522D01*
X193105917Y-98599873D01*
X192882127Y-98934798D01*
X192597298Y-99219627D01*
X192262373Y-99443417D01*
X192108224Y-99507267D01*
X191890224Y-99597566D01*
X191495156Y-99676150D01*
X191092344Y-99676150D01*
X190697276Y-99597566D01*
X190479276Y-99507267D01*
X190325127Y-99443417D01*
X189990202Y-99219627D01*
X189705373Y-98934798D01*
X189481583Y-98599873D01*
X189378299Y-98350522D01*
X189327434Y-98227724D01*
X189248850Y-97832656D01*
X189248850Y-97429844D01*
X189327434Y-97034776D01*
X189449188Y-96740836D01*
X189481583Y-96662627D01*
X189705373Y-96327702D01*
X189990202Y-96042873D01*
X190325127Y-95819083D01*
X190497136Y-95747835D01*
X190697276Y-95664934D01*
X191092344Y-95586350D01*
X191495156Y-95586350D01*
X191890224Y-95664934D01*
G37*
G36*
X153790224Y-95664934D02*
G01*
X153990364Y-95747835D01*
X154162373Y-95819083D01*
X154497298Y-96042873D01*
X154782127Y-96327702D01*
X155005917Y-96662627D01*
X155038312Y-96740836D01*
X155160066Y-97034776D01*
X155238650Y-97429844D01*
X155238650Y-97832656D01*
X155160066Y-98227724D01*
X155109201Y-98350522D01*
X155005917Y-98599873D01*
X154782127Y-98934798D01*
X154497298Y-99219627D01*
X154162373Y-99443417D01*
X154008224Y-99507267D01*
X153790224Y-99597566D01*
X153395156Y-99676150D01*
X152992344Y-99676150D01*
X152597276Y-99597566D01*
X152379276Y-99507267D01*
X152225127Y-99443417D01*
X151890202Y-99219627D01*
X151605373Y-98934798D01*
X151381583Y-98599873D01*
X151278299Y-98350522D01*
X151227434Y-98227724D01*
X151148850Y-97832656D01*
X151148850Y-97429844D01*
X151227434Y-97034776D01*
X151349188Y-96740836D01*
X151381583Y-96662627D01*
X151605373Y-96327702D01*
X151890202Y-96042873D01*
X152225127Y-95819083D01*
X152397136Y-95747835D01*
X152597276Y-95664934D01*
X152992344Y-95586350D01*
X153395156Y-95586350D01*
X153790224Y-95664934D01*
G37*
G36*
X108256564Y-96739389D02*
G01*
X108428577Y-96810639D01*
X108447835Y-96818616D01*
X108619973Y-96933635D01*
X108766365Y-97080027D01*
X108841601Y-97192625D01*
X108881385Y-97252167D01*
X108960611Y-97443436D01*
X109001000Y-97646484D01*
X109001000Y-97853516D01*
X108960611Y-98056564D01*
X108892276Y-98221540D01*
X108881384Y-98247835D01*
X108766365Y-98419973D01*
X108619973Y-98566365D01*
X108447835Y-98681384D01*
X108447834Y-98681385D01*
X108447833Y-98681385D01*
X108256564Y-98760611D01*
X108053516Y-98801000D01*
X107846484Y-98801000D01*
X107643436Y-98760611D01*
X107452167Y-98681385D01*
X107452166Y-98681385D01*
X107452165Y-98681384D01*
X107280027Y-98566365D01*
X107133635Y-98419973D01*
X107018616Y-98247835D01*
X107007724Y-98221540D01*
X106939389Y-98056564D01*
X106899000Y-97853516D01*
X106899000Y-97646484D01*
X106939389Y-97443436D01*
X107018615Y-97252167D01*
X107058400Y-97192625D01*
X107133635Y-97080027D01*
X107280027Y-96933635D01*
X107452165Y-96818616D01*
X107471423Y-96810639D01*
X107643436Y-96739389D01*
X107846484Y-96699000D01*
X108053516Y-96699000D01*
X108256564Y-96739389D01*
G37*
G36*
X139493854Y-96740835D02*
G01*
X139662376Y-96810639D01*
X139814041Y-96911978D01*
X139943022Y-97040959D01*
X140044361Y-97192624D01*
X140114165Y-97361146D01*
X140149750Y-97540047D01*
X140149750Y-97722453D01*
X140114165Y-97901354D01*
X140044361Y-98069876D01*
X139943022Y-98221541D01*
X139814041Y-98350522D01*
X139662376Y-98451861D01*
X139493854Y-98521665D01*
X139314953Y-98557250D01*
X139132547Y-98557250D01*
X138953646Y-98521665D01*
X138785124Y-98451861D01*
X138633459Y-98350522D01*
X138504478Y-98221541D01*
X138403139Y-98069876D01*
X138333335Y-97901354D01*
X138297750Y-97722453D01*
X138297750Y-97540047D01*
X138333335Y-97361146D01*
X138403139Y-97192624D01*
X138504478Y-97040959D01*
X138633459Y-96911978D01*
X138785124Y-96810639D01*
X138953646Y-96740835D01*
X139132547Y-96705250D01*
X139314953Y-96705250D01*
X139493854Y-96740835D01*
G37*
G36*
X196643854Y-96740835D02*
G01*
X196812376Y-96810639D01*
X196964041Y-96911978D01*
X197093022Y-97040959D01*
X197194361Y-97192624D01*
X197264165Y-97361146D01*
X197299750Y-97540047D01*
X197299750Y-97722453D01*
X197264165Y-97901354D01*
X197194361Y-98069876D01*
X197093022Y-98221541D01*
X196964041Y-98350522D01*
X196812376Y-98451861D01*
X196643854Y-98521665D01*
X196464953Y-98557250D01*
X196282547Y-98557250D01*
X196103646Y-98521665D01*
X195935124Y-98451861D01*
X195783459Y-98350522D01*
X195654478Y-98221541D01*
X195553139Y-98069876D01*
X195483335Y-97901354D01*
X195447750Y-97722453D01*
X195447750Y-97540047D01*
X195483335Y-97361146D01*
X195553139Y-97192624D01*
X195654478Y-97040959D01*
X195783459Y-96911978D01*
X195935124Y-96810639D01*
X196103646Y-96740835D01*
X196282547Y-96705250D01*
X196464953Y-96705250D01*
X196643854Y-96740835D01*
G37*
G36*
X186483854Y-96740835D02*
G01*
X186652376Y-96810639D01*
X186804041Y-96911978D01*
X186933022Y-97040959D01*
X187034361Y-97192624D01*
X187104165Y-97361146D01*
X187139750Y-97540047D01*
X187139750Y-97722453D01*
X187104165Y-97901354D01*
X187034361Y-98069876D01*
X186933022Y-98221541D01*
X186804041Y-98350522D01*
X186652376Y-98451861D01*
X186483854Y-98521665D01*
X186304953Y-98557250D01*
X186122547Y-98557250D01*
X185943646Y-98521665D01*
X185775124Y-98451861D01*
X185623459Y-98350522D01*
X185494478Y-98221541D01*
X185393139Y-98069876D01*
X185323335Y-97901354D01*
X185287750Y-97722453D01*
X185287750Y-97540047D01*
X185323335Y-97361146D01*
X185393139Y-97192624D01*
X185494478Y-97040959D01*
X185623459Y-96911978D01*
X185775124Y-96810639D01*
X185943646Y-96740835D01*
X186122547Y-96705250D01*
X186304953Y-96705250D01*
X186483854Y-96740835D01*
G37*
G36*
X177593854Y-96740835D02*
G01*
X177762376Y-96810639D01*
X177914041Y-96911978D01*
X178043022Y-97040959D01*
X178144361Y-97192624D01*
X178214165Y-97361146D01*
X178249750Y-97540047D01*
X178249750Y-97722453D01*
X178214165Y-97901354D01*
X178144361Y-98069876D01*
X178043022Y-98221541D01*
X177914041Y-98350522D01*
X177762376Y-98451861D01*
X177593854Y-98521665D01*
X177414953Y-98557250D01*
X177232547Y-98557250D01*
X177053646Y-98521665D01*
X176885124Y-98451861D01*
X176733459Y-98350522D01*
X176604478Y-98221541D01*
X176503139Y-98069876D01*
X176433335Y-97901354D01*
X176397750Y-97722453D01*
X176397750Y-97540047D01*
X176433335Y-97361146D01*
X176503139Y-97192624D01*
X176604478Y-97040959D01*
X176733459Y-96911978D01*
X176885124Y-96810639D01*
X177053646Y-96740835D01*
X177232547Y-96705250D01*
X177414953Y-96705250D01*
X177593854Y-96740835D01*
G37*
G36*
X148383854Y-96740835D02*
G01*
X148552376Y-96810639D01*
X148704041Y-96911978D01*
X148833022Y-97040959D01*
X148934361Y-97192624D01*
X149004165Y-97361146D01*
X149039750Y-97540047D01*
X149039750Y-97722453D01*
X149004165Y-97901354D01*
X148934361Y-98069876D01*
X148833022Y-98221541D01*
X148704041Y-98350522D01*
X148552376Y-98451861D01*
X148383854Y-98521665D01*
X148204953Y-98557250D01*
X148022547Y-98557250D01*
X147843646Y-98521665D01*
X147675124Y-98451861D01*
X147523459Y-98350522D01*
X147394478Y-98221541D01*
X147293139Y-98069876D01*
X147223335Y-97901354D01*
X147187750Y-97722453D01*
X147187750Y-97540047D01*
X147223335Y-97361146D01*
X147293139Y-97192624D01*
X147394478Y-97040959D01*
X147523459Y-96911978D01*
X147675124Y-96810639D01*
X147843646Y-96740835D01*
X148022547Y-96705250D01*
X148204953Y-96705250D01*
X148383854Y-96740835D01*
G37*
G36*
X129333854Y-96740835D02*
G01*
X129502376Y-96810639D01*
X129654041Y-96911978D01*
X129783022Y-97040959D01*
X129884361Y-97192624D01*
X129954165Y-97361146D01*
X129989750Y-97540047D01*
X129989750Y-97722453D01*
X129954165Y-97901354D01*
X129884361Y-98069876D01*
X129783022Y-98221541D01*
X129654041Y-98350522D01*
X129502376Y-98451861D01*
X129333854Y-98521665D01*
X129154953Y-98557250D01*
X128972547Y-98557250D01*
X128793646Y-98521665D01*
X128625124Y-98451861D01*
X128473459Y-98350522D01*
X128344478Y-98221541D01*
X128243139Y-98069876D01*
X128173335Y-97901354D01*
X128137750Y-97722453D01*
X128137750Y-97540047D01*
X128173335Y-97361146D01*
X128243139Y-97192624D01*
X128344478Y-97040959D01*
X128473459Y-96911978D01*
X128625124Y-96810639D01*
X128793646Y-96740835D01*
X128972547Y-96705250D01*
X129154953Y-96705250D01*
X129333854Y-96740835D01*
G37*
G36*
X158543854Y-96740835D02*
G01*
X158712376Y-96810639D01*
X158864041Y-96911978D01*
X158993022Y-97040959D01*
X159094361Y-97192624D01*
X159164165Y-97361146D01*
X159199750Y-97540047D01*
X159199750Y-97722453D01*
X159164165Y-97901354D01*
X159094361Y-98069876D01*
X158993022Y-98221541D01*
X158864041Y-98350522D01*
X158712376Y-98451861D01*
X158543854Y-98521665D01*
X158364953Y-98557250D01*
X158182547Y-98557250D01*
X158003646Y-98521665D01*
X157835124Y-98451861D01*
X157683459Y-98350522D01*
X157554478Y-98221541D01*
X157453139Y-98069876D01*
X157383335Y-97901354D01*
X157347750Y-97722453D01*
X157347750Y-97540047D01*
X157383335Y-97361146D01*
X157453139Y-97192624D01*
X157554478Y-97040959D01*
X157683459Y-96911978D01*
X157835124Y-96810639D01*
X158003646Y-96740835D01*
X158182547Y-96705250D01*
X158364953Y-96705250D01*
X158543854Y-96740835D01*
G37*
G36*
X167433854Y-96740835D02*
G01*
X167602376Y-96810639D01*
X167754041Y-96911978D01*
X167883022Y-97040959D01*
X167984361Y-97192624D01*
X168054165Y-97361146D01*
X168089750Y-97540047D01*
X168089750Y-97722453D01*
X168054165Y-97901354D01*
X167984361Y-98069876D01*
X167883022Y-98221541D01*
X167754041Y-98350522D01*
X167602376Y-98451861D01*
X167433854Y-98521665D01*
X167254953Y-98557250D01*
X167072547Y-98557250D01*
X166893646Y-98521665D01*
X166725124Y-98451861D01*
X166573459Y-98350522D01*
X166444478Y-98221541D01*
X166343139Y-98069876D01*
X166273335Y-97901354D01*
X166237750Y-97722453D01*
X166237750Y-97540047D01*
X166273335Y-97361146D01*
X166343139Y-97192624D01*
X166444478Y-97040959D01*
X166573459Y-96911978D01*
X166725124Y-96810639D01*
X166893646Y-96740835D01*
X167072547Y-96705250D01*
X167254953Y-96705250D01*
X167433854Y-96740835D01*
G37*
G36*
X80244750Y-97938500D02*
G01*
X78342750Y-97938500D01*
X78342750Y-95736500D01*
X80244750Y-95736500D01*
X80244750Y-97938500D01*
G37*
G36*
X77944750Y-97938500D02*
G01*
X76042750Y-97938500D01*
X76042750Y-95736500D01*
X77944750Y-95736500D01*
X77944750Y-97938500D01*
G37*
G36*
X210160443Y-95624269D02*
G01*
X210226627Y-95630787D01*
X210396466Y-95682307D01*
X210552991Y-95765972D01*
X210588729Y-95795302D01*
X210690186Y-95878564D01*
X210765870Y-95970787D01*
X210802778Y-96015759D01*
X210886443Y-96172284D01*
X210937963Y-96342123D01*
X210955359Y-96518750D01*
X210937963Y-96695377D01*
X210886443Y-96865216D01*
X210802778Y-97021741D01*
X210792081Y-97034775D01*
X210690186Y-97158936D01*
X210588729Y-97242198D01*
X210552991Y-97271528D01*
X210396466Y-97355193D01*
X210226627Y-97406713D01*
X210160442Y-97413232D01*
X210094260Y-97419750D01*
X209005740Y-97419750D01*
X208939558Y-97413232D01*
X208873373Y-97406713D01*
X208703534Y-97355193D01*
X208547009Y-97271528D01*
X208511271Y-97242198D01*
X208409814Y-97158936D01*
X208307919Y-97034775D01*
X208297222Y-97021741D01*
X208213557Y-96865216D01*
X208162037Y-96695377D01*
X208144641Y-96518750D01*
X208162037Y-96342123D01*
X208213557Y-96172284D01*
X208297222Y-96015759D01*
X208334130Y-95970787D01*
X208409814Y-95878564D01*
X208511271Y-95795302D01*
X208547009Y-95765972D01*
X208703534Y-95682307D01*
X208873373Y-95630787D01*
X208939557Y-95624269D01*
X209005740Y-95617750D01*
X210094260Y-95617750D01*
X210160443Y-95624269D01*
G37*
G36*
X205660443Y-95624269D02*
G01*
X205726627Y-95630787D01*
X205896466Y-95682307D01*
X206052991Y-95765972D01*
X206088729Y-95795302D01*
X206190186Y-95878564D01*
X206265870Y-95970787D01*
X206302778Y-96015759D01*
X206386443Y-96172284D01*
X206437963Y-96342123D01*
X206455359Y-96518750D01*
X206437963Y-96695377D01*
X206386443Y-96865216D01*
X206302778Y-97021741D01*
X206292081Y-97034775D01*
X206190186Y-97158936D01*
X206088729Y-97242198D01*
X206052991Y-97271528D01*
X205896466Y-97355193D01*
X205726627Y-97406713D01*
X205660442Y-97413232D01*
X205594260Y-97419750D01*
X204505740Y-97419750D01*
X204439558Y-97413232D01*
X204373373Y-97406713D01*
X204203534Y-97355193D01*
X204047009Y-97271528D01*
X204011271Y-97242198D01*
X203909814Y-97158936D01*
X203807919Y-97034775D01*
X203797222Y-97021741D01*
X203713557Y-96865216D01*
X203662037Y-96695377D01*
X203644641Y-96518750D01*
X203662037Y-96342123D01*
X203713557Y-96172284D01*
X203797222Y-96015759D01*
X203834130Y-95970787D01*
X203909814Y-95878564D01*
X204011271Y-95795302D01*
X204047009Y-95765972D01*
X204203534Y-95682307D01*
X204373373Y-95630787D01*
X204439557Y-95624269D01*
X204505740Y-95617750D01*
X205594260Y-95617750D01*
X205660443Y-95624269D01*
G37*
G36*
X143526000Y-96669750D02*
G01*
X142224000Y-96669750D01*
X142224000Y-95667750D01*
X143526000Y-95667750D01*
X143526000Y-96669750D01*
G37*
G36*
X161782250Y-96669750D02*
G01*
X160480250Y-96669750D01*
X160480250Y-95667750D01*
X161782250Y-95667750D01*
X161782250Y-96669750D01*
G37*
G36*
X181626000Y-96669750D02*
G01*
X180324000Y-96669750D01*
X180324000Y-95667750D01*
X181626000Y-95667750D01*
X181626000Y-96669750D01*
G37*
G36*
X109001000Y-96301000D02*
G01*
X106899000Y-96301000D01*
X106899000Y-94199000D01*
X109001000Y-94199000D01*
X109001000Y-96301000D01*
G37*
G36*
X122756564Y-94239389D02*
G01*
X122927370Y-94310139D01*
X122947835Y-94318616D01*
X123119973Y-94433635D01*
X123266365Y-94580027D01*
X123345681Y-94698731D01*
X123381385Y-94752167D01*
X123460611Y-94943436D01*
X123501000Y-95146484D01*
X123501000Y-95353516D01*
X123460611Y-95556564D01*
X123408526Y-95682308D01*
X123381384Y-95747835D01*
X123266365Y-95919973D01*
X123119973Y-96066365D01*
X122947835Y-96181384D01*
X122947834Y-96181385D01*
X122947833Y-96181385D01*
X122756564Y-96260611D01*
X122553516Y-96301000D01*
X122346484Y-96301000D01*
X122143436Y-96260611D01*
X121952167Y-96181385D01*
X121952166Y-96181385D01*
X121952165Y-96181384D01*
X121780027Y-96066365D01*
X121633635Y-95919973D01*
X121518616Y-95747835D01*
X121491474Y-95682308D01*
X121439389Y-95556564D01*
X121399000Y-95353516D01*
X121399000Y-95146484D01*
X121439389Y-94943436D01*
X121518615Y-94752167D01*
X121554320Y-94698731D01*
X121633635Y-94580027D01*
X121780027Y-94433635D01*
X121952165Y-94318616D01*
X121972630Y-94310139D01*
X122143436Y-94239389D01*
X122346484Y-94199000D01*
X122553516Y-94199000D01*
X122756564Y-94239389D01*
G37*
G36*
X169766955Y-92455131D02*
G01*
X169772395Y-92455250D01*
X169859578Y-92455250D01*
X169875847Y-92458486D01*
X169894706Y-92460765D01*
X169911282Y-92461496D01*
X169995973Y-92482260D01*
X170001268Y-92483434D01*
X170086777Y-92500443D01*
X170102112Y-92506795D01*
X170120151Y-92512705D01*
X170136271Y-92516657D01*
X170215254Y-92553530D01*
X170220244Y-92555727D01*
X170300795Y-92589092D01*
X170314591Y-92598310D01*
X170331143Y-92607632D01*
X170346176Y-92614650D01*
X170416444Y-92666221D01*
X170420942Y-92669372D01*
X170493406Y-92717791D01*
X170505133Y-92729518D01*
X170519559Y-92741898D01*
X170532929Y-92751711D01*
X170532930Y-92751712D01*
X170591771Y-92815983D01*
X170595579Y-92819964D01*
X170657209Y-92881594D01*
X170666424Y-92895385D01*
X170678146Y-92910328D01*
X170689355Y-92922571D01*
X170734549Y-92997124D01*
X170737496Y-93001751D01*
X170785908Y-93074205D01*
X170792255Y-93089527D01*
X170800842Y-93106481D01*
X170809441Y-93120667D01*
X170839228Y-93202618D01*
X170841202Y-93207698D01*
X170874557Y-93288223D01*
X170874557Y-93288224D01*
X170877791Y-93304483D01*
X170882908Y-93322792D01*
X170888575Y-93338384D01*
X170901805Y-93424595D01*
X170902751Y-93429963D01*
X170919750Y-93515423D01*
X170919750Y-93532002D01*
X170921194Y-93550942D01*
X170923713Y-93567354D01*
X170919870Y-93654499D01*
X170919750Y-93659939D01*
X170919750Y-93747075D01*
X170916516Y-93763333D01*
X170914238Y-93782191D01*
X170913506Y-93798781D01*
X170892738Y-93883487D01*
X170891562Y-93888787D01*
X170874557Y-93974277D01*
X170868207Y-93989607D01*
X170862299Y-94007643D01*
X170858345Y-94023770D01*
X170821461Y-94102776D01*
X170819261Y-94107773D01*
X170785908Y-94188295D01*
X170776694Y-94202085D01*
X170767372Y-94218637D01*
X170760352Y-94233674D01*
X170708761Y-94303970D01*
X170705616Y-94308460D01*
X170657211Y-94380904D01*
X170600210Y-94437905D01*
X170595561Y-94442813D01*
X170180634Y-94905250D01*
X169270473Y-95919626D01*
X169142429Y-96036852D01*
X169043380Y-96096896D01*
X168944333Y-96156939D01*
X168726616Y-96236073D01*
X168497645Y-96271211D01*
X168266220Y-96261004D01*
X168041231Y-96205843D01*
X167936477Y-96156939D01*
X167831329Y-96107852D01*
X167734588Y-96036852D01*
X167644573Y-95970789D01*
X167560140Y-95878564D01*
X167488148Y-95799929D01*
X167416845Y-95682307D01*
X167368061Y-95601833D01*
X167288927Y-95384116D01*
X167253789Y-95155145D01*
X167263996Y-94923720D01*
X167319157Y-94698731D01*
X167374574Y-94580027D01*
X167417148Y-94488830D01*
X167417150Y-94488827D01*
X167519864Y-94348872D01*
X168274995Y-93507277D01*
X168806537Y-92914871D01*
X168817431Y-92900839D01*
X168830289Y-92881596D01*
X168887323Y-92824562D01*
X168891973Y-92819653D01*
X168907028Y-92802874D01*
X168928451Y-92783261D01*
X168932432Y-92779453D01*
X168994096Y-92717789D01*
X169007893Y-92708570D01*
X169022852Y-92696835D01*
X169035071Y-92685648D01*
X169067135Y-92666211D01*
X169109580Y-92640481D01*
X169114171Y-92637558D01*
X169186705Y-92589092D01*
X169202050Y-92582736D01*
X169218998Y-92574151D01*
X169233166Y-92565562D01*
X169233167Y-92565562D01*
X169233168Y-92565561D01*
X169315062Y-92535795D01*
X169320160Y-92533813D01*
X169400723Y-92500443D01*
X169417002Y-92497205D01*
X169435292Y-92492094D01*
X169450885Y-92486427D01*
X169537050Y-92473204D01*
X169542413Y-92472259D01*
X169627923Y-92455250D01*
X169644516Y-92455250D01*
X169663459Y-92453805D01*
X169679856Y-92451289D01*
X169766955Y-92455131D01*
G37*
G36*
X188816955Y-92455131D02*
G01*
X188822395Y-92455250D01*
X188909578Y-92455250D01*
X188925847Y-92458486D01*
X188944706Y-92460765D01*
X188961282Y-92461496D01*
X189045973Y-92482260D01*
X189051268Y-92483434D01*
X189136777Y-92500443D01*
X189152112Y-92506795D01*
X189170151Y-92512705D01*
X189186271Y-92516657D01*
X189265254Y-92553530D01*
X189270244Y-92555727D01*
X189350795Y-92589092D01*
X189364591Y-92598310D01*
X189381143Y-92607632D01*
X189396176Y-92614650D01*
X189466444Y-92666221D01*
X189470942Y-92669372D01*
X189543406Y-92717791D01*
X189555133Y-92729518D01*
X189569559Y-92741898D01*
X189582929Y-92751711D01*
X189582930Y-92751712D01*
X189641771Y-92815983D01*
X189645579Y-92819964D01*
X189707209Y-92881594D01*
X189716424Y-92895385D01*
X189728146Y-92910328D01*
X189739355Y-92922571D01*
X189784549Y-92997124D01*
X189787496Y-93001751D01*
X189835908Y-93074205D01*
X189842255Y-93089527D01*
X189850842Y-93106481D01*
X189859441Y-93120667D01*
X189889228Y-93202618D01*
X189891202Y-93207698D01*
X189924557Y-93288223D01*
X189924557Y-93288224D01*
X189927791Y-93304483D01*
X189932908Y-93322792D01*
X189938575Y-93338384D01*
X189951805Y-93424595D01*
X189952751Y-93429963D01*
X189969750Y-93515423D01*
X189969750Y-93532002D01*
X189971194Y-93550942D01*
X189973713Y-93567354D01*
X189969870Y-93654499D01*
X189969750Y-93659939D01*
X189969750Y-93747075D01*
X189966516Y-93763333D01*
X189964238Y-93782191D01*
X189963506Y-93798781D01*
X189942738Y-93883487D01*
X189941562Y-93888787D01*
X189924557Y-93974277D01*
X189918207Y-93989607D01*
X189912299Y-94007643D01*
X189908345Y-94023770D01*
X189871461Y-94102776D01*
X189869261Y-94107773D01*
X189835908Y-94188295D01*
X189826694Y-94202085D01*
X189817372Y-94218637D01*
X189810352Y-94233674D01*
X189758761Y-94303970D01*
X189755616Y-94308460D01*
X189707211Y-94380904D01*
X189650210Y-94437905D01*
X189645561Y-94442813D01*
X189230634Y-94905250D01*
X188320473Y-95919626D01*
X188192429Y-96036852D01*
X188093380Y-96096896D01*
X187994333Y-96156939D01*
X187776616Y-96236073D01*
X187547645Y-96271211D01*
X187316220Y-96261004D01*
X187091231Y-96205843D01*
X186986477Y-96156939D01*
X186881329Y-96107852D01*
X186784588Y-96036852D01*
X186694573Y-95970789D01*
X186610140Y-95878564D01*
X186538148Y-95799929D01*
X186466845Y-95682307D01*
X186418061Y-95601833D01*
X186338927Y-95384116D01*
X186303789Y-95155145D01*
X186313996Y-94923720D01*
X186369157Y-94698731D01*
X186424574Y-94580027D01*
X186467148Y-94488830D01*
X186467150Y-94488827D01*
X186569864Y-94348872D01*
X187324995Y-93507277D01*
X187856537Y-92914871D01*
X187867431Y-92900839D01*
X187880289Y-92881596D01*
X187937323Y-92824562D01*
X187941973Y-92819653D01*
X187957028Y-92802874D01*
X187978451Y-92783261D01*
X187982432Y-92779453D01*
X188044096Y-92717789D01*
X188057893Y-92708570D01*
X188072852Y-92696835D01*
X188085071Y-92685648D01*
X188117135Y-92666211D01*
X188159580Y-92640481D01*
X188164171Y-92637558D01*
X188236705Y-92589092D01*
X188252050Y-92582736D01*
X188268998Y-92574151D01*
X188283166Y-92565562D01*
X188283167Y-92565562D01*
X188283168Y-92565561D01*
X188365062Y-92535795D01*
X188370160Y-92533813D01*
X188450723Y-92500443D01*
X188467002Y-92497205D01*
X188485292Y-92492094D01*
X188500885Y-92486427D01*
X188587050Y-92473204D01*
X188592413Y-92472259D01*
X188677923Y-92455250D01*
X188694516Y-92455250D01*
X188713459Y-92453805D01*
X188729856Y-92451289D01*
X188816955Y-92455131D01*
G37*
G36*
X131666955Y-92455131D02*
G01*
X131672395Y-92455250D01*
X131759578Y-92455250D01*
X131775847Y-92458486D01*
X131794706Y-92460765D01*
X131811282Y-92461496D01*
X131895973Y-92482260D01*
X131901268Y-92483434D01*
X131986777Y-92500443D01*
X132002112Y-92506795D01*
X132020151Y-92512705D01*
X132036271Y-92516657D01*
X132115254Y-92553530D01*
X132120244Y-92555727D01*
X132200795Y-92589092D01*
X132214591Y-92598310D01*
X132231143Y-92607632D01*
X132246176Y-92614650D01*
X132316444Y-92666221D01*
X132320942Y-92669372D01*
X132393406Y-92717791D01*
X132405133Y-92729518D01*
X132419559Y-92741898D01*
X132432929Y-92751711D01*
X132432930Y-92751712D01*
X132491771Y-92815983D01*
X132495579Y-92819964D01*
X132557209Y-92881594D01*
X132566424Y-92895385D01*
X132578146Y-92910328D01*
X132589355Y-92922571D01*
X132634549Y-92997124D01*
X132637496Y-93001751D01*
X132685908Y-93074205D01*
X132692255Y-93089527D01*
X132700842Y-93106481D01*
X132709441Y-93120667D01*
X132739228Y-93202618D01*
X132741202Y-93207698D01*
X132774557Y-93288223D01*
X132774557Y-93288224D01*
X132777791Y-93304483D01*
X132782908Y-93322792D01*
X132788575Y-93338384D01*
X132801805Y-93424595D01*
X132802751Y-93429963D01*
X132819750Y-93515423D01*
X132819750Y-93532002D01*
X132821194Y-93550942D01*
X132823713Y-93567354D01*
X132819870Y-93654499D01*
X132819750Y-93659939D01*
X132819750Y-93747075D01*
X132816516Y-93763333D01*
X132814238Y-93782191D01*
X132813506Y-93798781D01*
X132792738Y-93883487D01*
X132791562Y-93888787D01*
X132774557Y-93974277D01*
X132768207Y-93989607D01*
X132762299Y-94007643D01*
X132758345Y-94023770D01*
X132721461Y-94102776D01*
X132719261Y-94107773D01*
X132685908Y-94188295D01*
X132676694Y-94202085D01*
X132667372Y-94218637D01*
X132660352Y-94233674D01*
X132608761Y-94303970D01*
X132605616Y-94308460D01*
X132557211Y-94380904D01*
X132500210Y-94437905D01*
X132495561Y-94442813D01*
X132080634Y-94905250D01*
X131170473Y-95919626D01*
X131042429Y-96036852D01*
X130943380Y-96096896D01*
X130844333Y-96156939D01*
X130626616Y-96236073D01*
X130397645Y-96271211D01*
X130166220Y-96261004D01*
X129941231Y-96205843D01*
X129836477Y-96156939D01*
X129731329Y-96107852D01*
X129634588Y-96036852D01*
X129544573Y-95970789D01*
X129460140Y-95878564D01*
X129388148Y-95799929D01*
X129316845Y-95682307D01*
X129268061Y-95601833D01*
X129188927Y-95384116D01*
X129153789Y-95155145D01*
X129163996Y-94923720D01*
X129219157Y-94698731D01*
X129274574Y-94580027D01*
X129317148Y-94488830D01*
X129317150Y-94488827D01*
X129419864Y-94348872D01*
X130174995Y-93507277D01*
X130706537Y-92914871D01*
X130717431Y-92900839D01*
X130730289Y-92881596D01*
X130787323Y-92824562D01*
X130791973Y-92819653D01*
X130807028Y-92802874D01*
X130828451Y-92783261D01*
X130832432Y-92779453D01*
X130894096Y-92717789D01*
X130907893Y-92708570D01*
X130922852Y-92696835D01*
X130935071Y-92685648D01*
X130967135Y-92666211D01*
X131009580Y-92640481D01*
X131014171Y-92637558D01*
X131086705Y-92589092D01*
X131102050Y-92582736D01*
X131118998Y-92574151D01*
X131133166Y-92565562D01*
X131133167Y-92565562D01*
X131133168Y-92565561D01*
X131215062Y-92535795D01*
X131220160Y-92533813D01*
X131300723Y-92500443D01*
X131317002Y-92497205D01*
X131335292Y-92492094D01*
X131350885Y-92486427D01*
X131437050Y-92473204D01*
X131442413Y-92472259D01*
X131527923Y-92455250D01*
X131544516Y-92455250D01*
X131563459Y-92453805D01*
X131579856Y-92451289D01*
X131666955Y-92455131D01*
G37*
G36*
X150716955Y-92455131D02*
G01*
X150722395Y-92455250D01*
X150809578Y-92455250D01*
X150825847Y-92458486D01*
X150844706Y-92460765D01*
X150861282Y-92461496D01*
X150945973Y-92482260D01*
X150951268Y-92483434D01*
X151036777Y-92500443D01*
X151052112Y-92506795D01*
X151070151Y-92512705D01*
X151086271Y-92516657D01*
X151165254Y-92553530D01*
X151170244Y-92555727D01*
X151250795Y-92589092D01*
X151264591Y-92598310D01*
X151281143Y-92607632D01*
X151296176Y-92614650D01*
X151366444Y-92666221D01*
X151370942Y-92669372D01*
X151443406Y-92717791D01*
X151455133Y-92729518D01*
X151469559Y-92741898D01*
X151482929Y-92751711D01*
X151482930Y-92751712D01*
X151541771Y-92815983D01*
X151545579Y-92819964D01*
X151607209Y-92881594D01*
X151616424Y-92895385D01*
X151628146Y-92910328D01*
X151639355Y-92922571D01*
X151684549Y-92997124D01*
X151687496Y-93001751D01*
X151735908Y-93074205D01*
X151742255Y-93089527D01*
X151750842Y-93106481D01*
X151759441Y-93120667D01*
X151789228Y-93202618D01*
X151791202Y-93207698D01*
X151824557Y-93288223D01*
X151824557Y-93288224D01*
X151827791Y-93304483D01*
X151832908Y-93322792D01*
X151838575Y-93338384D01*
X151851805Y-93424595D01*
X151852751Y-93429963D01*
X151869750Y-93515423D01*
X151869750Y-93532002D01*
X151871194Y-93550942D01*
X151873713Y-93567354D01*
X151869870Y-93654499D01*
X151869750Y-93659939D01*
X151869750Y-93747075D01*
X151866516Y-93763333D01*
X151864238Y-93782191D01*
X151863506Y-93798781D01*
X151842738Y-93883487D01*
X151841562Y-93888787D01*
X151824557Y-93974277D01*
X151818207Y-93989607D01*
X151812299Y-94007643D01*
X151808345Y-94023770D01*
X151771461Y-94102776D01*
X151769261Y-94107773D01*
X151735908Y-94188295D01*
X151726694Y-94202085D01*
X151717372Y-94218637D01*
X151710352Y-94233674D01*
X151658761Y-94303970D01*
X151655616Y-94308460D01*
X151607211Y-94380904D01*
X151550210Y-94437905D01*
X151545561Y-94442813D01*
X151130634Y-94905250D01*
X150220473Y-95919626D01*
X150092429Y-96036852D01*
X149993380Y-96096896D01*
X149894333Y-96156939D01*
X149676616Y-96236073D01*
X149447645Y-96271211D01*
X149216220Y-96261004D01*
X148991231Y-96205843D01*
X148886477Y-96156939D01*
X148781329Y-96107852D01*
X148684588Y-96036852D01*
X148594573Y-95970789D01*
X148510140Y-95878564D01*
X148438148Y-95799929D01*
X148366845Y-95682307D01*
X148318061Y-95601833D01*
X148238927Y-95384116D01*
X148203789Y-95155145D01*
X148213996Y-94923720D01*
X148269157Y-94698731D01*
X148324574Y-94580027D01*
X148367148Y-94488830D01*
X148367150Y-94488827D01*
X148469864Y-94348872D01*
X149224995Y-93507277D01*
X149756537Y-92914871D01*
X149767431Y-92900839D01*
X149780289Y-92881596D01*
X149837323Y-92824562D01*
X149841973Y-92819653D01*
X149857028Y-92802874D01*
X149878451Y-92783261D01*
X149882432Y-92779453D01*
X149944096Y-92717789D01*
X149957893Y-92708570D01*
X149972852Y-92696835D01*
X149985071Y-92685648D01*
X150017135Y-92666211D01*
X150059580Y-92640481D01*
X150064171Y-92637558D01*
X150136705Y-92589092D01*
X150152050Y-92582736D01*
X150168998Y-92574151D01*
X150183166Y-92565562D01*
X150183167Y-92565562D01*
X150183168Y-92565561D01*
X150265062Y-92535795D01*
X150270160Y-92533813D01*
X150350723Y-92500443D01*
X150367002Y-92497205D01*
X150385292Y-92492094D01*
X150400885Y-92486427D01*
X150487050Y-92473204D01*
X150492413Y-92472259D01*
X150577923Y-92455250D01*
X150594516Y-92455250D01*
X150613459Y-92453805D01*
X150629856Y-92451289D01*
X150716955Y-92455131D01*
G37*
G36*
X99576174Y-94065965D02*
G01*
X99613867Y-94077399D01*
X99648603Y-94095966D01*
X99679048Y-94120952D01*
X99704034Y-94151397D01*
X99722601Y-94186133D01*
X99734035Y-94223826D01*
X99738500Y-94269161D01*
X99738500Y-95105839D01*
X99734035Y-95151174D01*
X99722601Y-95188867D01*
X99704034Y-95223603D01*
X99679048Y-95254048D01*
X99648603Y-95279034D01*
X99613867Y-95297601D01*
X99576174Y-95309035D01*
X99530839Y-95313500D01*
X98444161Y-95313500D01*
X98398826Y-95309035D01*
X98361133Y-95297601D01*
X98326397Y-95279034D01*
X98295952Y-95254048D01*
X98270966Y-95223603D01*
X98252399Y-95188867D01*
X98240965Y-95151174D01*
X98236500Y-95105839D01*
X98236500Y-94269161D01*
X98240965Y-94223826D01*
X98252399Y-94186133D01*
X98270966Y-94151397D01*
X98295952Y-94120952D01*
X98326397Y-94095966D01*
X98361133Y-94077399D01*
X98398826Y-94065965D01*
X98444161Y-94061500D01*
X99530839Y-94061500D01*
X99576174Y-94065965D01*
G37*
G36*
X206226000Y-94769750D02*
G01*
X203874000Y-94769750D01*
X203874000Y-90967750D01*
X206226000Y-90967750D01*
X206226000Y-94769750D01*
G37*
G36*
X77457424Y-92915965D02*
G01*
X77495117Y-92927399D01*
X77529853Y-92945966D01*
X77560298Y-92970952D01*
X77585284Y-93001397D01*
X77603851Y-93036133D01*
X77615285Y-93073826D01*
X77619750Y-93119161D01*
X77619750Y-94205839D01*
X77615285Y-94251174D01*
X77603851Y-94288867D01*
X77585284Y-94323603D01*
X77560298Y-94354048D01*
X77529853Y-94379034D01*
X77495117Y-94397601D01*
X77457424Y-94409035D01*
X77412089Y-94413500D01*
X76575411Y-94413500D01*
X76530076Y-94409035D01*
X76492383Y-94397601D01*
X76457647Y-94379034D01*
X76427202Y-94354048D01*
X76402216Y-94323603D01*
X76383649Y-94288867D01*
X76372215Y-94251174D01*
X76367750Y-94205839D01*
X76367750Y-93119161D01*
X76372215Y-93073826D01*
X76383649Y-93036133D01*
X76402216Y-93001397D01*
X76427202Y-92970952D01*
X76457647Y-92945966D01*
X76492383Y-92927399D01*
X76530076Y-92915965D01*
X76575411Y-92911500D01*
X77412089Y-92911500D01*
X77457424Y-92915965D01*
G37*
G36*
X79507424Y-92915965D02*
G01*
X79545117Y-92927399D01*
X79579853Y-92945966D01*
X79610298Y-92970952D01*
X79635284Y-93001397D01*
X79653851Y-93036133D01*
X79665285Y-93073826D01*
X79669750Y-93119161D01*
X79669750Y-94205839D01*
X79665285Y-94251174D01*
X79653851Y-94288867D01*
X79635284Y-94323603D01*
X79610298Y-94354048D01*
X79579853Y-94379034D01*
X79545117Y-94397601D01*
X79507424Y-94409035D01*
X79462089Y-94413500D01*
X78625411Y-94413500D01*
X78580076Y-94409035D01*
X78542383Y-94397601D01*
X78507647Y-94379034D01*
X78477202Y-94354048D01*
X78452216Y-94323603D01*
X78433649Y-94288867D01*
X78422215Y-94251174D01*
X78417750Y-94205839D01*
X78417750Y-93119161D01*
X78422215Y-93073826D01*
X78433649Y-93036133D01*
X78452216Y-93001397D01*
X78477202Y-92970952D01*
X78507647Y-92945966D01*
X78542383Y-92927399D01*
X78580076Y-92915965D01*
X78625411Y-92911500D01*
X79462089Y-92911500D01*
X79507424Y-92915965D01*
G37*
G36*
X193921877Y-91373511D02*
G01*
X193942650Y-91375250D01*
X193949577Y-91375250D01*
X194044504Y-91394132D01*
X194048098Y-91394792D01*
X194143480Y-91410874D01*
X194149953Y-91413335D01*
X194169978Y-91419091D01*
X194176777Y-91420443D01*
X194239164Y-91446284D01*
X194266193Y-91457480D01*
X194269594Y-91458831D01*
X194360005Y-91493211D01*
X194365877Y-91496890D01*
X194384386Y-91506437D01*
X194390795Y-91509092D01*
X194471313Y-91562892D01*
X194474304Y-91564828D01*
X194556307Y-91616209D01*
X194561334Y-91620950D01*
X194577646Y-91633941D01*
X194583402Y-91637787D01*
X194651860Y-91706245D01*
X194654439Y-91708749D01*
X194724840Y-91775139D01*
X194728845Y-91780769D01*
X194742309Y-91796694D01*
X194747209Y-91801594D01*
X194800994Y-91882089D01*
X194803041Y-91885057D01*
X194859130Y-91963895D01*
X194861964Y-91970208D01*
X194872058Y-91988443D01*
X194875908Y-91994205D01*
X194912970Y-92083680D01*
X194914374Y-92086935D01*
X194954015Y-92175223D01*
X194955565Y-92181975D01*
X194961902Y-92201812D01*
X194964557Y-92208223D01*
X194983442Y-92303167D01*
X194984188Y-92306651D01*
X195005848Y-92401001D01*
X195005848Y-92401004D01*
X195006050Y-92407904D01*
X195008397Y-92428620D01*
X195009750Y-92435424D01*
X195009750Y-92532236D01*
X195009803Y-92535834D01*
X195010938Y-92574527D01*
X195010045Y-92587475D01*
X195009750Y-92596047D01*
X195009750Y-92667076D01*
X195003831Y-92696835D01*
X195003354Y-92699229D01*
X195001250Y-92715000D01*
X194962988Y-93269795D01*
X194934126Y-93440980D01*
X194851788Y-93657505D01*
X194728791Y-93853807D01*
X194569861Y-94022340D01*
X194381105Y-94156630D01*
X194169777Y-94251515D01*
X193943999Y-94303348D01*
X193712448Y-94310139D01*
X193712447Y-94310139D01*
X193666762Y-94302436D01*
X193484020Y-94271626D01*
X193267495Y-94189288D01*
X193071193Y-94066291D01*
X192902660Y-93907361D01*
X192768370Y-93718605D01*
X192673485Y-93507277D01*
X192621652Y-93281499D01*
X192616562Y-93107973D01*
X192657454Y-92515044D01*
X192657750Y-92506446D01*
X192657750Y-92435425D01*
X192664597Y-92401001D01*
X192676638Y-92340469D01*
X192677294Y-92336895D01*
X192682981Y-92303167D01*
X192693374Y-92241520D01*
X192695835Y-92235049D01*
X192701592Y-92215017D01*
X192702943Y-92208224D01*
X192705593Y-92201826D01*
X192740014Y-92118726D01*
X192741303Y-92115480D01*
X192775712Y-92024995D01*
X192779386Y-92019131D01*
X192788937Y-92000615D01*
X192791592Y-91994205D01*
X192845407Y-91913665D01*
X192847327Y-91910699D01*
X192898709Y-91828693D01*
X192903461Y-91823654D01*
X192916439Y-91807357D01*
X192920287Y-91801598D01*
X192988743Y-91733142D01*
X192991296Y-91730512D01*
X193011773Y-91708798D01*
X193057639Y-91660160D01*
X193063271Y-91656153D01*
X193079197Y-91642688D01*
X193084096Y-91637789D01*
X193164574Y-91584016D01*
X193167556Y-91581960D01*
X193246395Y-91525870D01*
X193252705Y-91523037D01*
X193270944Y-91512941D01*
X193276701Y-91509094D01*
X193276704Y-91509093D01*
X193276705Y-91509092D01*
X193366179Y-91472031D01*
X193369437Y-91470625D01*
X193457723Y-91430985D01*
X193464475Y-91429435D01*
X193484312Y-91423098D01*
X193490723Y-91420443D01*
X193585649Y-91401561D01*
X193589196Y-91400801D01*
X193683501Y-91379151D01*
X193685880Y-91379081D01*
X193690415Y-91378948D01*
X193711131Y-91376601D01*
X193717924Y-91375250D01*
X193814709Y-91375250D01*
X193818334Y-91375197D01*
X193915052Y-91372360D01*
X193921877Y-91373511D01*
G37*
G36*
X136771877Y-91373511D02*
G01*
X136792650Y-91375250D01*
X136799577Y-91375250D01*
X136894504Y-91394132D01*
X136898098Y-91394792D01*
X136993480Y-91410874D01*
X136999953Y-91413335D01*
X137019978Y-91419091D01*
X137026777Y-91420443D01*
X137089164Y-91446284D01*
X137116193Y-91457480D01*
X137119594Y-91458831D01*
X137210005Y-91493211D01*
X137215877Y-91496890D01*
X137234386Y-91506437D01*
X137240795Y-91509092D01*
X137321313Y-91562892D01*
X137324304Y-91564828D01*
X137406307Y-91616209D01*
X137411334Y-91620950D01*
X137427646Y-91633941D01*
X137433402Y-91637787D01*
X137501860Y-91706245D01*
X137504439Y-91708749D01*
X137574840Y-91775139D01*
X137578845Y-91780769D01*
X137592309Y-91796694D01*
X137597209Y-91801594D01*
X137650994Y-91882089D01*
X137653041Y-91885057D01*
X137709130Y-91963895D01*
X137711964Y-91970208D01*
X137722058Y-91988443D01*
X137725908Y-91994205D01*
X137762970Y-92083680D01*
X137764374Y-92086935D01*
X137804015Y-92175223D01*
X137805565Y-92181975D01*
X137811902Y-92201812D01*
X137814557Y-92208223D01*
X137833442Y-92303167D01*
X137834188Y-92306651D01*
X137855848Y-92401001D01*
X137855848Y-92401004D01*
X137856050Y-92407904D01*
X137858397Y-92428620D01*
X137859750Y-92435424D01*
X137859750Y-92532236D01*
X137859803Y-92535834D01*
X137860938Y-92574527D01*
X137860045Y-92587475D01*
X137859750Y-92596047D01*
X137859750Y-92667076D01*
X137853831Y-92696835D01*
X137853354Y-92699229D01*
X137851250Y-92715000D01*
X137812988Y-93269795D01*
X137784126Y-93440980D01*
X137701788Y-93657505D01*
X137578791Y-93853807D01*
X137419861Y-94022340D01*
X137231105Y-94156630D01*
X137019777Y-94251515D01*
X136793999Y-94303348D01*
X136562448Y-94310139D01*
X136562447Y-94310139D01*
X136516762Y-94302436D01*
X136334020Y-94271626D01*
X136117495Y-94189288D01*
X135921193Y-94066291D01*
X135752660Y-93907361D01*
X135618370Y-93718605D01*
X135523485Y-93507277D01*
X135471652Y-93281499D01*
X135466562Y-93107973D01*
X135507454Y-92515044D01*
X135507750Y-92506446D01*
X135507750Y-92435425D01*
X135514597Y-92401001D01*
X135526638Y-92340469D01*
X135527294Y-92336895D01*
X135532981Y-92303167D01*
X135543374Y-92241520D01*
X135545835Y-92235049D01*
X135551592Y-92215017D01*
X135552943Y-92208224D01*
X135555593Y-92201826D01*
X135590014Y-92118726D01*
X135591303Y-92115480D01*
X135625712Y-92024995D01*
X135629386Y-92019131D01*
X135638937Y-92000615D01*
X135641592Y-91994205D01*
X135695407Y-91913665D01*
X135697327Y-91910699D01*
X135748709Y-91828693D01*
X135753461Y-91823654D01*
X135766439Y-91807357D01*
X135770287Y-91801598D01*
X135838743Y-91733142D01*
X135841296Y-91730512D01*
X135861773Y-91708798D01*
X135907639Y-91660160D01*
X135913271Y-91656153D01*
X135929197Y-91642688D01*
X135934096Y-91637789D01*
X136014574Y-91584016D01*
X136017556Y-91581960D01*
X136096395Y-91525870D01*
X136102705Y-91523037D01*
X136120944Y-91512941D01*
X136126701Y-91509094D01*
X136126704Y-91509093D01*
X136126705Y-91509092D01*
X136216179Y-91472031D01*
X136219437Y-91470625D01*
X136307723Y-91430985D01*
X136314475Y-91429435D01*
X136334312Y-91423098D01*
X136340723Y-91420443D01*
X136435649Y-91401561D01*
X136439196Y-91400801D01*
X136533501Y-91379151D01*
X136535880Y-91379081D01*
X136540415Y-91378948D01*
X136561131Y-91376601D01*
X136567924Y-91375250D01*
X136664709Y-91375250D01*
X136668334Y-91375197D01*
X136765052Y-91372360D01*
X136771877Y-91373511D01*
G37*
G36*
X174871877Y-91373511D02*
G01*
X174892650Y-91375250D01*
X174899577Y-91375250D01*
X174994504Y-91394132D01*
X174998098Y-91394792D01*
X175093480Y-91410874D01*
X175099953Y-91413335D01*
X175119978Y-91419091D01*
X175126777Y-91420443D01*
X175189164Y-91446284D01*
X175216193Y-91457480D01*
X175219594Y-91458831D01*
X175310005Y-91493211D01*
X175315877Y-91496890D01*
X175334386Y-91506437D01*
X175340795Y-91509092D01*
X175421313Y-91562892D01*
X175424304Y-91564828D01*
X175506307Y-91616209D01*
X175511334Y-91620950D01*
X175527646Y-91633941D01*
X175533402Y-91637787D01*
X175601860Y-91706245D01*
X175604439Y-91708749D01*
X175674840Y-91775139D01*
X175678845Y-91780769D01*
X175692309Y-91796694D01*
X175697209Y-91801594D01*
X175750994Y-91882089D01*
X175753041Y-91885057D01*
X175809130Y-91963895D01*
X175811964Y-91970208D01*
X175822058Y-91988443D01*
X175825908Y-91994205D01*
X175862970Y-92083680D01*
X175864374Y-92086935D01*
X175904015Y-92175223D01*
X175905565Y-92181975D01*
X175911902Y-92201812D01*
X175914557Y-92208223D01*
X175933442Y-92303167D01*
X175934188Y-92306651D01*
X175955848Y-92401001D01*
X175955848Y-92401004D01*
X175956050Y-92407904D01*
X175958397Y-92428620D01*
X175959750Y-92435424D01*
X175959750Y-92532236D01*
X175959803Y-92535834D01*
X175960938Y-92574527D01*
X175960045Y-92587475D01*
X175959750Y-92596047D01*
X175959750Y-92667076D01*
X175953831Y-92696835D01*
X175953354Y-92699229D01*
X175951250Y-92715000D01*
X175912988Y-93269795D01*
X175884126Y-93440980D01*
X175801788Y-93657505D01*
X175678791Y-93853807D01*
X175519861Y-94022340D01*
X175331105Y-94156630D01*
X175119777Y-94251515D01*
X174893999Y-94303348D01*
X174662448Y-94310139D01*
X174662447Y-94310139D01*
X174616762Y-94302436D01*
X174434020Y-94271626D01*
X174217495Y-94189288D01*
X174021193Y-94066291D01*
X173852660Y-93907361D01*
X173718370Y-93718605D01*
X173623485Y-93507277D01*
X173571652Y-93281499D01*
X173566562Y-93107973D01*
X173607454Y-92515044D01*
X173607750Y-92506446D01*
X173607750Y-92435425D01*
X173614597Y-92401001D01*
X173626638Y-92340469D01*
X173627294Y-92336895D01*
X173632981Y-92303167D01*
X173643374Y-92241520D01*
X173645835Y-92235049D01*
X173651592Y-92215017D01*
X173652943Y-92208224D01*
X173655593Y-92201826D01*
X173690014Y-92118726D01*
X173691303Y-92115480D01*
X173725712Y-92024995D01*
X173729386Y-92019131D01*
X173738937Y-92000615D01*
X173741592Y-91994205D01*
X173795407Y-91913665D01*
X173797327Y-91910699D01*
X173848709Y-91828693D01*
X173853461Y-91823654D01*
X173866439Y-91807357D01*
X173870287Y-91801598D01*
X173938743Y-91733142D01*
X173941296Y-91730512D01*
X173961773Y-91708798D01*
X174007639Y-91660160D01*
X174013271Y-91656153D01*
X174029197Y-91642688D01*
X174034096Y-91637789D01*
X174114574Y-91584016D01*
X174117556Y-91581960D01*
X174196395Y-91525870D01*
X174202705Y-91523037D01*
X174220944Y-91512941D01*
X174226701Y-91509094D01*
X174226704Y-91509093D01*
X174226705Y-91509092D01*
X174316179Y-91472031D01*
X174319437Y-91470625D01*
X174407723Y-91430985D01*
X174414475Y-91429435D01*
X174434312Y-91423098D01*
X174440723Y-91420443D01*
X174535649Y-91401561D01*
X174539196Y-91400801D01*
X174633501Y-91379151D01*
X174635880Y-91379081D01*
X174640415Y-91378948D01*
X174661131Y-91376601D01*
X174667924Y-91375250D01*
X174764709Y-91375250D01*
X174768334Y-91375197D01*
X174865052Y-91372360D01*
X174871877Y-91373511D01*
G37*
G36*
X155821877Y-91373511D02*
G01*
X155842650Y-91375250D01*
X155849577Y-91375250D01*
X155944504Y-91394132D01*
X155948098Y-91394792D01*
X156043480Y-91410874D01*
X156049953Y-91413335D01*
X156069978Y-91419091D01*
X156076777Y-91420443D01*
X156139164Y-91446284D01*
X156166193Y-91457480D01*
X156169594Y-91458831D01*
X156260005Y-91493211D01*
X156265877Y-91496890D01*
X156284386Y-91506437D01*
X156290795Y-91509092D01*
X156371313Y-91562892D01*
X156374304Y-91564828D01*
X156456307Y-91616209D01*
X156461334Y-91620950D01*
X156477646Y-91633941D01*
X156483402Y-91637787D01*
X156551860Y-91706245D01*
X156554439Y-91708749D01*
X156624840Y-91775139D01*
X156628845Y-91780769D01*
X156642309Y-91796694D01*
X156647209Y-91801594D01*
X156700994Y-91882089D01*
X156703041Y-91885057D01*
X156759130Y-91963895D01*
X156761964Y-91970208D01*
X156772058Y-91988443D01*
X156775908Y-91994205D01*
X156812970Y-92083680D01*
X156814374Y-92086935D01*
X156854015Y-92175223D01*
X156855565Y-92181975D01*
X156861902Y-92201812D01*
X156864557Y-92208223D01*
X156883442Y-92303167D01*
X156884188Y-92306651D01*
X156905848Y-92401001D01*
X156905848Y-92401004D01*
X156906050Y-92407904D01*
X156908397Y-92428620D01*
X156909750Y-92435424D01*
X156909750Y-92532236D01*
X156909803Y-92535834D01*
X156910938Y-92574527D01*
X156910045Y-92587475D01*
X156909750Y-92596047D01*
X156909750Y-92667076D01*
X156903831Y-92696835D01*
X156903354Y-92699229D01*
X156901250Y-92715000D01*
X156862988Y-93269795D01*
X156834126Y-93440980D01*
X156751788Y-93657505D01*
X156628791Y-93853807D01*
X156469861Y-94022340D01*
X156281105Y-94156630D01*
X156069777Y-94251515D01*
X155843999Y-94303348D01*
X155612448Y-94310139D01*
X155612447Y-94310139D01*
X155566762Y-94302436D01*
X155384020Y-94271626D01*
X155167495Y-94189288D01*
X154971193Y-94066291D01*
X154802660Y-93907361D01*
X154668370Y-93718605D01*
X154573485Y-93507277D01*
X154521652Y-93281499D01*
X154516562Y-93107973D01*
X154557454Y-92515044D01*
X154557750Y-92506446D01*
X154557750Y-92435425D01*
X154564597Y-92401001D01*
X154576638Y-92340469D01*
X154577294Y-92336895D01*
X154582981Y-92303167D01*
X154593374Y-92241520D01*
X154595835Y-92235049D01*
X154601592Y-92215017D01*
X154602943Y-92208224D01*
X154605593Y-92201826D01*
X154640014Y-92118726D01*
X154641303Y-92115480D01*
X154675712Y-92024995D01*
X154679386Y-92019131D01*
X154688937Y-92000615D01*
X154691592Y-91994205D01*
X154745407Y-91913665D01*
X154747327Y-91910699D01*
X154798709Y-91828693D01*
X154803461Y-91823654D01*
X154816439Y-91807357D01*
X154820287Y-91801598D01*
X154888743Y-91733142D01*
X154891296Y-91730512D01*
X154911773Y-91708798D01*
X154957639Y-91660160D01*
X154963271Y-91656153D01*
X154979197Y-91642688D01*
X154984096Y-91637789D01*
X155064574Y-91584016D01*
X155067556Y-91581960D01*
X155146395Y-91525870D01*
X155152705Y-91523037D01*
X155170944Y-91512941D01*
X155176701Y-91509094D01*
X155176704Y-91509093D01*
X155176705Y-91509092D01*
X155266179Y-91472031D01*
X155269437Y-91470625D01*
X155357723Y-91430985D01*
X155364475Y-91429435D01*
X155384312Y-91423098D01*
X155390723Y-91420443D01*
X155485649Y-91401561D01*
X155489196Y-91400801D01*
X155583501Y-91379151D01*
X155585880Y-91379081D01*
X155590415Y-91378948D01*
X155611131Y-91376601D01*
X155617924Y-91375250D01*
X155714709Y-91375250D01*
X155718334Y-91375197D01*
X155815052Y-91372360D01*
X155821877Y-91373511D01*
G37*
G36*
X181626000Y-93369750D02*
G01*
X180324000Y-93369750D01*
X180324000Y-92367750D01*
X181626000Y-92367750D01*
X181626000Y-93369750D01*
G37*
G36*
X143526000Y-93369750D02*
G01*
X142224000Y-93369750D01*
X142224000Y-92367750D01*
X143526000Y-92367750D01*
X143526000Y-93369750D01*
G37*
G36*
X161782250Y-93369750D02*
G01*
X160480250Y-93369750D01*
X160480250Y-92367750D01*
X161782250Y-92367750D01*
X161782250Y-93369750D01*
G37*
G36*
X99576174Y-92015965D02*
G01*
X99613867Y-92027399D01*
X99648603Y-92045966D01*
X99679048Y-92070952D01*
X99704034Y-92101397D01*
X99722601Y-92136133D01*
X99734035Y-92173826D01*
X99738500Y-92219161D01*
X99738500Y-93055839D01*
X99734035Y-93101174D01*
X99722601Y-93138867D01*
X99704034Y-93173603D01*
X99679048Y-93204048D01*
X99648603Y-93229034D01*
X99613867Y-93247601D01*
X99576174Y-93259035D01*
X99530839Y-93263500D01*
X98444161Y-93263500D01*
X98398826Y-93259035D01*
X98361133Y-93247601D01*
X98326397Y-93229034D01*
X98295952Y-93204048D01*
X98270966Y-93173603D01*
X98252399Y-93138867D01*
X98240965Y-93101174D01*
X98236500Y-93055839D01*
X98236500Y-92219161D01*
X98240965Y-92173826D01*
X98252399Y-92136133D01*
X98270966Y-92101397D01*
X98295952Y-92070952D01*
X98326397Y-92045966D01*
X98361133Y-92027399D01*
X98398826Y-92015965D01*
X98444161Y-92011500D01*
X99530839Y-92011500D01*
X99576174Y-92015965D01*
G37*
G36*
X117101000Y-93201000D02*
G01*
X113799000Y-93201000D01*
X113799000Y-91099000D01*
X117101000Y-91099000D01*
X117101000Y-93201000D01*
G37*
G36*
X94019750Y-92732250D02*
G01*
X85367750Y-92732250D01*
X85367750Y-91130250D01*
X94019750Y-91130250D01*
X94019750Y-92732250D01*
G37*
G36*
X85726174Y-88947215D02*
G01*
X85763867Y-88958649D01*
X85798603Y-88977216D01*
X85829048Y-89002202D01*
X85854034Y-89032647D01*
X85872601Y-89067383D01*
X85884035Y-89105076D01*
X85888500Y-89150411D01*
X85888500Y-90237089D01*
X85884035Y-90282424D01*
X85872601Y-90320117D01*
X85854034Y-90354853D01*
X85829048Y-90385298D01*
X85798603Y-90410284D01*
X85763867Y-90428851D01*
X85726174Y-90440285D01*
X85680839Y-90444750D01*
X84844161Y-90444750D01*
X84798826Y-90440285D01*
X84761133Y-90428851D01*
X84726397Y-90410284D01*
X84695952Y-90385298D01*
X84670966Y-90354853D01*
X84652399Y-90320117D01*
X84640965Y-90282424D01*
X84636500Y-90237089D01*
X84636500Y-89150411D01*
X84640965Y-89105076D01*
X84652399Y-89067383D01*
X84670966Y-89032647D01*
X84695952Y-89002202D01*
X84726397Y-88977216D01*
X84761133Y-88958649D01*
X84798826Y-88947215D01*
X84844161Y-88942750D01*
X85680839Y-88942750D01*
X85726174Y-88947215D01*
G37*
G36*
X87776174Y-88947215D02*
G01*
X87813867Y-88958649D01*
X87848603Y-88977216D01*
X87879048Y-89002202D01*
X87904034Y-89032647D01*
X87922601Y-89067383D01*
X87934035Y-89105076D01*
X87938500Y-89150411D01*
X87938500Y-90237089D01*
X87934035Y-90282424D01*
X87922601Y-90320117D01*
X87904034Y-90354853D01*
X87879048Y-90385298D01*
X87848603Y-90410284D01*
X87813867Y-90428851D01*
X87776174Y-90440285D01*
X87730839Y-90444750D01*
X86894161Y-90444750D01*
X86848826Y-90440285D01*
X86811133Y-90428851D01*
X86776397Y-90410284D01*
X86745952Y-90385298D01*
X86720966Y-90354853D01*
X86702399Y-90320117D01*
X86690965Y-90282424D01*
X86686500Y-90237089D01*
X86686500Y-89150411D01*
X86690965Y-89105076D01*
X86702399Y-89067383D01*
X86720966Y-89032647D01*
X86745952Y-89002202D01*
X86776397Y-88977216D01*
X86811133Y-88958649D01*
X86848826Y-88947215D01*
X86894161Y-88942750D01*
X87730839Y-88942750D01*
X87776174Y-88947215D01*
G37*
G36*
X96176174Y-88947215D02*
G01*
X96213867Y-88958649D01*
X96248603Y-88977216D01*
X96279048Y-89002202D01*
X96304034Y-89032647D01*
X96322601Y-89067383D01*
X96334035Y-89105076D01*
X96338500Y-89150411D01*
X96338500Y-90237089D01*
X96334035Y-90282424D01*
X96322601Y-90320117D01*
X96304034Y-90354853D01*
X96279048Y-90385298D01*
X96248603Y-90410284D01*
X96213867Y-90428851D01*
X96176174Y-90440285D01*
X96130839Y-90444750D01*
X95294161Y-90444750D01*
X95248826Y-90440285D01*
X95211133Y-90428851D01*
X95176397Y-90410284D01*
X95145952Y-90385298D01*
X95120966Y-90354853D01*
X95102399Y-90320117D01*
X95090965Y-90282424D01*
X95086500Y-90237089D01*
X95086500Y-89150411D01*
X95090965Y-89105076D01*
X95102399Y-89067383D01*
X95120966Y-89032647D01*
X95145952Y-89002202D01*
X95176397Y-88977216D01*
X95211133Y-88958649D01*
X95248826Y-88947215D01*
X95294161Y-88942750D01*
X96130839Y-88942750D01*
X96176174Y-88947215D01*
G37*
G36*
X94126174Y-88947215D02*
G01*
X94163867Y-88958649D01*
X94198603Y-88977216D01*
X94229048Y-89002202D01*
X94254034Y-89032647D01*
X94272601Y-89067383D01*
X94284035Y-89105076D01*
X94288500Y-89150411D01*
X94288500Y-90237089D01*
X94284035Y-90282424D01*
X94272601Y-90320117D01*
X94254034Y-90354853D01*
X94229048Y-90385298D01*
X94198603Y-90410284D01*
X94163867Y-90428851D01*
X94126174Y-90440285D01*
X94080839Y-90444750D01*
X93244161Y-90444750D01*
X93198826Y-90440285D01*
X93161133Y-90428851D01*
X93126397Y-90410284D01*
X93095952Y-90385298D01*
X93070966Y-90354853D01*
X93052399Y-90320117D01*
X93040965Y-90282424D01*
X93036500Y-90237089D01*
X93036500Y-89150411D01*
X93040965Y-89105076D01*
X93052399Y-89067383D01*
X93070966Y-89032647D01*
X93095952Y-89002202D01*
X93126397Y-88977216D01*
X93161133Y-88958649D01*
X93198826Y-88947215D01*
X93244161Y-88942750D01*
X94080839Y-88942750D01*
X94126174Y-88947215D01*
G37*
G36*
X205660443Y-88324269D02*
G01*
X205726627Y-88330787D01*
X205896466Y-88382307D01*
X206052991Y-88465972D01*
X206088729Y-88495302D01*
X206190186Y-88578564D01*
X206250889Y-88652532D01*
X206302778Y-88715759D01*
X206386443Y-88872284D01*
X206437963Y-89042123D01*
X206455359Y-89218750D01*
X206437963Y-89395377D01*
X206386443Y-89565216D01*
X206302778Y-89721741D01*
X206273448Y-89757479D01*
X206190186Y-89858936D01*
X206088729Y-89942198D01*
X206052991Y-89971528D01*
X205896466Y-90055193D01*
X205726627Y-90106713D01*
X205660443Y-90113231D01*
X205594260Y-90119750D01*
X204505740Y-90119750D01*
X204439557Y-90113231D01*
X204373373Y-90106713D01*
X204203534Y-90055193D01*
X204047009Y-89971528D01*
X204011271Y-89942198D01*
X203909814Y-89858936D01*
X203826552Y-89757479D01*
X203797222Y-89721741D01*
X203713557Y-89565216D01*
X203662037Y-89395377D01*
X203644641Y-89218750D01*
X203662037Y-89042123D01*
X203713557Y-88872284D01*
X203797222Y-88715759D01*
X203849111Y-88652532D01*
X203909814Y-88578564D01*
X204011271Y-88495302D01*
X204047009Y-88465972D01*
X204203534Y-88382307D01*
X204373373Y-88330787D01*
X204439558Y-88324268D01*
X204505740Y-88317750D01*
X205594260Y-88317750D01*
X205660443Y-88324269D01*
G37*
G36*
X210160443Y-88324269D02*
G01*
X210226627Y-88330787D01*
X210396466Y-88382307D01*
X210552991Y-88465972D01*
X210588729Y-88495302D01*
X210690186Y-88578564D01*
X210750889Y-88652532D01*
X210802778Y-88715759D01*
X210886443Y-88872284D01*
X210937963Y-89042123D01*
X210955359Y-89218750D01*
X210937963Y-89395377D01*
X210886443Y-89565216D01*
X210802778Y-89721741D01*
X210773448Y-89757479D01*
X210690186Y-89858936D01*
X210588729Y-89942198D01*
X210552991Y-89971528D01*
X210396466Y-90055193D01*
X210226627Y-90106713D01*
X210160443Y-90113231D01*
X210094260Y-90119750D01*
X209005740Y-90119750D01*
X208939557Y-90113231D01*
X208873373Y-90106713D01*
X208703534Y-90055193D01*
X208547009Y-89971528D01*
X208511271Y-89942198D01*
X208409814Y-89858936D01*
X208326552Y-89757479D01*
X208297222Y-89721741D01*
X208213557Y-89565216D01*
X208162037Y-89395377D01*
X208144641Y-89218750D01*
X208162037Y-89042123D01*
X208213557Y-88872284D01*
X208297222Y-88715759D01*
X208349111Y-88652532D01*
X208409814Y-88578564D01*
X208511271Y-88495302D01*
X208547009Y-88465972D01*
X208703534Y-88382307D01*
X208873373Y-88330787D01*
X208939558Y-88324268D01*
X209005740Y-88317750D01*
X210094260Y-88317750D01*
X210160443Y-88324269D01*
G37*
G36*
X194176000Y-89551000D02*
G01*
X193174000Y-89551000D01*
X193174000Y-88249000D01*
X194176000Y-88249000D01*
X194176000Y-89551000D01*
G37*
G36*
X190876000Y-89551000D02*
G01*
X189874000Y-89551000D01*
X189874000Y-88249000D01*
X190876000Y-88249000D01*
X190876000Y-89551000D01*
G37*
G36*
X108538674Y-87484715D02*
G01*
X108576367Y-87496149D01*
X108611103Y-87514716D01*
X108641548Y-87539702D01*
X108666534Y-87570147D01*
X108685101Y-87604883D01*
X108696535Y-87642576D01*
X108701000Y-87687911D01*
X108701000Y-88524589D01*
X108696535Y-88569924D01*
X108685101Y-88607617D01*
X108666534Y-88642353D01*
X108641548Y-88672798D01*
X108611103Y-88697784D01*
X108576367Y-88716351D01*
X108538674Y-88727785D01*
X108493339Y-88732250D01*
X107406661Y-88732250D01*
X107361326Y-88727785D01*
X107323633Y-88716351D01*
X107288897Y-88697784D01*
X107258452Y-88672798D01*
X107233466Y-88642353D01*
X107214899Y-88607617D01*
X107203465Y-88569924D01*
X107199000Y-88524589D01*
X107199000Y-87687911D01*
X107203465Y-87642576D01*
X107214899Y-87604883D01*
X107233466Y-87570147D01*
X107258452Y-87539702D01*
X107288897Y-87514716D01*
X107323633Y-87496149D01*
X107361326Y-87484715D01*
X107406661Y-87480250D01*
X108493339Y-87480250D01*
X108538674Y-87484715D01*
G37*
G36*
X112738674Y-87484715D02*
G01*
X112776367Y-87496149D01*
X112811103Y-87514716D01*
X112841548Y-87539702D01*
X112866534Y-87570147D01*
X112885101Y-87604883D01*
X112896535Y-87642576D01*
X112901000Y-87687911D01*
X112901000Y-88524589D01*
X112896535Y-88569924D01*
X112885101Y-88607617D01*
X112866534Y-88642353D01*
X112841548Y-88672798D01*
X112811103Y-88697784D01*
X112776367Y-88716351D01*
X112738674Y-88727785D01*
X112693339Y-88732250D01*
X111606661Y-88732250D01*
X111561326Y-88727785D01*
X111523633Y-88716351D01*
X111488897Y-88697784D01*
X111458452Y-88672798D01*
X111433466Y-88642353D01*
X111414899Y-88607617D01*
X111403465Y-88569924D01*
X111399000Y-88524589D01*
X111399000Y-87687911D01*
X111403465Y-87642576D01*
X111414899Y-87604883D01*
X111433466Y-87570147D01*
X111458452Y-87539702D01*
X111488897Y-87514716D01*
X111523633Y-87496149D01*
X111561326Y-87484715D01*
X111606661Y-87480250D01*
X112693339Y-87480250D01*
X112738674Y-87484715D01*
G37*
G36*
X112738674Y-85434715D02*
G01*
X112776367Y-85446149D01*
X112811103Y-85464716D01*
X112841548Y-85489702D01*
X112866534Y-85520147D01*
X112885101Y-85554883D01*
X112896535Y-85592576D01*
X112901000Y-85637911D01*
X112901000Y-86474589D01*
X112896535Y-86519924D01*
X112885101Y-86557617D01*
X112866534Y-86592353D01*
X112841548Y-86622798D01*
X112811103Y-86647784D01*
X112776367Y-86666351D01*
X112738674Y-86677785D01*
X112693339Y-86682250D01*
X111606661Y-86682250D01*
X111561326Y-86677785D01*
X111523633Y-86666351D01*
X111488897Y-86647784D01*
X111458452Y-86622798D01*
X111433466Y-86592353D01*
X111414899Y-86557617D01*
X111403465Y-86519924D01*
X111399000Y-86474589D01*
X111399000Y-85637911D01*
X111403465Y-85592576D01*
X111414899Y-85554883D01*
X111433466Y-85520147D01*
X111458452Y-85489702D01*
X111488897Y-85464716D01*
X111523633Y-85446149D01*
X111561326Y-85434715D01*
X111606661Y-85430250D01*
X112693339Y-85430250D01*
X112738674Y-85434715D01*
G37*
G36*
X108538674Y-85434715D02*
G01*
X108576367Y-85446149D01*
X108611103Y-85464716D01*
X108641548Y-85489702D01*
X108666534Y-85520147D01*
X108685101Y-85554883D01*
X108696535Y-85592576D01*
X108701000Y-85637911D01*
X108701000Y-86474589D01*
X108696535Y-86519924D01*
X108685101Y-86557617D01*
X108666534Y-86592353D01*
X108641548Y-86622798D01*
X108611103Y-86647784D01*
X108576367Y-86666351D01*
X108538674Y-86677785D01*
X108493339Y-86682250D01*
X107406661Y-86682250D01*
X107361326Y-86677785D01*
X107323633Y-86666351D01*
X107288897Y-86647784D01*
X107258452Y-86622798D01*
X107233466Y-86592353D01*
X107214899Y-86557617D01*
X107203465Y-86519924D01*
X107199000Y-86474589D01*
X107199000Y-85637911D01*
X107203465Y-85592576D01*
X107214899Y-85554883D01*
X107233466Y-85520147D01*
X107258452Y-85489702D01*
X107288897Y-85464716D01*
X107323633Y-85446149D01*
X107361326Y-85434715D01*
X107406661Y-85430250D01*
X108493339Y-85430250D01*
X108538674Y-85434715D01*
G37*
G36*
X190478062Y-83279181D02*
G01*
X190512981Y-83289774D01*
X190545163Y-83306976D01*
X190573373Y-83330127D01*
X190596524Y-83358337D01*
X190613726Y-83390519D01*
X190624319Y-83425438D01*
X190628500Y-83467895D01*
X190628500Y-84934105D01*
X190624319Y-84976562D01*
X190613726Y-85011481D01*
X190596524Y-85043663D01*
X190573373Y-85071873D01*
X190545163Y-85095024D01*
X190512981Y-85112226D01*
X190478062Y-85122819D01*
X190435605Y-85127000D01*
X189294395Y-85127000D01*
X189251938Y-85122819D01*
X189217019Y-85112226D01*
X189184837Y-85095024D01*
X189156627Y-85071873D01*
X189133476Y-85043663D01*
X189116274Y-85011481D01*
X189105681Y-84976562D01*
X189101500Y-84934105D01*
X189101500Y-83467895D01*
X189105681Y-83425438D01*
X189116274Y-83390519D01*
X189133476Y-83358337D01*
X189156627Y-83330127D01*
X189184837Y-83306976D01*
X189217019Y-83289774D01*
X189251938Y-83279181D01*
X189294395Y-83275000D01*
X190435605Y-83275000D01*
X190478062Y-83279181D01*
G37*
G36*
X193453062Y-83279181D02*
G01*
X193487981Y-83289774D01*
X193520163Y-83306976D01*
X193548373Y-83330127D01*
X193571524Y-83358337D01*
X193588726Y-83390519D01*
X193599319Y-83425438D01*
X193603500Y-83467895D01*
X193603500Y-84934105D01*
X193599319Y-84976562D01*
X193588726Y-85011481D01*
X193571524Y-85043663D01*
X193548373Y-85071873D01*
X193520163Y-85095024D01*
X193487981Y-85112226D01*
X193453062Y-85122819D01*
X193410605Y-85127000D01*
X192269395Y-85127000D01*
X192226938Y-85122819D01*
X192192019Y-85112226D01*
X192159837Y-85095024D01*
X192131627Y-85071873D01*
X192108476Y-85043663D01*
X192091274Y-85011481D01*
X192080681Y-84976562D01*
X192076500Y-84934105D01*
X192076500Y-83467895D01*
X192080681Y-83425438D01*
X192091274Y-83390519D01*
X192108476Y-83358337D01*
X192131627Y-83330127D01*
X192159837Y-83306976D01*
X192192019Y-83289774D01*
X192226938Y-83279181D01*
X192269395Y-83275000D01*
X193410605Y-83275000D01*
X193453062Y-83279181D01*
G37*
M02*
